<svg width="622" height="182" viewBox="0 0 622 182" fill="none" xmlns="http://www.w3.org/2000/svg">
<g clip-path="url(#clip0_469_134)">
<path d="M113.055 172.084C109.491 149.798 93.6937 129.761 70.3663 117.94C54.0899 109.692 51.8193 110.315 66.7346 118.937C79.9959 126.602 88.2703 134.626 98.1686 149.419C104.134 158.334 104.288 159.178 100.236 160.777C97.8288 161.727 90.4702 162.581 83.8835 162.674C66.8541 162.917 53.2124 155.473 38.134 137.711C31.1714 129.509 19.7374 117.039 12.7251 109.999L-0.0244141 97.2L6.65751 94.2297C10.6074 92.4739 24.2553 91.2569 40.037 91.2532C62.0545 91.248 68.6492 92.1384 77.6563 96.3319C97.1545 105.41 110.77 123.468 119.572 151.923C125.801 172.061 126.464 179.213 122.254 180.828C115.666 183.356 114.713 182.451 113.055 172.084ZM359.195 105.809V43.9192H374.971H390.746V105.809V167.699H374.971H359.195V105.809ZM152.895 85.1792V5.0864H196.106C237.761 5.0864 239.771 5.31299 251.963 11.3887C261.315 16.0492 266.312 20.5946 271.142 28.8372C282.771 48.6802 278.757 81.0518 262.889 95.4017C253.651 103.755 239.349 107.618 212.965 108.885L186.874 110.137V137.705V165.272H169.884H152.895V85.1792ZM238.109 71.432C245.538 63.9978 245.424 47.1438 237.904 41.0544C233.496 37.4848 228.081 36.638 209.662 36.638H186.874V57.5024V78.3665L209.867 77.5255C229.547 76.8054 233.617 75.9274 238.109 71.432ZM281.529 105.809V46.3463H297.305H313.081L313.108 56.6613L313.136 66.9763L319.582 58.7951C326.172 50.4315 338.167 43.9192 346.983 43.9192C351.465 43.9192 351.915 45.4489 351.915 60.6952V77.4714L342.241 79.1057C320.787 82.7304 313.082 99.4376 313.082 142.334V165.272H297.306H281.53L281.529 105.809ZM402.882 107.023V48.7734H419.871C436.67 48.7734 436.86 48.8468 436.86 55.2641V61.7548L442.321 56.7808C451.392 48.5191 458.388 45.9996 472.257 45.9996C489.145 45.9996 500.284 52.5976 507.073 66.6206C511.592 75.9551 512.099 81.4599 512.099 121.138V165.272H495.11H478.12V126.766C478.12 91.4864 477.699 87.7252 473.09 81.8659C467.068 74.2101 454.755 73.2075 446.718 79.7184C439.325 85.7071 436.985 98.75 436.918 134.327L436.863 165.272H419.874H402.885L402.882 107.023ZM546.078 160.542C534.018 154.132 526.596 145.363 524.09 134.562C522.898 129.427 521.897 99.2865 521.865 67.5831L521.81 9.94044H538.8H555.789V25.7164V41.4922H588.554H621.319V53.6275V65.7627H588.554H555.789V96.2113C555.789 125.303 556.054 126.925 561.746 132.617C568.666 139.536 572.735 139.976 582.607 134.871L589.768 131.169V106.96V82.7521H605.544H621.319V108.357C621.319 136.148 619.374 142.532 607.581 153.447C596.743 163.477 591.322 165.279 572.331 165.165C559.848 165.091 552.05 163.717 546.078 160.542ZM118.019 139.614C114.621 129.641 114.612 127.416 117.934 117.631C123.048 102.569 121.67 92.1324 114.063 88.304C110.725 86.6247 100.623 85.2347 91.6123 85.215L75.2297 85.1782L75.2516 74.8634C75.27 65.9704 76.9925 62.5407 87.7445 49.9859L100.216 35.4237L74.3741 34.7347L48.5325 34.0458V19.5655V5.08542H94.6465H140.761V17.2819C140.761 28.8635 140.009 30.2867 125.845 45.5111L110.93 61.5436L123.254 67.4008C132.881 71.9764 136.676 75.5265 140.596 83.625C146.648 96.1264 147.19 115.541 141.845 128.336C138.179 137.114 127.058 150.709 123.545 150.709C122.586 150.709 120.098 145.716 118.019 139.614ZM360.194 30.8879C359.492 29.0603 359.254 21.688 359.664 14.5053L360.409 1.44576L375.578 0.722949L390.747 0V17.1053V34.2105H376.109C365.957 34.2105 361.079 33.1925 360.194 30.8879Z" fill="white"/>
</g>
<defs>
<clipPath id="clip0_469_134">
<rect width="621.294" height="182" fill="white"/>
</clipPath>
</defs>
</svg>
