<svg width="537" height="182" viewBox="0 0 537 182" fill="none" xmlns="http://www.w3.org/2000/svg">
<g clip-path="url(#clip0_469_181)">
<path d="M25.9702 149.463C22.2278 149.463 18.7395 148.862 15.5053 147.661C12.3173 146.413 9.54513 144.657 7.18879 142.393C4.83246 140.13 2.98435 137.473 1.64447 134.424C0.350795 131.374 -0.296043 128.024 -0.296043 124.374C-0.296043 120.724 0.350795 117.375 1.64447 114.325C2.98435 111.276 4.83246 108.619 7.18879 106.355C9.59134 104.091 12.3866 102.359 15.5746 101.158C18.7626 99.9101 22.2509 99.2864 26.0395 99.2864C30.2439 99.2864 34.0326 100.026 37.4054 101.504C40.8244 102.936 43.6889 105.062 45.9991 107.88L38.7914 114.533C37.1281 112.639 35.28 111.23 33.2471 110.306C31.2142 109.335 28.9965 108.85 26.5939 108.85C24.33 108.85 22.2509 109.22 20.3566 109.959C18.4623 110.698 16.8221 111.761 15.436 113.147C14.0499 114.533 12.9641 116.173 12.1787 118.068C11.4394 119.962 11.0698 122.064 11.0698 124.374C11.0698 126.685 11.4394 128.787 12.1787 130.681C12.9641 132.575 14.0499 134.216 15.436 135.602C16.8221 136.988 18.4623 138.05 20.3566 138.79C22.2509 139.529 24.33 139.899 26.5939 139.899C28.9965 139.899 31.2142 139.437 33.2471 138.512C35.28 137.542 37.1281 136.087 38.7914 134.146L45.9991 140.8C43.6889 143.618 40.8244 145.766 37.4054 147.245C34.0326 148.723 30.2208 149.463 25.9702 149.463ZM52.904 148.631V100.118H64.1313V139.483H88.457V148.631H52.904ZM94.7301 148.631V100.118H131.392V109.128H105.888V139.621H132.293V148.631H94.7301ZM105.056 128.394V119.662H128.412V128.394H105.056ZM134.85 148.631L156.473 100.118H167.562L189.254 148.631H177.472L159.73 105.801H164.166L146.355 148.631H134.85ZM145.662 138.235L148.642 129.711H173.591L176.64 138.235H145.662ZM194.287 148.631V100.118H215.009C221.755 100.118 226.999 101.689 230.741 104.831C234.483 107.926 236.355 112.223 236.355 117.721C236.355 121.325 235.5 124.444 233.79 127.077C232.081 129.665 229.655 131.651 226.513 133.037C223.372 134.424 219.629 135.117 215.286 135.117H200.524L205.514 130.196V148.631H194.287ZM225.127 148.631L212.999 131.028H224.989L237.256 148.631H225.127ZM205.514 131.443L200.524 126.176H214.662C218.128 126.176 220.715 125.437 222.424 123.959C224.134 122.434 224.989 120.355 224.989 117.721C224.989 115.041 224.134 112.962 222.424 111.484C220.715 110.005 218.128 109.266 214.662 109.266H200.524L205.514 103.93V131.443ZM247.952 148.631V100.119H280.386V103.307H251.487V145.443H281.425V148.631H247.952ZM251.071 125.553V122.435H277.337V125.553H251.071ZM294.312 148.631V100.119H297.292L331.874 144.265H330.28V100.119H333.814V148.631H330.903L296.252 104.485H297.846V148.631H294.312ZM350.755 148.631V100.119H383.188V103.307H354.289V145.443H384.228V148.631H350.755ZM353.874 125.553V122.435H380.139V125.553H353.874ZM397.114 148.631V100.119H414.509C420.608 100.119 425.39 101.552 428.855 104.416C432.32 107.281 434.052 111.3 434.052 116.475C434.052 119.847 433.267 122.758 431.696 125.207C430.125 127.609 427.884 129.48 424.974 130.82C422.063 132.114 418.575 132.761 414.509 132.761H399.055L400.649 131.097V148.631H397.114ZM430.795 148.631L418.182 131.028H422.202L434.815 148.631H430.795ZM400.649 131.305L399.055 129.642H414.509C419.73 129.642 423.68 128.487 426.36 126.177C429.086 123.867 430.449 120.633 430.449 116.475C430.449 112.27 429.086 109.036 426.36 106.772C423.68 104.462 419.73 103.307 414.509 103.307H399.055L400.649 101.575V131.305ZM467.714 148.977C464.064 148.977 460.692 148.377 457.596 147.176C454.501 145.928 451.798 144.196 449.488 141.978C447.224 139.76 445.468 137.173 444.221 134.216C442.973 131.213 442.35 127.933 442.35 124.375C442.35 120.818 442.973 117.56 444.221 114.604C445.468 111.6 447.247 108.99 449.557 106.772C451.867 104.555 454.547 102.845 457.596 101.644C460.692 100.397 464.087 99.7729 467.784 99.7729C471.295 99.7729 474.552 100.327 477.555 101.436C480.558 102.545 483.122 104.208 485.248 106.426L483.03 108.782C480.905 106.703 478.572 105.225 476.031 104.347C473.536 103.469 470.81 103.03 467.853 103.03C464.711 103.03 461.8 103.561 459.121 104.624C456.441 105.687 454.108 107.188 452.121 109.129C450.135 111.069 448.587 113.333 447.478 115.92C446.415 118.508 445.884 121.326 445.884 124.375C445.884 127.424 446.415 130.243 447.478 132.83C448.587 135.417 450.135 137.681 452.121 139.622C454.108 141.562 456.441 143.064 459.121 144.126C461.8 145.189 464.711 145.72 467.853 145.72C470.717 145.72 473.42 145.281 475.961 144.403C478.548 143.526 480.905 142.07 483.03 140.037L485.04 142.74C482.868 144.819 480.258 146.39 477.209 147.453C474.206 148.469 471.041 148.977 467.714 148.977ZM485.04 142.74L481.644 142.324V124.583H485.04V142.74ZM512.029 148.631V131.028L512.86 133.315L492.485 100.119H496.366L514.87 130.266H512.93L531.433 100.119H535.106L514.731 133.315L515.563 131.028V148.631H512.029Z" fill="white"/>
<path d="M177.02 173.901C175.882 173.901 174.787 173.718 173.736 173.353C172.699 172.974 171.896 172.492 171.327 171.908L171.962 170.66C172.502 171.186 173.225 171.631 174.13 171.996C175.05 172.346 176.013 172.521 177.02 172.521C177.984 172.521 178.765 172.405 179.363 172.171C179.977 171.923 180.422 171.594 180.699 171.186C180.991 170.777 181.137 170.324 181.137 169.828C181.137 169.229 180.962 168.748 180.612 168.383C180.276 168.018 179.831 167.733 179.276 167.529C178.721 167.31 178.108 167.12 177.436 166.959C176.765 166.799 176.093 166.631 175.422 166.456C174.75 166.266 174.13 166.018 173.561 165.711C173.006 165.405 172.553 165.003 172.203 164.507C171.867 163.996 171.699 163.332 171.699 162.514C171.699 161.755 171.896 161.062 172.291 160.434C172.699 159.792 173.32 159.281 174.152 158.901C174.984 158.507 176.05 158.31 177.349 158.31C178.21 158.31 179.064 158.434 179.911 158.682C180.758 158.916 181.488 159.244 182.101 159.667L181.553 160.959C180.896 160.521 180.196 160.2 179.451 159.996C178.721 159.792 178.013 159.689 177.327 159.689C176.407 159.689 175.648 159.813 175.05 160.062C174.451 160.31 174.006 160.646 173.714 161.069C173.437 161.478 173.298 161.945 173.298 162.47C173.298 163.069 173.466 163.551 173.801 163.916C174.152 164.281 174.604 164.565 175.159 164.77C175.728 164.974 176.349 165.156 177.02 165.317C177.692 165.478 178.356 165.653 179.013 165.843C179.685 166.032 180.298 166.281 180.852 166.587C181.422 166.879 181.874 167.273 182.21 167.77C182.561 168.266 182.736 168.916 182.736 169.718C182.736 170.463 182.531 171.156 182.123 171.799C181.714 172.426 181.086 172.937 180.239 173.332C179.407 173.711 178.334 173.901 177.02 173.901ZM192.967 173.901C191.814 173.901 190.741 173.711 189.748 173.332C188.77 172.937 187.916 172.39 187.186 171.689C186.471 170.974 185.909 170.149 185.5 169.215C185.106 168.266 184.909 167.229 184.909 166.105C184.909 164.981 185.106 163.952 185.5 163.018C185.909 162.069 186.471 161.244 187.186 160.543C187.916 159.828 188.77 159.281 189.748 158.901C190.726 158.507 191.799 158.31 192.967 158.31C194.12 158.31 195.186 158.507 196.164 158.901C197.142 159.281 197.989 159.821 198.704 160.521C199.434 161.222 199.996 162.047 200.39 162.996C200.799 163.945 201.003 164.981 201.003 166.105C201.003 167.229 200.799 168.266 200.39 169.215C199.996 170.164 199.434 170.989 198.704 171.689C197.989 172.39 197.142 172.937 196.164 173.332C195.186 173.711 194.12 173.901 192.967 173.901ZM192.967 172.456C193.887 172.456 194.733 172.302 195.507 171.996C196.295 171.675 196.974 171.229 197.544 170.66C198.128 170.076 198.58 169.405 198.901 168.645C199.222 167.872 199.383 167.025 199.383 166.105C199.383 165.186 199.222 164.346 198.901 163.587C198.58 162.813 198.128 162.142 197.544 161.573C196.974 160.989 196.295 160.543 195.507 160.237C194.733 159.916 193.887 159.755 192.967 159.755C192.047 159.755 191.193 159.916 190.405 160.237C189.617 160.543 188.931 160.989 188.347 161.573C187.777 162.142 187.325 162.813 186.989 163.587C186.668 164.346 186.507 165.186 186.507 166.105C186.507 167.01 186.668 167.85 186.989 168.624C187.325 169.397 187.777 170.076 188.347 170.66C188.931 171.229 189.617 171.675 190.405 171.996C191.193 172.302 192.047 172.456 192.967 172.456ZM204.635 173.77V158.441H206.256V172.368H214.84V173.77H204.635ZM223.427 173.901C221.471 173.901 219.931 173.339 218.807 172.215C217.683 171.091 217.121 169.427 217.121 167.222V158.441H218.741V167.156C218.741 168.967 219.15 170.302 219.968 171.164C220.785 172.025 221.938 172.456 223.427 172.456C224.931 172.456 226.092 172.025 226.909 171.164C227.727 170.302 228.135 168.967 228.135 167.156V158.441H229.712V167.222C229.712 169.427 229.15 171.091 228.026 172.215C226.916 173.339 225.384 173.901 223.427 173.901ZM241.252 173.901C240.099 173.901 239.033 173.711 238.055 173.332C237.077 172.937 236.23 172.39 235.515 171.689C234.799 170.989 234.237 170.164 233.829 169.215C233.434 168.266 233.237 167.229 233.237 166.105C233.237 164.981 233.434 163.945 233.829 162.996C234.237 162.047 234.799 161.222 235.515 160.521C236.245 159.821 237.099 159.281 238.077 158.901C239.055 158.507 240.12 158.31 241.274 158.31C242.383 158.31 243.427 158.5 244.405 158.879C245.383 159.244 246.208 159.799 246.88 160.543L245.85 161.573C245.223 160.93 244.529 160.47 243.77 160.193C243.011 159.901 242.193 159.755 241.318 159.755C240.398 159.755 239.544 159.916 238.756 160.237C237.967 160.543 237.281 160.989 236.697 161.573C236.113 162.142 235.653 162.813 235.318 163.587C234.996 164.346 234.836 165.186 234.836 166.105C234.836 167.025 234.996 167.872 235.318 168.645C235.653 169.405 236.113 170.076 236.697 170.66C237.281 171.229 237.967 171.675 238.756 171.996C239.544 172.302 240.398 172.456 241.318 172.456C242.193 172.456 243.011 172.31 243.77 172.018C244.529 171.726 245.223 171.259 245.85 170.616L246.88 171.645C246.208 172.39 245.383 172.952 244.405 173.332C243.427 173.711 242.376 173.901 241.252 173.901ZM240.639 178.587C240.274 178.587 239.938 178.543 239.631 178.456C239.339 178.368 239.062 178.244 238.799 178.083L239.172 177.251C239.391 177.383 239.617 177.485 239.85 177.558C240.099 177.631 240.354 177.667 240.617 177.667C241.055 177.667 241.391 177.572 241.624 177.383C241.858 177.207 241.974 176.959 241.974 176.638C241.974 176.346 241.858 176.105 241.624 175.915C241.405 175.726 241.069 175.631 240.617 175.631H240.113L240.639 173.638H241.58L241.252 174.908C241.85 174.952 242.31 175.134 242.631 175.456C242.953 175.791 243.113 176.2 243.113 176.682C243.113 177.266 242.88 177.726 242.412 178.061C241.96 178.412 241.369 178.587 240.639 178.587ZM247.283 173.77L254.29 158.441H255.888L262.896 173.77H261.188L254.75 159.383H255.407L248.969 173.77H247.283ZM250.042 169.675L250.523 168.361H259.436L259.917 169.675H250.042ZM256.742 157.127C256.363 157.127 256.027 157.047 255.735 156.886C255.458 156.726 255.202 156.551 254.969 156.361C254.75 156.157 254.523 155.974 254.29 155.814C254.056 155.653 253.801 155.573 253.523 155.573C253.188 155.573 252.918 155.711 252.713 155.989C252.523 156.266 252.414 156.616 252.385 157.04H251.377C251.392 156.324 251.582 155.726 251.947 155.244C252.312 154.748 252.815 154.5 253.458 154.5C253.837 154.5 254.166 154.58 254.443 154.741C254.735 154.901 254.998 155.084 255.231 155.288C255.465 155.478 255.691 155.653 255.91 155.814C256.144 155.974 256.399 156.054 256.677 156.054C257.012 156.054 257.282 155.916 257.487 155.638C257.691 155.346 257.801 155.011 257.815 154.631H258.801C258.786 155.346 258.596 155.945 258.231 156.427C257.881 156.894 257.385 157.127 256.742 157.127ZM271.918 173.901C270.765 173.901 269.692 173.711 268.699 173.332C267.721 172.937 266.867 172.39 266.137 171.689C265.422 170.974 264.86 170.149 264.451 169.215C264.057 168.266 263.86 167.229 263.86 166.105C263.86 164.981 264.057 163.952 264.451 163.018C264.86 162.069 265.422 161.244 266.137 160.543C266.867 159.828 267.721 159.281 268.699 158.901C269.677 158.507 270.75 158.31 271.918 158.31C273.071 158.31 274.137 158.507 275.115 158.901C276.093 159.281 276.94 159.821 277.655 160.521C278.385 161.222 278.947 162.047 279.341 162.996C279.75 163.945 279.954 164.981 279.954 166.105C279.954 167.229 279.75 168.266 279.341 169.215C278.947 170.164 278.385 170.989 277.655 171.689C276.94 172.39 276.093 172.937 275.115 173.332C274.137 173.711 273.071 173.901 271.918 173.901ZM271.918 172.456C272.838 172.456 273.684 172.302 274.458 171.996C275.246 171.675 275.925 171.229 276.495 170.66C277.079 170.076 277.531 169.405 277.852 168.645C278.173 167.872 278.334 167.025 278.334 166.105C278.334 165.186 278.173 164.346 277.852 163.587C277.531 162.813 277.079 162.142 276.495 161.573C275.925 160.989 275.246 160.543 274.458 160.237C273.684 159.916 272.838 159.755 271.918 159.755C270.998 159.755 270.144 159.916 269.356 160.237C268.568 160.543 267.882 160.989 267.298 161.573C266.728 162.142 266.276 162.813 265.94 163.587C265.619 164.346 265.458 165.186 265.458 166.105C265.458 167.01 265.619 167.85 265.94 168.624C266.276 169.397 266.728 170.076 267.298 170.66C267.882 171.229 268.568 171.675 269.356 171.996C270.144 172.302 270.998 172.456 271.918 172.456ZM293.544 173.901C292.405 173.901 291.31 173.718 290.259 173.353C289.223 172.974 288.42 172.492 287.85 171.908L288.485 170.66C289.026 171.186 289.748 171.631 290.653 171.996C291.573 172.346 292.537 172.521 293.544 172.521C294.507 172.521 295.288 172.405 295.887 172.171C296.5 171.923 296.945 171.594 297.223 171.186C297.515 170.777 297.661 170.324 297.661 169.828C297.661 169.229 297.485 168.748 297.135 168.383C296.799 168.018 296.354 167.733 295.799 167.529C295.245 167.31 294.631 167.12 293.96 166.959C293.288 166.799 292.617 166.631 291.945 166.456C291.274 166.266 290.653 166.018 290.084 165.711C289.529 165.405 289.077 165.003 288.726 164.507C288.391 163.996 288.223 163.332 288.223 162.514C288.223 161.755 288.42 161.062 288.814 160.434C289.223 159.792 289.843 159.281 290.675 158.901C291.507 158.507 292.573 158.31 293.872 158.31C294.734 158.31 295.588 158.434 296.434 158.682C297.281 158.916 298.011 159.244 298.624 159.667L298.077 160.959C297.42 160.521 296.719 160.2 295.974 159.996C295.245 159.792 294.537 159.689 293.85 159.689C292.931 159.689 292.172 159.813 291.573 160.062C290.974 160.31 290.529 160.646 290.237 161.069C289.96 161.478 289.821 161.945 289.821 162.47C289.821 163.069 289.989 163.551 290.325 163.916C290.675 164.281 291.128 164.565 291.683 164.77C292.252 164.974 292.872 165.156 293.544 165.317C294.215 165.478 294.88 165.653 295.536 165.843C296.208 166.032 296.821 166.281 297.376 166.587C297.945 166.879 298.398 167.273 298.734 167.77C299.084 168.266 299.259 168.916 299.259 169.718C299.259 170.463 299.055 171.156 298.646 171.799C298.237 172.426 297.609 172.937 296.763 173.332C295.931 173.711 294.858 173.901 293.544 173.901ZM309.49 173.901C308.337 173.901 307.264 173.711 306.271 173.332C305.293 172.937 304.439 172.39 303.709 171.689C302.994 170.974 302.432 170.149 302.023 169.215C301.629 168.266 301.432 167.229 301.432 166.105C301.432 164.981 301.629 163.952 302.023 163.018C302.432 162.069 302.994 161.244 303.709 160.543C304.439 159.828 305.293 159.281 306.271 158.901C307.25 158.507 308.323 158.31 309.49 158.31C310.644 158.31 311.709 158.507 312.687 158.901C313.666 159.281 314.512 159.821 315.228 160.521C315.957 161.222 316.52 162.047 316.914 162.996C317.322 163.945 317.527 164.981 317.527 166.105C317.527 167.229 317.322 168.266 316.914 169.215C316.52 170.164 315.957 170.989 315.228 171.689C314.512 172.39 313.666 172.937 312.687 173.332C311.709 173.711 310.644 173.901 309.49 173.901ZM309.49 172.456C310.41 172.456 311.257 172.302 312.031 171.996C312.819 171.675 313.498 171.229 314.067 170.66C314.651 170.076 315.103 169.405 315.425 168.645C315.746 167.872 315.906 167.025 315.906 166.105C315.906 165.186 315.746 164.346 315.425 163.587C315.103 162.813 314.651 162.142 314.067 161.573C313.498 160.989 312.819 160.543 312.031 160.237C311.257 159.916 310.41 159.755 309.49 159.755C308.571 159.755 307.717 159.916 306.928 160.237C306.14 160.543 305.454 160.989 304.87 161.573C304.301 162.142 303.848 162.813 303.512 163.587C303.191 164.346 303.031 165.186 303.031 166.105C303.031 167.01 303.191 167.85 303.512 168.624C303.848 169.397 304.301 170.076 304.87 170.66C305.454 171.229 306.14 171.675 306.928 171.996C307.717 172.302 308.571 172.456 309.49 172.456ZM321.159 173.77V158.441H322.779V172.368H331.363V173.77H321.159ZM331.601 173.77L338.608 158.441H340.207L347.214 173.77H345.506L339.068 159.383H339.725L333.287 173.77H331.601ZM334.36 169.675L334.842 168.361H343.754L344.236 169.675H334.36ZM349.75 173.77V158.441H355.487C357.429 158.441 358.954 158.908 360.064 159.843C361.188 160.762 361.75 162.047 361.75 163.697C361.75 164.777 361.494 165.711 360.983 166.5C360.487 167.273 359.772 167.872 358.837 168.295C357.903 168.704 356.786 168.908 355.487 168.908H350.648L351.37 168.164V173.77H349.75ZM360.217 173.77L356.275 168.208H358.027L361.991 173.77H360.217ZM351.37 168.295L350.648 167.529H355.443C356.976 167.529 358.137 167.193 358.925 166.521C359.728 165.85 360.129 164.908 360.129 163.697C360.129 162.47 359.728 161.521 358.925 160.85C358.137 160.178 356.976 159.843 355.443 159.843H350.648L351.37 159.076V168.295Z" fill="white"/>
<path d="M183.676 96.5213C183.676 85.3964 185.867 74.3804 190.125 64.1024C194.382 53.8243 200.622 44.4855 208.489 36.619C216.355 28.7525 225.694 22.5125 235.973 18.2551C246.251 13.9978 257.267 11.8066 268.392 11.8066C279.517 11.8066 290.533 13.9978 300.811 18.2551C311.089 22.5125 320.428 28.7525 328.295 36.619C336.162 44.4855 342.402 53.8243 346.659 64.1024C350.917 74.3804 353.108 85.3964 353.108 96.5213" stroke="white" stroke-width="3.64043" stroke-linecap="round"/>
</g>
<defs>
<clipPath id="clip0_469_181">
<rect width="536.067" height="182" fill="white"/>
</clipPath>
</defs>
</svg>
