<svg width="927" height="182" viewBox="0 0 927 182" fill="none" xmlns="http://www.w3.org/2000/svg">
<path d="M832.727 38.7611V18.9238H926.19V38.7611H891.349V132.724H867.567V38.7611H832.727Z" fill="white"/>
<path d="M837.269 132.725H811.487L803.061 106.774H761.973L753.531 132.725H727.748L767.034 18.9238H798.04L837.269 132.725ZM768.083 87.9932H796.963L782.981 44.9297H782.092L768.083 87.9932Z" fill="white"/>
<path d="M617.17 132.724V18.9238H641.23V65.8776H690.073V18.9238H714.078V132.724H690.073V85.7148H641.23V132.724H617.17Z" fill="white"/>
<path d="M599.917 58.7653H575.579C575.134 55.6165 574.227 52.8196 572.856 50.3747C571.485 47.8927 569.726 45.7812 567.577 44.0401C565.429 42.299 562.947 40.9654 560.131 40.0393C557.353 39.1132 554.334 38.6502 551.074 38.6502C545.184 38.6502 540.053 40.1134 535.682 43.0399C531.311 45.9294 527.921 50.1524 525.513 55.7091C523.105 61.2287 521.902 67.9337 521.902 75.8242C521.902 83.9369 523.105 90.7531 525.513 96.2727C527.958 101.792 531.366 105.96 535.738 108.775C540.109 111.591 545.165 112.998 550.907 112.998C554.13 112.998 557.112 112.572 559.853 111.72C562.632 110.868 565.095 109.627 567.244 107.997C569.392 106.33 571.171 104.311 572.578 101.94C574.023 99.5696 575.023 96.8654 575.579 93.8278L599.917 93.9389C599.287 99.1621 597.713 104.2 595.194 109.053C592.712 113.869 589.359 118.184 585.136 122C580.95 125.779 575.949 128.779 570.133 131.002C564.354 133.187 557.816 134.28 550.518 134.28C540.368 134.28 531.292 131.983 523.291 127.39C515.326 122.796 509.029 116.147 504.398 107.442C499.805 98.7361 497.508 88.197 497.508 75.8242C497.508 63.4143 499.842 52.8567 504.509 44.1513C509.177 35.4458 515.511 28.8149 523.513 24.2584C531.515 19.6649 540.516 17.3682 550.518 17.3682C557.112 17.3682 563.224 18.2943 568.855 20.1465C574.523 21.9987 579.543 24.7029 583.914 28.2592C588.285 31.7784 591.841 36.0941 594.583 41.2062C597.361 46.3183 599.139 52.1714 599.917 58.7653Z" fill="white"/>
<path d="M194.372 132.724V18.9238H218.432V112.887H267.22V132.724H194.372Z" fill="white"/>
<path d="M180.675 132.725H154.893L146.467 106.774H105.379L96.9365 132.725H71.1533L110.439 18.9238H141.445L180.675 132.725ZM111.488 87.9932H140.369L126.387 44.9287H125.498L111.488 87.9932Z" fill="white"/>
<path d="M0 132.724V18.9238H75.3482V38.7611H24.0603V65.8776H70.3473V85.7148H24.0603V132.724H0Z" fill="white"/>
<path d="M404.671 175.072L393.096 154.36C390.706 150.082 386.189 147.432 381.289 147.432H304.012C296.542 147.432 290.486 141.376 290.486 133.906V13.5259C290.486 6.05574 296.542 0 304.012 0H460.912C468.382 0 474.438 6.05573 474.438 13.5259V133.906C474.438 141.376 468.382 147.432 460.912 147.432H455.582C451.28 147.432 447.234 149.479 444.685 152.945L427.375 176.486C421.546 184.414 409.471 183.662 404.671 175.072Z" fill="white"/>
<path d="M445.323 18.9238L426.431 132.724H419.485L438.377 18.9238H445.323Z" fill="black"/>
<path d="M398.258 132.725H390.923L383.999 96.3281H334.521L315.464 132.725H308.129L368.085 18.9238H376.087L398.258 132.725ZM337.895 89.8828H382.773L370.975 27.8701H370.364L337.895 89.8828Z" fill="black"/>
</svg>
