<svg width="1024" height="351" viewBox="0 0 1024 351" fill="none" xmlns="http://www.w3.org/2000/svg">
<g filter="url(#filter0_d_469_205)">
<path fill-rule="evenodd" clip-rule="evenodd" d="M233.292 120.308C205.141 120.308 193.55 140.547 185.086 161.338C178.278 177.898 169.263 201.449 145.896 201.449C108.177 199.977 108.361 129.692 129.52 129.14C137.248 129.14 140.928 137.051 140.928 151.771C140.928 160.05 147.368 167.226 156.567 167.226C165.215 167.226 172.207 160.234 172.207 151.771C172.207 135.579 154.359 120.308 129.52 120.308C102.473 120.308 84.0742 142.203 84.0742 169.25C84.0742 196.297 107.073 218.192 135.592 218.192C176.439 218.192 188.214 177.162 193.734 163.73C201.646 144.595 212.501 129.14 233.292 129.14C240.468 129.14 244.884 133.556 244.884 138.891C244.884 147.907 237.156 154.347 224.093 160.235C210.845 166.306 192.262 175.69 192.262 193.169C192.262 208.073 202.382 218.192 217.285 218.192C229.428 218.192 236.788 213.224 241.02 207.337C241.572 206.601 241.756 205.681 241.756 204.761C241.756 202.553 239.364 201.449 237.524 202.737C229.428 208.441 223.725 199.241 223.909 188.569C223.909 180.658 227.037 171.826 236.236 165.386C241.204 161.706 245.068 158.763 247.644 155.819V197.401C247.644 208.809 256.475 215.248 267.331 215.248C278.187 215.248 287.57 209.729 287.57 204.577C287.57 201.817 285.73 200.345 283.154 200.897C280.026 201.449 279.29 199.241 279.29 195.929V161.338C279.29 137.051 261.075 120.308 233.292 120.308ZM332.464 191.513V151.955C332.464 142.387 345.344 133.372 350.312 133.556C355.647 133.74 351.784 138.891 351.784 147.539C351.784 155.635 358.407 162.258 366.687 162.258C374.783 162.258 382.326 156.187 382.326 144.043C382.326 128.772 370.735 120.308 357.671 120.308C348.472 120.308 339.272 125.276 332.464 133.74V128.956C332.464 125.828 329.888 123.252 326.761 123.252C317.193 123.252 313.145 133.924 300.634 133.924C297.874 133.924 295.85 135.763 295.85 138.339C295.85 143.307 300.818 141.467 300.818 157.659V191.513C300.818 207.705 295.85 205.865 295.85 210.833C295.85 213.224 297.874 215.248 300.634 215.248H332.464C335.408 215.248 337.432 213.224 337.432 210.833C337.432 205.865 332.464 207.705 332.464 191.513ZM450.772 145.147V191.145C450.772 203.657 444.332 209.361 437.524 209.361C425.013 209.361 417.837 192.249 417.837 169.066C417.837 145.147 425.013 129.324 436.236 129.324C444.332 129.324 450.772 134.844 450.772 145.147ZM385.086 169.066C385.086 198.689 408.637 218.192 432.372 218.192C440.836 218.192 447.46 214.144 450.772 210.097V211.384C450.772 213.408 452.428 215.248 454.635 215.248H482.418C485.362 215.248 487.386 213.224 487.386 210.833C487.386 205.865 482.418 207.705 482.418 191.513V84.7975C482.418 81.6696 479.842 79.0937 476.715 79.0937C466.963 79.0937 463.099 89.7653 450.588 89.7653C447.828 89.7653 445.804 91.6052 445.804 94.1811C445.804 99.1489 450.772 97.309 450.772 113.5V124.724C447.276 122.332 442.676 120.308 436.42 120.308C408.085 120.308 385.086 139.259 385.086 169.066ZM586.558 200.897C583.43 201.449 582.694 199.241 582.694 195.929V161.338C582.694 137.051 564.479 120.308 536.696 120.308C516.825 120.308 503.026 132.82 503.026 143.491C503.026 149.563 507.809 152.691 512.225 152.691C516.825 152.691 521.793 150.851 521.793 143.859C521.793 135.395 526.761 129.14 536.696 129.14C543.872 129.14 548.288 133.556 548.288 138.891C548.288 147.907 540.56 154.347 527.497 160.235C514.249 166.306 495.666 175.69 495.666 193.169C495.666 208.073 505.785 218.192 520.689 218.192C532.832 218.192 540.192 213.224 544.424 207.337C544.976 206.601 545.16 205.681 545.16 204.761C545.16 202.553 542.768 201.449 540.928 202.737C532.832 208.441 527.129 199.241 527.313 188.569C527.313 180.658 530.44 171.826 539.64 165.386C544.608 161.706 548.472 158.763 551.048 155.819V197.401C551.048 208.809 559.879 215.248 570.735 215.248C581.59 215.248 590.974 209.729 590.974 204.577C590.974 201.817 589.134 200.345 586.558 200.897ZM530.992 101.357L544.056 80.9336C545.344 78.7257 547.368 78.5417 549.208 80.0137L556.567 85.7174C558.591 87.3734 558.591 89.2133 556.935 90.8692L539.272 108.349C537.616 110.004 535.592 110.004 533.936 108.533L531.728 106.509C530.072 105.037 529.888 103.197 530.992 101.357ZM635.868 237.327V213.224C638.812 215.8 645.804 218.192 652.059 218.192C678.922 218.192 701.553 199.241 701.553 169.434C701.553 139.811 678.002 120.308 654.083 120.308C646.724 120.308 639.364 124.172 635.868 129.324V128.772C635.868 125.644 633.292 123.068 630.164 123.068C620.597 123.068 616.549 133.74 604.221 133.74C601.277 133.74 599.253 135.579 599.253 138.155C599.253 143.123 604.221 141.283 604.221 157.659V237.327C604.221 253.519 599.253 251.679 599.253 256.647C599.253 259.039 601.277 261.063 604.221 261.063H636.052C638.812 261.063 640.836 259.039 640.836 256.647C640.836 251.679 635.868 253.519 635.868 237.327ZM635.868 193.721V144.411C635.868 135.579 643.596 129.14 649.667 129.14C662.179 129.14 668.803 146.251 668.803 169.434C668.803 192.249 663.283 209.361 649.667 209.361C643.044 209.361 635.868 204.209 635.868 193.721ZM730.624 117.732C739.272 117.732 746.448 110.74 746.448 101.909C746.448 93.2611 739.272 86.0854 730.624 86.0854C721.793 86.0854 714.801 93.2611 714.801 101.909C714.801 110.74 721.793 117.732 730.624 117.732ZM709.833 210.833C709.833 213.224 711.857 215.248 714.617 215.248H746.448C749.391 215.248 751.415 213.224 751.415 210.833C751.415 205.865 746.448 207.705 746.448 191.513V128.956C746.448 125.828 743.872 123.252 740.744 123.252C731.176 123.252 727.128 133.924 714.617 133.924C711.857 133.924 709.833 135.763 709.833 138.339C709.833 143.307 714.801 141.467 714.801 157.659V191.513C714.801 207.705 709.833 205.865 709.833 210.833ZM800.725 130.612C810.661 128.036 823.172 143.123 828.876 164.466C834.58 185.809 831.268 205.313 821.516 207.889C811.765 210.465 799.253 195.377 793.55 174.034C787.846 152.691 790.974 133.188 800.725 130.612ZM759.695 169.25C759.695 196.297 782.694 218.192 811.213 218.192C839.548 218.192 862.547 196.297 862.547 169.25C862.547 142.203 839.548 120.308 811.213 120.308C782.694 120.308 759.695 142.203 759.695 169.25Z" fill="white"/>
<path d="M904.362 90.3066C904.362 142.794 904.362 143.463 904.362 143.463" stroke="white" stroke-width="18.1095" stroke-linecap="round" stroke-linejoin="round"/>
<path d="M877.678 116.531C930.15 116.531 930.818 116.531 930.818 116.531" stroke="white" stroke-width="18.1095" stroke-linecap="round" stroke-linejoin="round"/>
</g>
<defs>
<filter id="filter0_d_469_205" x="-0.000160217" y="7.15256e-06" width="1023.95" height="350.149" filterUnits="userSpaceOnUse" color-interpolation-filters="sRGB">
<feFlood flood-opacity="0" result="BackgroundImageFix"/>
<feColorMatrix in="SourceAlpha" type="matrix" values="0 0 0 0 0 0 0 0 0 0 0 0 0 0 0 0 0 0 127 0" result="hardAlpha"/>
<feOffset dy="5.01189"/>
<feGaussianBlur stdDeviation="42.0372"/>
<feComposite in2="hardAlpha" operator="out"/>
<feColorMatrix type="matrix" values="0 0 0 0 0 0 0 0 0 0 0 0 0 0 0 0 0 0 0.25 0"/>
<feBlend mode="normal" in2="BackgroundImageFix" result="effect1_dropShadow_469_205"/>
<feBlend mode="normal" in="SourceGraphic" in2="effect1_dropShadow_469_205" result="shape"/>
</filter>
</defs>
</svg>
