<svg width="252" height="182" viewBox="0 0 252 182" fill="none" xmlns="http://www.w3.org/2000/svg">
<path d="M83.3088 181.519C81.6363 180.728 81.1122 179.99 81.1122 178.428C81.1122 177.333 81.25 176.953 81.8727 176.329C82.6111 175.59 82.744 175.563 86.4032 175.41C89.3548 175.287 90.4443 175.132 91.4226 174.695C92.8627 174.052 94.5596 172.64 95.3237 171.449C95.8523 170.625 95.8523 170.625 95.7109 172.547C95.4108 176.632 93.6617 179.889 91.0319 181.262C89.3965 182.115 84.8853 182.265 83.3088 181.519ZM87.7675 161.75C87.8035 155.456 87.9026 149.791 87.9874 149.16C88.0723 148.528 88.4031 147.679 88.723 147.273C90.3759 145.172 93.9245 145.394 95.2089 147.68C95.7822 148.7 95.8017 149.027 95.8031 157.621C95.8048 167.987 95.7413 168.341 93.4591 170.652C92.1115 172.017 90.7875 172.661 88.5256 173.051C87.7019 173.193 87.7019 173.193 87.7675 161.75ZM62.0295 170.208C58.836 169.65 56.4414 168.439 54.5636 166.432C52.3739 164.091 51.3212 161.262 51.3212 157.72C51.3212 151.769 54.6106 147.699 59.4211 147.699C61.8691 147.699 63.9724 148.736 65.4095 150.652C66.181 151.68 66.181 151.68 64.4004 151.837C61.1528 152.125 59.5584 154.048 59.5584 157.676C59.5584 160.102 60.0051 161.314 61.3266 162.474C62.68 163.662 64.2436 164.043 66.0811 163.632C67.9229 163.22 68.9355 162.36 69.7153 160.548C70.2548 159.294 70.3169 158.787 70.1939 156.629C70.019 153.562 69.2381 151.436 67.6288 149.646C65.9202 147.745 62.8277 146.265 59.9702 145.979C59.4076 145.922 59.7986 145.779 61.2039 145.526C65.7049 144.715 70.7265 145.593 73.6664 147.705C79.3242 151.768 80.0403 161.304 75.0853 166.601C72.3553 169.52 66.8306 171.046 62.0295 170.208ZM109.05 170.091C106.738 169.563 104.781 168.45 103.332 166.838C100.12 163.265 101.419 158.256 106.098 156.177C107.281 155.651 108.089 155.549 111.933 155.441C116.106 155.323 116.395 155.281 116.395 154.788C116.395 153.752 115.543 152.602 114.386 152.076C111.407 150.724 106.25 152.142 103.254 155.138C102.102 156.29 100.496 159.156 100.435 160.167C100.416 160.483 100.299 160.185 100.175 159.505C99.7682 157.271 100.454 153.398 101.632 151.282C103.226 148.421 105.375 146.69 108.529 145.73C111.017 144.972 114.907 145.124 117.331 146.074C119.477 146.915 121.9 149.16 122.885 151.219C124.202 153.97 124.117 158.343 122.72 159.811C121.784 160.794 121.161 160.878 114.781 160.878C110.689 160.878 108.402 160.979 108.287 161.165C107.981 161.66 108.977 162.825 110.169 163.366C111.589 164.011 114.499 164.062 117.696 163.499C120.358 163.031 121.412 163.265 122.032 164.464C123.15 166.626 121.777 168.614 118.448 169.652C115.957 170.428 111.45 170.639 109.05 170.091ZM136.674 170.208C134.814 169.894 133.54 169.2 132.359 167.859C130.622 165.886 129.911 162.445 130.757 160.111C131.627 157.708 134.767 155.268 137.262 155.056C138.223 154.975 138.223 154.975 138.36 158.912C138.52 163.475 138.643 163.7 141.173 164.041C143.07 164.298 143.544 164.577 144.02 165.715C144.528 166.931 144.133 168.58 143.148 169.355C141.906 170.332 139.378 170.665 136.674 170.208ZM157.341 170.179C152.816 169.427 149.238 166.643 147.682 162.663C146.823 160.465 146.734 155.49 147.514 153.253C148.625 150.065 151.222 147.977 154.362 147.747C156.69 147.578 158.203 148.105 159.939 149.691C161.787 151.38 161.842 151.817 160.206 151.817C158.624 151.817 157.649 152.202 156.556 153.256C155.42 154.351 155.005 155.611 155.019 157.921C155.041 161.625 157.016 163.727 160.474 163.727C163.595 163.727 165.446 161.86 165.734 158.425C166.143 153.555 164.054 149.328 160.285 147.402C158.925 146.707 156.736 146.074 155.521 146.024C154.871 145.998 155.017 145.908 156.207 145.598C158.514 145 163.82 145.249 165.955 146.058C171.616 148.201 174.568 153.334 173.783 159.669C173.272 163.79 170.847 167.302 167.38 168.941C164.58 170.264 160.721 170.74 157.341 170.179ZM214.279 169.949C213.132 169.469 211.915 167.762 210.311 164.382C209.398 162.459 208.651 160.853 208.651 160.813C208.652 160.773 209.746 160.722 211.083 160.698C212.42 160.675 214.284 160.458 215.223 160.218C216.163 159.977 217.026 159.78 217.141 159.78C217.256 159.78 217.833 160.799 218.423 162.045C219.367 164.038 219.496 164.552 219.496 166.322C219.496 168.294 219.476 168.352 218.47 169.274C217.593 170.078 217.256 170.211 216.137 170.196C215.417 170.187 214.581 170.075 214.279 169.949ZM1.98047 169.401C0.104801 168.257 0.122593 168.389 0.0341172 154.995C-0.0455529 142.934 -0.0455528 142.934 0.720545 143.709C1.94291 144.946 3.68696 145.584 6.22298 145.722C8.48819 145.846 8.48819 145.846 8.48819 149.271C8.48819 152.696 8.48819 152.696 12.0016 152.6C16.0969 152.488 16.7305 152.221 17.6049 150.245C18.5952 148.006 18.0148 144.967 16.3632 143.742C15.6458 143.21 15.1302 143.158 9.31235 143.031C3.49235 142.904 2.97917 142.852 2.26109 142.319C-0.436633 140.318 -0.444729 136.404 2.24602 135.031C3.28158 134.503 3.72754 134.478 10.3767 134.578C16.9834 134.677 17.5121 134.723 19.0592 135.331C24.242 137.367 26.6032 141.125 26.6583 147.424C26.706 152.879 25.1648 156.517 21.8346 158.811C19.5215 160.404 17.5006 160.906 12.7045 161.079C8.54632 161.229 8.54632 161.229 8.43597 164.143C8.31107 167.441 7.90495 168.535 6.48424 169.401C5.92183 169.744 5.11069 169.937 4.23234 169.937C3.35399 169.937 2.54287 169.744 1.98047 169.401ZM196.347 169.383C195.823 169.063 195.217 168.339 194.912 167.668C194.419 166.581 194.385 165.749 194.379 154.731C194.373 142.956 194.373 142.956 195.128 143.72C196.313 144.92 198.047 145.552 200.587 145.711C202.866 145.853 202.866 145.853 202.944 148.492C203.022 151.131 203.022 151.131 206.454 151.119C209.195 151.109 210.07 151.009 210.8 150.62C212.994 149.452 213.089 145.151 210.953 143.705C210.24 143.222 209.523 143.154 203.796 143.031C196.732 142.879 196.638 142.855 195.265 140.837C194.022 139.01 194.698 136.034 196.586 135.021C197.416 134.576 198.234 134.52 203.841 134.529C210.904 134.54 212.596 134.777 215.376 136.145C219.124 137.991 221.002 141.483 221.071 146.738C221.121 150.584 220.111 153.521 217.995 155.688C215.892 157.84 211.93 158.929 206.136 158.946C202.935 158.956 202.935 158.956 202.837 163.006C202.727 167.534 202.448 168.445 200.881 169.401C199.693 170.125 197.55 170.117 196.347 169.383ZM226.593 169.391C224.73 168.163 224.722 168.108 224.628 154.837C224.544 142.894 224.544 142.894 225.452 143.772C226.73 145.008 228.167 145.528 230.878 145.735C233.225 145.914 233.225 145.914 233.302 149.277C233.379 152.641 233.379 152.641 236.459 152.641C240.001 152.64 241.045 152.285 242.097 150.719C242.667 149.871 242.732 149.5 242.651 147.561C242.582 145.891 242.428 145.19 242.011 144.636C240.94 143.215 240.757 143.177 234.186 143.031C227.074 142.873 226.576 142.732 225.45 140.553C224.38 138.482 225.106 135.935 227.055 134.927C228.183 134.343 239.88 134.349 242.363 134.934C246.583 135.929 249.235 138.289 250.69 142.344C251.428 144.399 251.581 150.024 250.96 152.229C249.739 156.563 247.025 159.346 242.876 160.518C242.098 160.738 239.657 160.987 237.451 161.071C233.44 161.225 233.44 161.225 233.277 163.913C233.007 168.344 232.063 169.712 229.166 169.869C227.794 169.944 227.289 169.85 226.593 169.391ZM32.6586 169.313C30.2364 168.087 29.7636 163.056 31.8346 160.543C33.1262 158.977 35.683 158.004 37.6849 158.319C38.7379 158.485 38.7379 158.485 38.6459 162.77C38.5449 167.47 38.3005 168.304 36.758 169.215C35.8577 169.747 33.6221 169.8 32.6586 169.313ZM30.4936 154.104C30.5848 149.013 30.6317 148.595 31.2141 147.658C31.8626 146.615 33.4269 145.777 34.7242 145.777C35.881 145.777 37.3046 146.532 37.8049 147.411C38.0658 147.869 38.3722 148.245 38.4859 148.246C38.5995 148.247 39.1303 147.763 39.6651 147.171C41.2716 145.393 44.7694 144.662 47.0714 145.624C49.0096 146.434 49.3575 149.011 47.7688 150.789C47.0044 151.645 46.9413 151.662 43.9092 151.817C40.8266 151.975 40.8266 151.975 39.9169 152.968C39.2986 153.643 38.9491 154.349 38.8252 155.175C38.6432 156.389 38.6432 156.389 37.1858 156.268C35.0856 156.094 33.1259 156.819 31.6166 158.328C30.3959 159.549 30.3959 159.549 30.4936 154.104ZM130.065 155.074C129.986 152.504 129.986 152.504 128.83 152.42C127.152 152.298 126.279 151.194 126.279 149.192C126.279 147.273 127.211 146.095 128.908 145.867C130.027 145.717 130.027 145.717 130.381 140.05C131.126 128.131 131.037 122.219 130.079 120.117C129.785 119.471 129.785 119.471 128.512 120.447C127.813 120.984 126.313 121.868 125.181 122.411C123.188 123.367 123.005 123.402 119.484 123.495C116.415 123.575 115.557 123.502 113.993 123.026C111.87 122.381 107.719 120.015 106.205 118.588C104.355 116.844 104.42 114.884 106.39 113.023C109.076 110.486 112.672 108.984 116.062 108.984C118.663 108.984 122.91 110.408 125.265 112.07C127.338 113.532 125.77 111.248 120.528 105.168C118.783 103.145 116.88 100.921 116.298 100.226C115.717 99.5309 115.129 98.9208 114.992 98.8703C114.855 98.8195 114.219 99.0309 113.578 99.3403C109.888 101.121 105.276 100.634 101.971 98.1133C100.876 97.2783 100.692 97.3659 100.191 98.9622C99.0974 102.44 96.0456 105.958 93.1601 107.068C90.9295 107.925 87.6676 108.095 85.5108 107.465C83.1613 106.78 80.8664 104.452 79.6523 101.521C79.1715 100.361 78.7783 99.1641 78.7783 98.8604C78.7783 98.0142 78.3506 97.9282 77.1606 98.5353C76.5623 98.8406 75.1076 99.3552 73.9278 99.6789C71.0434 100.47 68.4789 100.295 66.0058 99.1377C62.5465 97.5188 60.7146 94.6987 60.4524 90.5878C60.342 88.8589 60.4386 88.1765 61.0556 86.332C61.4598 85.1239 61.9677 83.8619 62.1846 83.5275C62.7785 82.611 62.6646 82.105 61.8236 81.9257C60.3818 81.6181 57.7692 80.6206 56.7962 80.0064C55.2234 79.0138 53.3256 76.6987 52.6856 74.9927C52.2073 73.7176 52.1189 72.9941 52.2089 71.0933C52.473 65.5154 55.7992 61.5377 61.7796 59.6478C63.1245 59.2228 64.2252 58.7741 64.2255 58.6508C64.2258 58.5273 63.921 58.0264 63.5479 57.5374C61.6811 55.0896 61.0202 51.3472 61.8689 48.0293C63.488 41.6996 70.7562 38.3122 76.8508 41.0475C77.7555 41.4536 78.6364 41.955 78.808 42.1617C79.4013 42.8767 79.8286 42.5497 80.1287 41.1513C80.9164 37.4773 83.8101 34.2645 87.3128 33.1742C91.2403 31.9518 94.9313 32.7799 98.9662 35.7884C99.1847 35.9512 99.7314 35.8395 100.513 35.4718C101.95 34.7964 103.208 34.4578 105.892 34.024C106.987 33.8469 107.883 33.653 107.883 33.5929C107.883 33.5328 107.261 32.401 106.5 31.0778C102.966 24.9298 102.98 19.7246 106.547 14.3926C108.246 11.8514 110.26 10.0202 112.551 8.9333C114.164 8.16755 114.642 8.07675 117.532 7.98614C122.009 7.84578 124.645 8.66839 127.86 11.2099C129.271 12.325 129.271 12.325 130.383 10.1015C133.018 4.83782 136.432 1.77813 141.227 0.384343C142.404 0.0419528 143.538 -0.052911 145.506 0.0261435C147.993 0.12604 148.348 0.215501 150.509 1.28616C154.322 3.17551 157.271 6.76877 158.564 11.0996C158.834 12.0057 159.142 12.8503 159.247 12.9765C159.353 13.1027 160.164 12.718 161.05 12.1216C163.757 10.2982 164.886 10.0013 169.112 10.0013C172.728 10.0013 172.863 10.0229 174.621 10.8834C176.724 11.9121 179.675 14.5106 180.865 16.3805C182.255 18.5646 182.658 20.4798 182.496 24.1279C182.376 26.8418 182.219 27.6773 181.408 29.9186C180.887 31.3593 180 33.2571 179.438 34.136C178.876 35.0146 178.461 35.7788 178.517 35.8342C178.572 35.8894 179.537 36.0105 180.66 36.103C184.367 36.4086 186.524 37.4037 188.777 39.8485C191.378 42.6697 192.28 45.2309 192.126 49.3563C192.029 51.9768 191.923 52.4796 191.125 54.1306C190.561 55.2986 189.599 56.6198 188.505 57.7302C185.295 60.9885 183.193 61.7507 177.36 61.7708C173.643 61.7837 173.643 61.7837 174.594 62.5258C177.614 64.8811 178.448 65.6689 179.748 67.3932C181.527 69.7509 182.292 71.8975 182.292 74.529C182.292 78.2135 180.929 81.2532 178.09 83.9023C174.521 87.2337 169.729 88.5299 165.057 87.4283C162.748 86.8839 161.039 85.9544 159.252 84.2713C158.294 83.3683 157.698 82.9833 157.573 83.1854C157.467 83.3578 157.303 84.3216 157.208 85.3273C156.8 89.665 155.403 92.746 152.681 95.314C148.442 99.3134 142.5 100.661 137.81 98.6874C134.784 97.4137 132.103 95.0779 130.15 92.0134C129.579 91.1167 129.124 90.654 128.967 90.8108C128.337 91.4404 127.377 96.2341 127.377 98.7489C127.377 101.146 127.441 101.437 128.375 103.294C128.923 104.385 130.251 106.452 131.326 107.887C132.401 109.323 133.48 110.803 133.723 111.177C134.165 111.857 134.165 111.857 136.331 109.895C137.523 108.816 138.992 107.416 139.596 106.784C141.055 105.258 143.41 103.669 145.094 103.074C147.299 102.295 150.699 102.235 153.595 102.925C156.785 103.685 157.58 104.367 157.58 106.341C157.58 108.332 156.754 109.769 154.265 112.111C151.589 114.628 148.952 116.398 146.597 117.257C145.022 117.832 144.339 117.908 140.763 117.908C137.344 117.908 136.714 117.972 136.718 118.32C136.721 118.546 136.912 120.399 137.141 122.438C137.767 127.998 138.06 132.788 138.076 137.677C138.083 140.093 138.168 142.904 138.265 143.923C138.44 145.777 138.44 145.777 139.869 145.777C142.803 145.777 143.852 146.719 143.852 149.354C143.852 150.524 143.724 150.889 143.094 151.519C142.392 152.221 142.127 152.288 139.456 152.443C137.872 152.534 136.049 152.797 135.406 153.026C133.639 153.655 131.931 154.949 130.989 156.37C130.145 157.645 130.145 157.645 130.065 155.074ZM122.304 117.663C123.041 117.123 122.598 116.684 120.17 115.546C118.422 114.727 117.912 114.613 115.983 114.617C113.831 114.62 112.001 115.184 112.001 115.843C112.001 115.984 112.897 116.535 113.992 117.067C115.883 117.987 116.128 118.036 118.882 118.041C120.932 118.044 121.934 117.933 122.304 117.663ZM145.843 111.429C147.233 110.731 149.892 108.743 149.892 108.402C149.892 108.269 149.361 108.16 148.711 108.16C147.099 108.16 145.109 109.206 143.438 110.932C142.067 112.348 142.067 112.348 143.372 112.181C144.09 112.09 145.202 111.751 145.843 111.429ZM91.0791 100.91C92.5547 100.143 93.6631 98.4491 94.3311 95.942C95.1005 93.0551 94.693 89.9294 92.8528 84.603C91.8759 81.7757 91.8759 81.7757 90.5308 81.8573C89.1854 81.9388 89.1854 81.9388 88.1006 84.4737C87.5037 85.8677 87.0155 87.2007 87.0155 87.4358C87.0155 87.6711 86.4369 88.9706 85.7296 90.3237C84.4438 92.7841 84.4438 92.7841 84.747 95.3239C85.0451 97.8233 85.7975 100.039 86.6308 100.872C87.1775 101.419 90.0541 101.444 91.0791 100.91ZM121.759 91.4115C122.682 87.8589 122.852 86.9146 122.54 87.0662C122.407 87.131 121.711 87.4613 120.994 87.8004C120.276 88.1395 119.689 88.5151 119.689 88.6351C119.689 88.7551 119.552 89.8715 119.385 91.1158C119.08 93.3783 119.08 93.3783 119.852 94.1839C120.791 95.1636 120.779 95.1806 121.759 91.4115ZM73.9203 93.2561C76.0628 92.2751 77.582 90.9212 78.9832 88.7441C80.44 86.48 82.8969 81.4691 82.8969 80.7618C82.8969 80.4279 82.3258 79.8367 81.353 79.1635C78.3926 77.1144 78.8958 77.1874 76.045 78.3922C73.6815 79.3911 73.3212 79.6541 70.9909 82.0827C68.1846 85.0077 66.7612 87.3594 66.5091 89.4882C66.0377 93.4675 69.5541 95.2553 73.9203 93.2561ZM110.62 93.2569C111.635 92.7435 112.551 91.2136 112.551 90.0318C112.551 88.7963 112.318 88.5876 110.291 88.0066C109.425 87.7584 108.252 87.2913 107.682 86.9687C106.341 86.2087 103.895 83.8757 103.033 82.5336C102.557 81.7939 101.91 81.2837 100.855 80.8175C99.1729 80.0734 98.1361 79.9507 98.355 80.5212C98.4327 80.7233 98.9409 82.2389 99.4848 83.8891C100.329 86.4517 100.684 87.1299 101.915 88.5329C103.565 90.4135 106.114 92.8322 106.922 93.2844C107.66 93.6971 109.782 93.6814 110.62 93.2569ZM145.407 91.9412C149.622 90.1345 150.189 88.5447 150.682 77.1338C150.914 71.7797 150.914 71.7797 149.099 67.8684C148.101 65.7172 147.207 63.9564 147.113 63.9558C147.019 63.955 146.863 65.3446 146.766 67.0434C146.344 74.4098 146.305 74.6737 145.532 75.5389C144.215 77.0133 141.441 76.7939 140.496 75.1405C140.275 74.7528 140.093 73.0043 140.005 70.4069C139.865 66.2883 139.865 66.2883 138.47 69.1713C135.936 74.4107 135.065 77.9974 135.065 83.2079C135.065 86.1362 135.137 86.6263 135.729 87.7828C136.528 89.341 138.684 91.5032 140.008 92.0741C141.409 92.6781 143.828 92.6186 145.407 91.9412ZM117.943 81.6659C120.076 80.7747 124.086 77.0781 128.666 71.7797C130.355 69.8267 132.045 66.8336 132.045 65.7971C132.045 65.6225 131.208 66.31 130.185 67.3253C128.325 69.1713 128.325 69.1713 126.732 69.1713C125.337 69.1713 125.039 69.0713 124.336 68.3687C123.644 67.6765 123.533 67.3588 123.533 66.0571C123.533 64.6241 123.605 64.4698 124.943 63.0061C125.718 62.1582 126.288 61.4006 126.21 61.3227C125.798 60.9108 118.485 63.4459 114.951 65.2257C111.071 67.1795 108.457 70.7888 108.218 74.5227C108.045 77.2118 108.291 78.3266 109.312 79.4899C111.212 81.6541 115.428 82.717 117.943 81.6659ZM172.02 80.6267C173.561 79.8417 175.017 78.3486 175.599 76.9568C176.042 75.8977 176.094 73.6353 175.7 72.5993C175.103 71.0285 172.245 68.5469 166.916 64.9714C163.971 62.9959 160.657 60.7118 159.551 59.8957C156.034 57.2999 156.7 58.3721 161.66 63.2867C163.829 65.4357 163.895 65.5409 163.895 66.7973C163.895 68.8772 162.572 70.2696 160.596 70.2696C159.509 70.2696 158.799 69.9019 157.512 68.6713C155.964 67.1919 156.169 68.1493 158.187 71.8206C160.149 75.39 162.853 79.2807 163.992 80.1736C165.983 81.7346 169.459 81.9306 172.02 80.6267ZM69.4874 73.8788C71.1996 73.1454 73.2358 72.2234 74.0126 71.8297C75.4244 71.1142 75.4244 71.1139 75.623 68.8742C75.8484 66.3259 75.8599 66.344 73.6988 65.8641C69.5508 64.9429 65.2167 65.3034 62.1355 66.8264C60.4526 67.6581 60.0663 67.9846 59.5811 68.9873C58.8675 70.4609 58.8266 72.6295 59.4958 73.4834C60.3145 74.5279 62.2291 75.1992 64.4078 75.2058C66.156 75.2113 66.7192 75.0641 69.4874 73.8788ZM92.5912 73.8448C94.2043 72.8217 94.9758 71.5955 94.9769 70.0518C94.9778 69.0247 94.8114 68.6949 93.6793 67.4849C91.8545 65.534 90.2507 64.7781 87.935 64.7781C85.5578 64.7781 84.0495 65.4712 83.222 66.9437C81.6317 69.7734 83.5183 73.2698 87.2425 74.3939C87.6462 74.5158 88.7247 74.6262 89.6387 74.6391C91.0352 74.6591 91.5074 74.532 92.5912 73.8448ZM103.052 67.8509C103.709 66.5524 105.184 64.5618 106.609 63.0481C107.008 62.625 107.334 62.2288 107.334 62.1673C107.334 62.106 106.438 61.7919 105.343 61.4693C104.248 61.1467 102.571 60.5127 101.615 60.0605C100.659 59.6082 99.8404 59.2801 99.7954 59.3312C99.5911 59.5624 98.5474 61.7595 98.5474 61.9583C98.5474 62.0805 99.1054 62.9196 99.7874 63.8226C100.507 64.7762 101.206 66.0977 101.454 66.9747C102.045 69.0702 102.081 69.1713 102.241 69.1713C102.319 69.1713 102.683 68.5771 103.052 67.8509ZM80.8771 59.6299C81.6586 59.1363 82.0724 58.6783 82.0726 58.3071C82.0735 57.3494 81.2259 54.7882 80.7157 54.2072C80.4507 53.9051 79.8275 53.0402 79.331 52.2852C78.2251 50.6034 75.3382 47.5798 74.3303 47.0477C73.288 46.4978 71.2559 46.5604 70.0497 47.1795C68.6582 47.8939 68.0701 48.9991 68.0701 50.8997C68.0701 52.7149 68.4976 53.6652 69.8471 54.8502C71.5648 56.3581 75.7704 59.0503 77.0914 59.4872C77.7926 59.7192 78.484 60.016 78.6273 60.147C79.0664 60.5476 79.6295 60.4182 80.8771 59.6299ZM94.0206 56.9188C94.8374 55.0721 94.863 54.4894 94.196 52.9257C92.8998 49.8862 92.7897 45.9264 93.9157 42.8407C94.2243 41.9948 94.5401 41.0945 94.6175 40.8402C94.8308 40.1387 92.341 38.9685 90.6346 38.9685C87.8334 38.9685 86.1918 41.1027 86.1918 44.7446C86.1918 48.0257 87.8916 56.4501 88.7151 57.2497C89.0918 57.6154 91.6486 58.3686 92.7164 58.4284C93.2191 58.4564 93.4676 58.1689 94.0206 56.9188ZM147.549 56.9927C150.63 55.5819 153.19 52.1451 153.184 49.4272C153.182 48.1482 152.326 45.9956 151.352 44.8179C149.984 43.1634 145.229 41.165 142.66 41.165C140.007 41.165 134.948 44.1894 134.062 46.3045C133.507 47.632 133.591 51.4862 134.205 52.8343C135.152 54.9142 138.185 57.01 141.155 57.6374C143.061 58.0399 145.882 57.7557 147.549 56.9927ZM119.892 55.3C125.003 54.5015 127.515 53.8211 127.515 53.2349C127.515 52.9018 126.701 52.8217 122.687 52.7596C117.859 52.6849 117.859 52.6849 117.058 51.8491C116.391 51.1531 116.257 50.7838 116.257 49.6364C116.257 48.4412 116.37 48.1578 117.113 47.4944C117.953 46.7435 118.192 46.6795 121.817 46.2333C122.61 46.1356 123.259 45.9409 123.259 45.8001C123.259 45.5343 120.481 44.2026 117.63 43.1019C116.724 42.7521 115.509 42.2208 114.929 41.9215C112.265 40.5459 106.819 39.9212 104.424 40.7167C102.462 41.3682 101.147 42.3597 100.273 43.8457C99.607 44.9786 99.509 45.4297 99.5134 47.3429C99.517 49.0584 99.6471 49.7803 100.107 50.6377C101.289 52.8428 103.322 54.2181 107.059 55.3428C109.969 56.2184 114.103 56.2047 119.892 55.3ZM182.614 54.6478C186.775 52.0092 187.287 47.2311 183.766 43.9011C182.256 42.4728 182.256 42.4728 178.91 42.6096C176.166 42.7216 174.924 42.9267 171.999 43.7507C168.445 44.7518 167.475 45.2089 168.288 45.4994C168.515 45.5804 169.102 46.0466 169.593 46.5359C170.363 47.3036 170.485 47.6139 170.485 48.8044C170.485 49.9664 170.357 50.3115 169.673 50.9955C168.825 51.8439 168.364 51.9614 164.507 52.3129C161.152 52.6185 161.463 52.8439 166.916 54.0575C171.184 55.0075 174.264 55.3881 177.913 55.4161C181.265 55.4422 181.395 55.4208 182.614 54.6478ZM163.484 39.0514C170.645 35.4476 173.002 33.5103 174.774 29.7703C176.523 26.0786 176.988 22.5779 176.014 20.4338C175.359 18.9922 172.779 16.6521 171.383 16.234C170.779 16.0528 169.544 15.9046 168.639 15.9046C166.565 15.9046 164.824 16.7407 161.76 19.2079C159.583 20.9609 159.548 21.0089 159.088 22.8789C158.832 23.921 158.141 25.9738 157.552 27.4409C156.964 28.9076 156.482 30.1954 156.482 30.3022C156.482 30.4093 156.808 30.2407 157.205 29.9277C157.721 29.5218 158.328 29.3585 159.32 29.3585C160.513 29.3585 160.841 29.4837 161.617 30.236C162.407 31.0021 162.523 31.2912 162.523 32.5089C162.523 33.3145 162.346 34.1566 162.104 34.5015C161.874 34.8299 160.361 36.0528 158.741 37.2189C157.121 38.385 155.686 39.433 155.553 39.5478C155.419 39.6629 155.696 40.2447 156.168 40.8413C157.028 41.9259 157.028 41.9259 158.196 41.525C158.839 41.3045 161.218 40.1914 163.484 39.0514ZM129.574 41.2188C129.574 41.0975 128.122 39.4004 126.348 37.4476C123.189 33.971 123.122 33.8705 123.122 32.6042C123.122 31.5021 123.261 31.1668 124.068 30.3349C124.905 29.4716 125.175 29.3582 126.402 29.3546C127.789 29.3508 127.789 29.3508 130.741 32.3958C132.364 34.0707 133.693 35.2447 133.693 35.005C133.693 34.3172 130.168 25.0422 129.097 22.9099C127.776 20.2807 124.031 16.4136 121.749 15.3208C119.64 14.3115 116.935 14.2212 115.121 15.0995C112.67 16.2858 110.629 19.6831 110.629 22.575C110.629 25.6969 113.247 30.1297 118.177 35.3562C119.563 36.8252 120.327 37.3924 121.546 37.857C122.412 38.1873 124.419 39.1225 126.005 39.9347C128.848 41.3913 129.574 41.6524 129.574 41.2188ZM147.643 31.7585C149.34 28.9071 151.109 25.1684 151.958 22.6385C152.625 20.6528 152.682 20.1592 152.58 17.2855C152.442 13.3864 151.687 11.288 149.678 9.21569C148.036 7.52176 146.625 6.85751 144.651 6.84977C142.682 6.84203 140.154 8.05385 138.752 9.67686C137.543 11.0777 135.769 14.524 135.035 16.8977C134.493 18.6541 134.493 18.6541 135.436 20.6428C135.955 21.7366 136.772 23.6818 137.251 24.9654C137.731 26.249 138.289 27.7316 138.493 28.2602C138.696 28.7887 138.956 29.4683 139.069 29.7703C139.206 30.1344 139.396 29.3475 139.632 27.4365C139.96 24.7799 140.053 24.4943 140.826 23.7985C141.517 23.1756 141.918 23.0434 143.116 23.0434C144.411 23.0434 144.667 23.1457 145.488 23.9928C146.408 24.9422 146.408 24.9422 146.22 29.3469C146.116 31.7695 146.128 33.7505 146.246 33.7491C146.364 33.7478 146.992 32.8518 147.643 31.7585ZM90.4328 142.768C89.388 142.345 88.1613 140.651 87.9685 139.367C87.7332 137.796 88.5089 135.96 89.7952 135.044C92.1996 133.33 95.4346 135.093 95.7246 138.274C96.0068 141.369 93.0917 143.845 90.4328 142.768Z" fill="white"/>
</svg>
