<svg width="592" height="198" viewBox="0 0 592 198" fill="none" xmlns="http://www.w3.org/2000/svg">
<path fill-rule="evenodd" clip-rule="evenodd" d="M28.8273 185.495V173.93L33.9843 179.01C36.8207 181.803 39.1413 184.687 39.1413 185.417C39.1413 186.365 41.074 186.745 45.8923 186.745C51.6849 186.745 53.0028 186.386 55.175 184.214C58.7236 180.665 58.5385 176.073 54.6917 172.226C52.021 169.556 50.9614 169.211 45.4091 169.211H39.1413V174.465V179.718L33.9843 175.4C28.8409 171.094 28.8273 171.066 28.8273 164.848V158.614L41.107 159.12C50.5877 159.51 54.2779 160.088 57.2966 161.655C68.3769 167.405 71.3721 180.65 63.5951 189.508C58.2767 195.565 53.8296 197.011 40.4306 197.037L28.8273 197.06V185.495ZM107.235 185.972L107.255 174.884L112.995 180.815L118.734 186.745H129.476H140.219V191.902V197.059H123.716H107.214L107.235 185.972ZM194.883 187.042V177.025L200.04 182.104C204.803 186.795 205.197 187.561 205.197 192.121V197.059H200.04H194.883V187.042ZM254.983 195.77C255.258 195.061 258.993 188.993 263.284 182.287L271.086 170.093L273.725 174.273C275.177 176.572 276.364 178.911 276.364 179.471C276.364 180.031 273.997 184.217 271.104 188.774L265.844 197.059H260.164C256.041 197.059 254.621 196.706 254.983 195.77ZM282.769 183.626C278.066 176.239 273.951 169.498 273.624 168.646C273.297 167.795 274.297 165.183 275.846 162.842L278.662 158.587L282.854 165.189C285.16 168.819 290.67 177.476 295.099 184.425L303.15 197.059L297.235 197.058L291.32 197.057L282.769 183.626ZM342.374 182.401V167.742L347.531 172.821L352.688 177.901V187.48V197.059H347.531H342.374V182.401ZM391.882 177.978V158.897H397.038H402.196V172.764V186.631L407.352 191.072C410.188 193.514 412.509 195.86 412.509 196.286C412.509 196.711 407.868 197.059 402.196 197.059H391.882V177.978ZM412.724 192.637C410.337 190.204 408.384 187.86 408.384 187.426C408.384 186.992 410.821 186.778 413.799 186.949L419.214 187.261L419.528 192.16C419.929 198.417 418.496 198.517 412.724 192.637ZM458.944 185.972L458.963 174.884L464.702 180.815L470.441 186.745H481.184H491.926V191.902V197.059H475.424H458.921L458.944 185.972ZM532.152 187.042V177.025L537.309 182.104C542.072 186.795 542.466 187.561 542.466 192.121V197.059H537.309H532.152V187.042ZM544.675 185.456L532.268 173.853L532.21 166.375L532.152 158.897L545.818 158.899C561.867 158.901 565.535 160.114 568.625 166.439C570.444 170.165 570.455 170.607 568.829 174.865C566.996 179.666 563.605 182.589 559.779 182.669C557.811 182.71 558.688 183.902 565.086 189.888L572.75 197.059H564.916H557.082L544.675 185.456ZM558.777 171.016C559.08 169.423 558.184 169.211 551.149 169.211C543.186 169.211 543.18 169.214 545.086 171.32C547.642 174.144 558.226 173.909 558.777 171.016ZM113.606 177.497L107.106 171.434L107.418 165.424L107.73 159.413L123.974 159.129L140.219 158.845V164.028V169.211H129.745C119.336 169.211 119.283 169.223 121.138 171.274C122.721 173.023 124.315 173.337 131.612 173.337H140.219V178.494V183.651L130.163 183.605L120.107 183.56L113.606 177.497ZM465.318 177.405L458.821 171.23L459.13 165.322L459.439 159.413L475.683 159.129L491.928 158.845V164.028V169.211H481.454C471.045 169.211 470.992 169.223 472.847 171.274C474.429 173.023 476.023 173.337 483.321 173.337H491.928V178.494V183.651L481.872 183.616L471.815 183.581L465.318 177.405ZM199.782 177.859C197.088 175.309 194.883 172.321 194.883 171.217C194.883 169.421 194.128 169.211 187.663 169.211H180.444V164.054V158.897H200.04H219.637V164.054V169.211H212.464H205.292L204.987 175.853L204.682 182.494L199.782 177.859ZM347.234 168.402C344.389 165.513 342.374 162.52 342.374 161.182C342.374 159.128 342.894 158.897 347.531 158.897H352.688V166.117C352.688 170.088 352.555 173.337 352.391 173.337C352.228 173.337 349.908 171.116 347.234 168.402ZM239.414 126.451C217.225 121.081 198.231 101.938 192.337 79.0048C190.31 71.1161 190.314 56.8794 192.344 49.0117C195.342 37.4008 202.725 23.7835 206.023 23.7835C206.968 23.7835 212.454 28.4813 218.216 34.2229L228.691 44.6623L225.969 50.4675C223.751 55.1985 223.261 57.7042 223.32 64.0083C223.439 76.6341 229.072 85.8073 240.42 91.8557C246.1 94.883 247.896 95.3246 254.679 95.3625C261.031 95.3976 263.47 94.9076 268.113 92.6613L273.786 89.9167L280.778 96.817L287.77 103.717L272.526 104.009C264.143 104.17 254.094 103.809 250.197 103.207C233.032 100.557 220.669 89.9273 215.976 73.7846C214.026 67.0773 214.451 56.2554 216.898 50.3099C218.233 47.0648 218.148 46.8566 213.123 41.0595C210.295 37.7977 207.645 35.1289 207.232 35.1289C206.158 35.1289 202.393 44.23 200.567 51.2407C194.331 75.1812 206.778 102.326 228.976 113.195C240.161 118.672 246.153 119.699 267.23 119.752L286.162 119.8L281.521 122.203C271.33 127.479 251.804 129.449 239.414 126.451ZM374.348 123.83V119.704H386.209H398.07V92.6039V65.5038L390.334 57.8198L382.599 50.1359V77.1845V104.233H378.473H374.348V67.3728V30.5126L390.334 46.4744L406.321 62.4362V95.1958V127.955H390.334H374.348V123.83ZM511.524 94.705V61.4547L527.511 77.4165L543.498 93.3783V110.667V127.955H527.511H511.524V94.705ZM535.247 108.075V96.4459L527.511 88.762L519.776 81.0781V100.391V119.704H527.511H535.247V108.075ZM290.995 93.6075L280.355 82.9192L282.692 78.9591C284.5 75.8944 285.126 72.9626 285.459 65.9937C285.839 58.0499 285.587 56.3278 283.324 51.3844C275.898 35.1629 257.547 28.1033 241.86 35.4324L235.72 38.3013L228.452 30.9494L221.184 23.5975L242.844 24.3234C268.176 25.1724 271.72 26.0875 280.71 34.1003C293.371 45.3847 297.917 62.1773 292.436 77.4165L290.766 82.0578L296.716 87.5612L302.665 93.0646L304.946 88.0564C315.685 64.48 309.641 37.1627 290.203 21.4183C277.182 10.8717 267.892 8.35552 241.812 8.31194C221.5 8.27686 221.012 7.95837 234.592 3.58534C246.718 -0.319113 258.964 -0.844515 270.165 2.05915C282.711 5.31167 289.995 9.53744 299.585 19.1276C308.062 27.6042 312.561 34.7301 316.201 45.443C319.097 53.9648 318.922 73.3759 315.862 83.0892C313.077 91.9292 306.208 103.609 303.561 104.007C302.277 104.2 298.084 100.73 290.995 93.6075ZM527.253 62.9615L511.524 47.7136V39.8742V32.0348H487.286H463.048V27.9091V23.7835H491.412H519.776V33.8655V43.9475L527.511 51.6314L535.247 59.3153V41.5494V23.7835H559.485H583.723V16.048V8.31248H523.385H463.048V4.18686V0.0612368H527.511H591.974V16.048V32.0348H567.755H543.537L543.259 55.1221L542.982 78.2094L527.253 62.9615ZM390.043 32.0214L374.348 16.5369V8.29906V0.0612368H390.334H406.321V4.18686V8.31248H394.46C382.808 8.31248 382.599 8.35379 382.599 10.6589C382.599 12.2084 385.226 15.6154 390.334 20.6893C396.716 27.0282 398.07 27.9716 398.07 26.0784C398.07 24.0887 398.618 23.7835 402.196 23.7835H406.321V35.6447C406.321 42.1683 406.19 47.5058 406.03 47.5058C405.87 47.5058 398.676 40.5378 390.043 32.0214Z" fill="white"/>
<path d="M54.3221 126.24C54.0344 125.765 43.2501 100.778 30.357 70.7124C17.4638 40.647 5.35904 12.4372 3.45744 8.02402L0 0L12.9348 0.288458L25.8696 0.576917L39.9287 33.324C47.6613 51.3348 54.2444 66.0626 54.558 66.0523C54.8716 66.0406 61.377 51.3692 69.0146 33.4462C76.6522 15.523 83.4078 0.664241 84.0272 0.426606C84.6465 0.188814 90.7587 0.125657 97.6099 0.285484L110.067 0.576679L83.3857 62.9102C68.7112 97.1937 56.2864 125.662 55.775 126.174C55.2636 126.685 54.6098 126.715 54.3221 126.24Z" fill="white"/>
<path d="M101.141 112.336L94.7606 97.7125L115.677 48.8869L136.594 0.0612368H149.346C159.125 0.0612368 161.984 0.361776 161.604 1.35048C160.454 4.34279 108.032 126.433 107.789 126.684C107.642 126.835 104.651 120.379 101.141 112.336Z" fill="white"/>
</svg>
