<svg width="1191" height="182" viewBox="0 0 1191 182" fill="none" xmlns="http://www.w3.org/2000/svg">
<g clip-path="url(#clip0_469_175)">
<path d="M430.531 37.919V105.043C430.531 117.382 439.676 137.494 456.611 149.972M430.531 37.919L456.611 70.4745M430.531 37.919H464.093L497.655 37.9189C509.995 37.9189 530.106 47.0634 542.585 63.999C548.596 72.1574 552.836 82.1238 553.582 93.7469C553.702 95.617 553.732 97.5299 553.664 99.4851C553.216 112.359 550.374 122.623 546.343 130.696C540.153 143.094 531.381 149.701 523.308 153.731M523.308 153.731C515.235 157.762 504.972 160.603 492.097 161.051C490.142 161.119 488.229 161.09 486.359 160.97M523.308 153.731L486.359 107.608M456.611 70.4745V149.972M456.611 70.4745L486.359 107.608M456.611 149.972C464.77 155.984 474.736 160.224 486.359 160.97M486.359 107.608V160.97M486.359 107.608L540.837 175.588" stroke="white" stroke-width="12.8263" stroke-linecap="round" stroke-linejoin="round"/>
<path d="M0.249766 162.8V14.0753H26.1703V136.879H88.1034V162.8H0.249766ZM149.489 165.562C139.715 165.562 130.792 163.048 122.718 158.019C114.716 152.991 108.306 146.228 103.49 137.729C98.7454 129.231 96.3729 119.847 96.3729 109.578C96.3729 101.858 97.7539 94.6344 100.516 87.9064C103.278 81.1076 107.067 75.1586 111.883 70.0595C116.769 64.8895 122.435 60.8527 128.88 57.949C135.325 55.0454 142.194 53.5935 149.489 53.5935C157.775 53.5935 165.353 55.3641 172.222 58.9051C179.163 62.3754 185.041 67.1558 189.857 73.2464C194.673 79.337 198.178 86.2775 200.374 94.0678C202.569 101.858 203.065 110.003 201.861 118.501H124.206C125.197 122.467 126.826 126.044 129.092 129.231C131.359 132.347 134.227 134.861 137.697 136.773C141.167 138.614 145.098 139.57 149.489 139.641C154.021 139.712 158.129 138.65 161.812 136.454C165.565 134.188 168.681 131.143 171.16 127.318L197.612 133.48C193.292 142.899 186.847 150.619 178.278 156.638C169.708 162.587 160.112 165.562 149.489 165.562ZM123.356 99.0607H175.622C174.843 94.8115 173.178 90.9871 170.629 87.5877C168.15 84.1175 165.069 81.3554 161.387 79.3016C157.704 77.2478 153.738 76.2209 149.489 76.2209C145.24 76.2209 141.309 77.2478 137.697 79.3016C134.085 81.2846 131.004 84.0112 128.455 87.4815C125.976 90.8809 124.276 94.7406 123.356 99.0607ZM299.659 56.568H325.58V162.8H299.659L298.49 149.627C295.587 154.372 291.727 158.232 286.911 161.206C282.166 164.11 276.536 165.562 270.02 165.562C262.159 165.562 254.794 164.075 247.924 161.1C241.055 158.126 234.999 154.018 229.759 148.777C224.589 143.536 220.516 137.481 217.542 130.612C214.638 123.742 213.186 116.377 213.186 108.515C213.186 100.937 214.567 93.82 217.329 87.1628C220.162 80.5056 224.093 74.6628 229.121 69.6345C234.149 64.6062 239.957 60.6757 246.543 57.8428C253.13 55.01 260.212 53.5935 267.79 53.5935C274.801 53.5935 281.068 55.1516 286.593 58.2677C292.187 61.3839 296.932 65.3499 300.828 70.1657L299.659 56.568ZM269.383 140.597C274.907 140.597 279.794 139.216 284.043 136.454C288.292 133.692 291.621 129.974 294.029 125.3C296.437 120.555 297.641 115.35 297.641 109.684C297.641 103.947 296.437 98.742 294.029 94.0678C291.621 89.3228 288.257 85.5693 283.937 82.8073C279.687 80.0452 274.836 78.6642 269.383 78.6642C263.93 78.6642 258.937 80.0807 254.404 82.9135C249.943 85.6755 246.366 89.3936 243.675 94.0678C241.055 98.742 239.744 103.947 239.744 109.684C239.744 115.42 241.09 120.626 243.781 125.3C246.472 129.974 250.049 133.692 254.511 136.454C259.043 139.216 264.001 140.597 269.383 140.597ZM376.812 34.2594V56.568H405.813V82.4886H376.812V162.8H350.891V82.4886H339.312V56.568H350.891V34.2594C350.891 28.1687 352.378 22.6093 355.353 17.581C358.398 12.4818 362.47 8.44503 367.569 5.47054C372.668 2.42523 378.299 0.902577 384.46 0.902577C388.922 0.902577 393.348 1.82325 397.739 3.66461C402.13 5.50595 406.025 8.33879 409.425 12.1631L390.728 30.435C390.091 29.2311 389.17 28.3458 387.966 27.7792C386.833 27.1418 385.664 26.8231 384.46 26.8231C382.406 26.8231 380.6 27.5667 379.042 29.054C377.555 30.4704 376.812 32.2055 376.812 34.2594ZM573.013 121.688V56.568H584.486V119.882C584.486 126.185 586.009 131.922 589.054 137.092C592.17 142.262 596.313 146.369 601.483 149.415C606.653 152.46 612.354 153.983 618.587 153.983C624.89 153.983 630.591 152.46 635.69 149.415C640.86 146.369 644.968 142.262 648.013 137.092C651.129 131.922 652.687 126.185 652.687 119.882V56.568H664.16V162.8H652.687V146.334C648.863 152.141 643.799 156.815 637.496 160.356C631.264 163.827 624.394 165.562 616.887 165.562C608.813 165.562 601.448 163.614 594.791 159.719C588.134 155.753 582.822 150.442 578.856 143.784C574.961 137.127 573.013 129.762 573.013 121.688ZM774.293 56.568H785.766V162.8H774.293L773.974 141.022C770.362 148.388 765.192 154.337 758.464 158.869C751.807 163.331 743.804 165.562 734.456 165.562C726.736 165.562 719.477 164.11 712.678 161.206C705.95 158.232 700.001 154.195 694.831 149.096C689.661 143.926 685.625 137.977 682.721 131.249C679.817 124.45 678.365 117.156 678.365 109.365C678.365 101.646 679.782 94.4219 682.615 87.6939C685.518 80.9659 689.52 75.0524 694.619 69.9532C699.718 64.7833 705.632 60.7819 712.36 57.949C719.088 55.0454 726.276 53.5935 733.925 53.5935C743.344 53.5935 751.488 55.8952 758.358 60.4986C765.298 65.0312 770.716 70.9801 774.611 78.3455L774.293 56.568ZM734.35 154.301C742.494 154.301 749.47 152.318 755.277 148.352C761.155 144.315 765.652 138.898 768.769 132.099C771.885 125.3 773.443 117.828 773.443 109.684C773.443 101.327 771.849 93.7846 768.662 87.0565C765.546 80.2577 761.049 74.8753 755.171 70.9093C749.364 66.8725 742.423 64.8541 734.35 64.8541C726.134 64.8541 718.663 66.8725 711.935 70.9093C705.277 74.9461 699.966 80.3639 696 87.1628C692.034 93.9616 690.051 101.469 690.051 109.684C690.051 118.041 692.069 125.583 696.106 132.311C700.214 139.039 705.632 144.386 712.36 148.352C719.088 152.318 726.418 154.301 734.35 154.301ZM894.426 3.45213H905.899V162.8H894.426V140.916C890.743 148.352 885.502 154.337 878.704 158.869C871.905 163.331 863.796 165.562 854.376 165.562C846.657 165.562 839.433 164.11 832.705 161.206C825.977 158.303 820.028 154.301 814.858 149.202C809.759 144.032 805.758 138.083 802.854 131.355C799.95 124.627 798.499 117.403 798.499 109.684C798.499 101.964 799.95 94.7406 802.854 88.0126C805.758 81.2138 809.759 75.2648 814.858 70.1657C820.028 64.9957 825.977 60.9589 832.705 58.0553C839.433 55.1516 846.657 53.6998 854.376 53.6998C863.796 53.6998 871.905 55.966 878.704 60.4986C885.502 64.9603 890.743 70.8739 894.426 78.2393V3.45213ZM854.483 154.301C862.627 154.301 869.603 152.318 875.41 148.352C881.289 144.315 885.786 138.898 888.902 132.099C892.018 125.3 893.576 117.828 893.576 109.684C893.576 101.327 891.983 93.7846 888.796 87.0565C885.679 80.2577 881.182 74.8753 875.304 70.9093C869.497 66.8725 862.556 64.8541 854.483 64.8541C846.338 64.8541 838.902 66.8725 832.174 70.9093C825.517 74.9461 820.17 80.3639 816.133 87.1628C812.167 93.9616 810.184 101.469 810.184 109.684C810.184 118.041 812.202 125.583 816.239 132.311C820.347 139.039 825.765 144.386 832.493 148.352C839.221 152.318 846.551 154.301 854.483 154.301ZM931.438 162.8V56.568H942.911V72.8215C946.735 66.9433 951.799 62.2691 958.102 58.7989C964.405 55.3287 971.275 53.5935 978.711 53.5935C982.889 53.5935 986.891 54.1247 990.715 55.187L985.935 66.4476C982.889 65.5977 979.915 65.1728 977.011 65.1728C970.779 65.1728 965.078 66.6955 959.908 69.7408C954.738 72.7861 950.595 76.8937 947.479 82.0637C944.433 87.2336 942.911 92.9701 942.911 99.2732V162.8H931.438ZM1045.4 165.562C1035.63 165.562 1026.71 163.048 1018.63 158.019C1010.63 152.991 1004.22 146.263 999.406 137.835C994.661 129.337 992.289 119.953 992.289 109.684C992.289 101.894 993.67 94.6344 996.432 87.9064C999.194 81.1076 1002.98 75.1586 1007.8 70.0595C1012.69 64.8895 1018.35 60.8527 1024.8 57.949C1031.24 55.0454 1038.11 53.5935 1045.4 53.5935C1055.18 53.5935 1064.07 56.1077 1072.07 61.136C1080.14 66.1643 1086.55 72.9277 1091.3 81.4263C1096.11 89.9248 1098.52 99.344 1098.52 109.684C1098.52 117.403 1097.14 124.627 1094.38 131.355C1091.62 138.083 1087.79 144.032 1082.9 149.202C1078.09 154.301 1072.46 158.303 1066.01 161.206C1059.64 164.11 1052.77 165.562 1045.4 165.562ZM1045.4 154.089C1053.27 154.089 1060.31 152.035 1066.54 147.927C1072.85 143.82 1077.84 138.402 1081.52 131.674C1085.21 124.946 1087.05 117.616 1087.05 109.684C1087.05 101.681 1085.21 94.2803 1081.52 87.4815C1077.84 80.6826 1072.85 75.2648 1066.54 71.228C1060.24 67.1204 1053.19 65.0666 1045.4 65.0666C1037.54 65.0666 1030.46 67.1204 1024.16 71.228C1017.85 75.3356 1012.86 80.7889 1009.18 87.5877C1005.57 94.3157 1003.76 101.681 1003.76 109.684C1003.76 117.97 1005.64 125.477 1009.39 132.205C1013.22 138.862 1018.28 144.174 1024.58 148.14C1030.89 152.106 1037.83 154.089 1045.4 154.089ZM1150.18 164.818C1144.3 164.747 1138.53 163.72 1132.86 161.737C1127.27 159.684 1122.38 156.957 1118.2 153.558C1114.02 150.158 1111.12 146.298 1109.49 141.978L1119.58 137.623C1120.79 140.81 1123.09 143.678 1126.49 146.228C1129.96 148.777 1133.85 150.796 1138.17 152.283C1142.57 153.699 1146.85 154.407 1151.03 154.407C1155.77 154.407 1160.24 153.593 1164.41 151.964C1168.59 150.335 1171.99 148.034 1174.61 145.059C1177.23 142.085 1178.54 138.579 1178.54 134.542C1178.54 130.293 1177.16 126.964 1174.4 124.556C1171.64 122.078 1168.1 120.095 1163.78 118.607C1159.53 117.049 1155.14 115.597 1150.6 114.252C1142.81 111.986 1136.05 109.684 1130.31 107.347C1124.65 104.939 1120.26 101.894 1117.14 98.2109C1114.02 94.5282 1112.47 89.6769 1112.47 83.6571C1112.47 77.4249 1114.27 72.007 1117.88 67.4037C1121.5 62.8003 1126.24 59.2592 1132.12 56.7805C1138 54.2309 1144.3 52.9561 1151.03 52.9561C1159.74 52.9561 1167.64 54.8683 1174.72 58.6927C1181.87 62.517 1186.9 67.5453 1189.8 73.7776L1180.45 79.3016C1179.04 76.0439 1176.81 73.2464 1173.76 70.9093C1170.72 68.5722 1167.25 66.7663 1163.35 65.4915C1159.46 64.2167 1155.53 63.5439 1151.56 63.4731C1146.6 63.4023 1141.96 64.1813 1137.64 65.8102C1133.39 67.3683 1129.96 69.6699 1127.34 72.7153C1124.72 75.6897 1123.41 79.3016 1123.41 83.5509C1123.41 87.8002 1124.61 91.0579 1127.02 93.3242C1129.43 95.5905 1132.79 97.4318 1137.11 98.8483C1141.43 100.194 1146.43 101.787 1152.09 103.629C1158.68 105.683 1164.8 107.984 1170.47 110.534C1176.21 113.013 1180.81 116.129 1184.28 119.882C1187.82 123.636 1189.56 128.487 1189.48 134.436C1189.48 140.668 1187.61 146.086 1183.85 150.689C1180.17 155.293 1175.32 158.834 1169.3 161.313C1163.35 163.791 1156.98 164.96 1150.18 164.818Z" fill="white"/>
</g>
<defs>
<clipPath id="clip0_469_175">
<rect width="1190.42" height="182" fill="white"/>
</clipPath>
</defs>
</svg>
