<svg width="796" height="182" viewBox="0 0 796 182" fill="none" xmlns="http://www.w3.org/2000/svg">
<path fill-rule="evenodd" clip-rule="evenodd" d="M654.01 20.6559H641.398C641.339 21.8877 641.301 23.1173 641.283 24.3437L641.204 29.6878L636.06 27.4124C628.114 23.8976 624.117 22.3644 620.495 21.4426C617.768 20.7486 615.451 20.4854 613.533 20.6559C610.699 20.9078 608.733 22.1067 607.591 24.262C606.862 25.6387 606.8 26.3041 606.679 33.9877L606.55 42.2355H612.78H619.011L619.111 37.8197L619.21 33.4038L625.595 36.2548C639.849 42.6188 647.231 43.9974 651.129 41.0238C653.474 39.2352 653.597 38.5983 653.833 26.9814C653.883 24.484 653.939 22.4245 654.01 20.6559ZM543.661 178.446C544.482 179.843 546.18 180.955 548.05 181.32C550.07 181.714 570.071 181.676 571.816 181.274C573.935 180.785 575.352 179.7 576.142 177.961C576.718 176.693 576.803 175.557 576.808 169.057C576.811 164.874 576.649 161.014 576.438 160.252C575.778 157.876 573.901 156.252 568.942 153.768L564.402 151.493V148.508V145.523L570.876 145.406C577.174 145.293 577.406 145.262 579.425 144.271C581.828 143.091 583.284 141.15 583.891 138.32C584.111 137.291 584.267 131.938 584.267 125.406V114.249H578.059H571.851V124.182V134.115H559.258H546.664V100.059V66.0037H559.258H571.851V74.8724V83.741H578.059H584.267V73.8256C584.267 68.1701 584.105 63.1557 583.891 62.1539C583.313 59.4585 581.781 57.3315 579.584 56.1742L577.705 55.184L559.845 55.0799C539.316 54.9602 539.233 54.9693 536.55 57.6522C536.14 58.0624 535.793 58.3625 535.5 58.7081C533.787 60.7236 533.893 64.2841 533.893 100.237C533.893 136.264 533.836 139.428 535.319 141.478C535.52 141.757 535.749 142.014 536.011 142.331C536.602 143.045 537.844 144.003 538.771 144.46C540.333 145.229 540.968 145.298 547.462 145.41L554.469 145.531V149.821C554.469 156.515 555.163 157.512 562.332 161.105L566.53 163.21V167.996V172.782H559.612H552.695V167.993V163.204H547.702H542.709L542.824 170.21C542.928 176.495 543.014 177.343 543.661 178.446ZM463.178 141.387C464.611 144.043 466.359 145.233 469.684 145.814C471.945 146.209 472.131 146.209 477.843 145.81C482.443 145.489 498.14 143.642 500.636 143.128C501.556 142.939 501.611 142.999 501.611 144.197V145.467H507.82H514.028V100.237V55.0065H507.82H501.612V94.1625V133.319L493.187 133.545C488.553 133.669 482.487 133.867 479.706 133.985L474.651 134.201V94.6036V55.0065H468.437H462.224L462.318 97.4873L462.412 139.968L463.178 141.387ZM2.99697 142.479C4.31133 143.794 5.38841 144.512 6.6038 144.885C8.05354 145.33 11.6443 145.423 28.5815 145.442C47.4548 145.465 50.7731 145.513 52.9285 143.954C53.4543 143.573 53.9108 143.097 54.507 142.502C55.1151 141.895 55.6003 141.426 55.9864 140.886C57.5428 138.712 57.4909 135.386 57.3947 117.213C57.2939 98.1765 57.2748 97.7087 56.5142 95.6961C56.0866 94.5646 55.1813 92.8657 54.5025 91.9209C53.8236 90.976 44.2362 79.3425 33.197 66.0687L13.1257 41.9343V26.8309V11.7274H28.7346H44.3434V28.0457V44.3641H50.9062H57.469V26.5138C57.469 6.60899 57.44 6.3243 55.1314 3.62729C54.4222 2.79879 53.0218 1.68829 52.0194 1.15953L50.1967 0.198182H28.9119H7.62716L5.60366 1.19183C3.44732 2.25077 2.21784 3.47919 0.958714 5.83282C0.182599 7.28354 0.177491 7.41252 0.177491 25.5625V43.832L1.01217 45.9012C2.13054 48.6737 2.30041 48.889 24.7534 75.9991L44.3434 99.6525V116.706V133.76H28.7346H13.1257V115.845V97.9307H6.56293H0.000117958V117.377C0.000117958 135.415 -0.0426004 138.698 1.49784 140.846C1.88749 141.39 2.37843 141.861 2.99697 142.479ZM79.8181 0.0208189V72.7438V145.467H86.0346H92.251L92.1539 96.2699C92.1005 69.2116 92.1024 47.3014 92.1582 47.581C92.214 47.8604 97.2481 66.9259 103.345 89.949L114.43 131.809L115.896 131.917C117.06 132.002 117.4 131.893 117.547 131.385C117.649 131.033 122.72 111.871 128.816 88.8017C134.912 65.733 139.949 46.9082 140.01 46.9692C140.071 47.0301 139.967 48.2648 139.779 49.713C139.575 51.2813 139.433 71.1754 139.426 98.9065L139.415 145.467H145.623H151.832V72.7356V0.00425174L145.734 0.101223L139.636 0.198182L127.774 47.6508L115.911 95.1034L104.03 47.5621L92.1481 0.0208189H85.9831H79.8181ZM174.89 0V72.7343V145.469H181.453H188.016V116.75V88.03L206.551 87.9264C223.703 87.8306 225.199 87.7736 226.594 87.1638C228.687 86.2485 231.415 83.1729 232.038 81.0255C232.451 79.6018 232.536 73.1981 232.536 43.4796C232.536 7.74377 232.534 7.64605 231.786 6.05386C230.845 4.04978 228.835 2.04743 226.718 1.00457L225.087 0.200516L199.988 0.10027L174.89 0ZM219.233 11.7293V43.8338V75.9384H203.625H188.016V43.8338V11.7293H203.625H219.233ZM289.805 142.318C290.876 143.612 292.653 144.657 294.617 145.146C295.202 145.293 303.504 145.383 313.064 145.35C328.974 145.294 330.567 145.235 331.866 144.65C333.66 143.841 335.088 142.491 336.066 140.678C336.802 139.315 336.836 138.776 336.938 127.075C337.055 113.68 336.965 112.931 334.901 110.138C334.337 109.375 326.284 102.605 317.005 95.0928L300.134 81.4351L300.125 73.7193L300.116 66.0036H312.354H324.593V74.8722V83.7409H330.801H337.009V73.5177C337.009 62.5625 336.817 61.0244 335.14 58.5226C334.694 57.8569 333.455 56.8334 332.388 56.2481L330.446 55.1838H312.532C295.09 55.1838 294.575 55.2035 293.021 55.9271C290.854 56.9358 289.263 58.6639 288.507 60.829C287.959 62.3975 287.877 63.9794 287.877 72.9212C287.877 84.5173 288.049 85.5564 290.429 88.3367C291.136 89.1633 299.113 95.896 308.154 103.298L324.593 116.757V125.613V134.47H312.354H300.116V124.359V114.249H293.908H287.699V125.891C287.699 138.726 287.858 139.962 289.805 142.318ZM357.475 140.713C358.783 143.158 360.654 144.497 363.793 145.234C364.183 145.327 372.883 145.375 383.126 145.346C399.871 145.297 402.896 145.342 404.731 143.886C405.209 143.507 405.606 143.027 406.143 142.416C406.469 142.046 406.75 141.759 406.992 141.442C408.571 139.373 408.491 136.039 408.491 100.061C408.491 64.2317 408.618 60.5672 406.851 58.63C406.525 58.2725 406.135 57.9738 405.667 57.5426C402.939 55.0273 402.755 55.0084 382.417 55.0084C362.568 55.0084 361.946 55.0681 359.51 57.2072C358.818 57.8144 357.902 58.965 357.475 59.7639L356.698 61.2164V100.238V139.261L357.475 140.713ZM395.897 66.0055V100.061V134.117H382.417H368.936V100.061V66.0055H382.417H395.897ZM428.889 0.0226882V72.7456V145.469H435.274H441.659V72.7456V0.0226882H435.274H428.889ZM604.947 139.793C605.988 142.413 607.508 143.85 610.252 144.809C611.982 145.414 613.459 145.455 630.916 145.376L649.718 145.291L651.387 144.469C652.306 144.017 653.536 143.101 654.121 142.434C654.384 142.135 654.615 141.891 654.818 141.625C656.337 139.633 656.281 136.44 656.281 100.01C656.281 63.0915 656.269 62.4535 655.556 60.5479C654.628 58.0679 652.698 56.2885 650.123 55.54C648.45 55.0538 645.7 54.9923 629.444 55.0821L610.696 55.1857L608.771 56.25C606.318 57.6055 605.035 59.5591 604.502 62.7498C604.224 64.4149 604.137 75.9727 604.21 101.657C604.306 135.77 604.355 138.302 604.947 139.793ZM643.865 66.0055V100.061V134.117H630.385H616.904V100.061V66.0055H630.385H643.865ZM676.94 140.746C678.204 143.145 680.137 144.563 683.064 145.238C683.454 145.327 691.915 145.375 701.866 145.347L719.958 145.291L721.899 144.227C722.967 143.642 724.206 142.618 724.652 141.953C726.303 139.489 726.521 137.848 726.521 127.844V118.508H720.313H714.105V126.667V134.826H701.157H688.208V118.685V102.544H705.384H722.559L724.555 100.339L726.551 98.1338L726.447 79.8526L726.343 61.5712L725.501 59.8757C724.449 57.7581 722.607 56.2074 720.337 55.5303C717.755 54.7599 684.558 54.7599 681.976 55.5303C679.706 56.2074 677.863 57.7581 676.811 59.8757L675.969 61.5712V100.238V138.906L676.94 140.746ZM714.105 65.6507V78.9537V92.2567H701.156H688.208V78.9537V65.6507H701.156H714.105ZM747.096 140.661C748.18 142.808 750.06 144.358 752.316 144.964C754.542 145.563 785.881 145.664 788.599 145.081C790.996 144.567 793.176 142.876 794.277 140.677C795.163 138.908 795.164 138.893 795.267 127.028C795.378 114.133 795.279 113.266 793.357 110.363C792.838 109.578 785.489 103.364 775.467 95.2338L758.457 81.437L758.453 73.7212L758.448 66.0055H770.687H782.925V74.8742V83.7428H789.156H795.388L795.276 72.8343L795.164 61.9259L794.154 59.868C793.027 57.5733 791.499 56.3416 788.757 55.5161C786.283 54.7715 755.091 54.7715 752.617 55.5161C749.874 56.3416 748.347 57.5733 747.22 59.868L746.209 61.9259V72.923C746.209 83.4077 746.245 83.9966 746.967 85.5599C747.384 86.4618 748.329 87.8678 749.067 88.6845C749.805 89.5011 757.725 96.1625 766.667 103.488L782.926 116.807V125.639V134.471H770.687H758.448V124.361V114.251H752.227H746.006L746.107 126.578L746.209 138.906L747.096 140.661Z" fill="white"/>
</svg>
