<svg width="669" height="193" viewBox="0 0 669 193" fill="none" xmlns="http://www.w3.org/2000/svg">
<path d="M105.67 20.2514C97.8254 12.9471 85.3776 6.28612 73.216 5.33741C51.7089 3.65969 33.895 14.5641 25.0312 29.4544C25.0232 29.4682 25.0157 29.4819 25.0081 29.494C12.703 50.5231 15.5869 73.2915 26.6797 88.5599C43.6716 111.948 84.0263 116.195 103.156 96.5874C102.849 89.8609 103.125 82.6411 102.939 75.0763" stroke="white" stroke-width="10.3343" stroke-miterlimit="3"/>
<path d="M58.5854 63.5249C64.4133 55.6208 77.9893 44.4267 91.0516 37.7537C117.403 24.2916 159.868 29.025 167.26 67.053C170.458 83.5046 160.724 95.7432 153.595 105.077C193.472 133.521 173.157 178.007 141.838 185.354C124.28 189.473 96.4185 187.631 71.4562 168.649" stroke="white" stroke-width="10.3343" stroke-miterlimit="3" stroke-linejoin="round"/>
<path d="M51.6775 84.8599C58.5216 84.8599 64.0698 79.3116 64.0698 72.4675C64.0698 65.6234 58.5216 60.0752 51.6775 60.0752C44.8334 60.0752 39.2852 65.6234 39.2852 72.4675C39.2852 79.3116 44.8334 84.8599 51.6775 84.8599Z" stroke="white" stroke-width="4.09175" stroke-miterlimit="3" stroke-linejoin="round"/>
<path d="M55.8599 145.626C55.8599 145.626 79.0527 156.929 69.9705 168.5C61.8427 178.855 43.5317 158.548 43.5317 158.548" stroke="white" stroke-width="6.88951" stroke-miterlimit="3" stroke-linecap="round" stroke-linejoin="round"/>
<path d="M48.5967 70.8652L50.4266 74.463L54.4609 73.4755" stroke="white" stroke-width="6.8544" stroke-miterlimit="3" stroke-linecap="round"/>
<path d="M54.4266 144.438C35.6299 127.122 16.4239 122.419 3.27979 133.885" stroke="white" stroke-width="3.44475" stroke-miterlimit="3" stroke-linecap="round"/>
<path d="M25.1136 109.031C12.3485 128.317 28.3988 144.186 41.9721 157.361" stroke="white" stroke-width="3.44475" stroke-miterlimit="3" stroke-linecap="round"/>
<circle cx="2.41582" cy="134.884" r="2.2145" fill="white" stroke="white" stroke-width="0.402636"/>
<circle cx="25.7693" cy="108.309" r="2.2145" fill="white" stroke="white" stroke-width="0.402636"/>
<mask id="path-10-inside-1_469_153" fill="white">
<path d="M233.808 117.418C230.692 117.418 227.82 116.93 225.193 115.954C222.603 114.94 220.332 113.514 218.38 111.675C216.465 109.835 214.964 107.677 213.875 105.199C212.824 102.722 212.299 100.001 212.299 97.0352C212.299 94.0697 212.824 91.3483 213.875 88.8708C214.964 86.3934 216.484 84.235 218.436 82.3956C220.388 80.5563 222.678 79.1487 225.305 78.1727C227.933 77.1592 230.823 76.6525 233.977 76.6525C237.468 76.6525 240.602 77.2343 243.38 78.3979C246.195 79.5616 248.56 81.2508 250.474 83.4655L244.618 88.8708C243.192 87.3693 241.634 86.262 239.945 85.5488C238.256 84.798 236.416 84.4227 234.427 84.4227C232.513 84.4227 230.767 84.723 229.191 85.3235C227.614 85.9241 226.244 86.7875 225.08 87.9136C223.954 89.0397 223.072 90.3723 222.434 91.9113C221.833 93.4504 221.533 95.1583 221.533 97.0352C221.533 98.8745 221.833 100.564 222.434 102.103C223.072 103.642 223.954 104.993 225.08 106.157C226.244 107.283 227.595 108.146 229.134 108.747C230.711 109.347 232.438 109.648 234.314 109.648C236.116 109.648 237.862 109.366 239.551 108.803C241.278 108.202 242.948 107.208 244.562 105.819L249.742 112.407C247.603 114.021 245.106 115.259 242.254 116.123C239.438 116.986 236.623 117.418 233.808 117.418ZM249.742 112.407L241.409 111.224V96.4158H249.742V112.407ZM268.519 117.418C265.779 117.418 263.058 117.061 260.355 116.348C257.652 115.597 255.362 114.546 253.486 113.195L257.033 106.213C258.534 107.302 260.28 108.165 262.269 108.803C264.259 109.441 266.267 109.76 268.294 109.76C270.584 109.76 272.386 109.31 273.699 108.409C275.013 107.508 275.67 106.269 275.67 104.693C275.67 103.191 275.088 102.009 273.925 101.145C272.761 100.282 270.884 99.8504 268.294 99.8504H264.127V93.8257L275.107 81.3821L276.121 84.6479H255.456V77.3281H283.046V83.2402L272.123 95.6838L267.506 93.0374H270.152C274.994 93.0374 278.654 94.126 281.132 96.3032C283.609 98.4803 284.848 101.277 284.848 104.693C284.848 106.907 284.266 108.991 283.102 110.943C281.939 112.857 280.156 114.415 277.753 115.616C275.351 116.817 272.273 117.418 268.519 117.418ZM314.54 116.742V86.9001H302.997V83.8971H329.555V86.9001H318.012V116.742H314.54ZM335.102 116.742V83.8971H357.624V86.9001H338.574V113.739H358.328V116.742H335.102ZM338.199 101.54V98.5836H355.56V101.54H338.199ZM366.49 116.742V83.8971H369.962V113.739H388.355V116.742H366.49ZM394.12 116.742V83.8971H416.643V86.9001H397.592V113.739H417.346V116.742H394.12ZM397.217 101.54V98.5836H414.578V101.54H397.217ZM425.508 116.742V83.8971H428.37L443.385 109.516H441.884L456.758 83.8971H459.62V116.742H456.289V89.1054H457.086L443.385 112.566H441.743L427.948 89.1054H428.84V116.742H425.508ZM470.322 116.742V83.8971H492.844V86.9001H473.794V113.739H493.548V116.742H470.322ZM473.419 101.54V98.5836H490.78V101.54H473.419ZM501.71 116.742V83.8971H515.083C518.586 83.8971 521.652 84.6009 524.279 86.0086C526.938 87.385 529.003 89.3087 530.473 91.7799C531.943 94.2511 532.678 97.0977 532.678 100.32C532.678 103.542 531.943 106.388 530.473 108.859C529.003 111.331 526.938 113.27 524.279 114.678C521.652 116.054 518.586 116.742 515.083 116.742H501.71ZM505.182 113.739H514.895C517.804 113.739 520.322 113.176 522.449 112.05C524.608 110.893 526.281 109.313 527.47 107.311C528.658 105.278 529.253 102.947 529.253 100.32C529.253 97.6608 528.658 95.3303 527.47 93.3283C526.281 91.3264 524.608 89.7623 522.449 88.6362C520.322 87.4788 517.804 86.9001 514.895 86.9001H505.182V113.739ZM540.475 116.742V83.8971H543.947V116.742H540.475ZM568.898 117.024C566.427 117.024 564.143 116.617 562.048 115.804C559.952 114.959 558.138 113.786 556.605 112.285C555.072 110.783 553.868 109.016 552.992 106.983C552.147 104.949 551.725 102.728 551.725 100.32C551.725 97.911 552.147 95.6901 552.992 93.6568C553.868 91.6235 555.072 89.8562 556.605 88.3547C558.169 86.8532 559.999 85.6958 562.095 84.8825C564.19 84.0379 566.474 83.6156 568.945 83.6156C571.322 83.6156 573.559 84.0222 575.655 84.8356C577.751 85.6176 579.518 86.8063 580.957 88.4016L578.752 90.6069C577.407 89.2305 575.921 88.2452 574.294 87.6508C572.668 87.0252 570.916 86.7124 569.039 86.7124C567.068 86.7124 565.238 87.0565 563.549 87.7447C561.86 88.4016 560.39 89.3557 559.138 90.6069C557.887 91.8269 556.902 93.2658 556.182 94.9237C555.494 96.5503 555.15 98.3489 555.15 100.32C555.15 102.29 555.494 104.105 556.182 105.763C556.902 107.389 557.887 108.828 559.138 110.079C560.39 111.299 561.86 112.253 563.549 112.942C565.238 113.598 567.068 113.927 569.039 113.927C570.916 113.927 572.668 113.614 574.294 112.988C575.921 112.363 577.407 111.362 578.752 109.985L580.957 112.191C579.518 113.786 577.751 114.99 575.655 115.804C573.559 116.617 571.307 117.024 568.898 117.024ZM587.901 116.742V83.8971H591.373V116.742H587.901ZM602.06 116.742V83.8971H604.922L627.585 112.425H626.083V83.8971H629.509V116.742H626.647L604.03 88.2139H605.532V116.742H602.06ZM634.974 116.742L649.989 83.8971H653.414L668.429 116.742H664.769L650.974 85.9147H652.382L638.587 116.742H634.974ZM640.886 107.968L641.918 105.153H661.015L662.048 107.968H640.886Z"/>
</mask>
<path d="M233.808 117.418C230.692 117.418 227.82 116.93 225.193 115.954C222.603 114.94 220.332 113.514 218.38 111.675C216.465 109.835 214.964 107.677 213.875 105.199C212.824 102.722 212.299 100.001 212.299 97.0352C212.299 94.0697 212.824 91.3483 213.875 88.8708C214.964 86.3934 216.484 84.235 218.436 82.3956C220.388 80.5563 222.678 79.1487 225.305 78.1727C227.933 77.1592 230.823 76.6525 233.977 76.6525C237.468 76.6525 240.602 77.2343 243.38 78.3979C246.195 79.5616 248.56 81.2508 250.474 83.4655L244.618 88.8708C243.192 87.3693 241.634 86.262 239.945 85.5488C238.256 84.798 236.416 84.4227 234.427 84.4227C232.513 84.4227 230.767 84.723 229.191 85.3235C227.614 85.9241 226.244 86.7875 225.08 87.9136C223.954 89.0397 223.072 90.3723 222.434 91.9113C221.833 93.4504 221.533 95.1583 221.533 97.0352C221.533 98.8745 221.833 100.564 222.434 102.103C223.072 103.642 223.954 104.993 225.08 106.157C226.244 107.283 227.595 108.146 229.134 108.747C230.711 109.347 232.438 109.648 234.314 109.648C236.116 109.648 237.862 109.366 239.551 108.803C241.278 108.202 242.948 107.208 244.562 105.819L249.742 112.407C247.603 114.021 245.106 115.259 242.254 116.123C239.438 116.986 236.623 117.418 233.808 117.418ZM249.742 112.407L241.409 111.224V96.4158H249.742V112.407ZM268.519 117.418C265.779 117.418 263.058 117.061 260.355 116.348C257.652 115.597 255.362 114.546 253.486 113.195L257.033 106.213C258.534 107.302 260.28 108.165 262.269 108.803C264.259 109.441 266.267 109.76 268.294 109.76C270.584 109.76 272.386 109.31 273.699 108.409C275.013 107.508 275.67 106.269 275.67 104.693C275.67 103.191 275.088 102.009 273.925 101.145C272.761 100.282 270.884 99.8504 268.294 99.8504H264.127V93.8257L275.107 81.3821L276.121 84.6479H255.456V77.3281H283.046V83.2402L272.123 95.6838L267.506 93.0374H270.152C274.994 93.0374 278.654 94.126 281.132 96.3032C283.609 98.4803 284.848 101.277 284.848 104.693C284.848 106.907 284.266 108.991 283.102 110.943C281.939 112.857 280.156 114.415 277.753 115.616C275.351 116.817 272.273 117.418 268.519 117.418ZM314.54 116.742V86.9001H302.997V83.8971H329.555V86.9001H318.012V116.742H314.54ZM335.102 116.742V83.8971H357.624V86.9001H338.574V113.739H358.328V116.742H335.102ZM338.199 101.54V98.5836H355.56V101.54H338.199ZM366.49 116.742V83.8971H369.962V113.739H388.355V116.742H366.49ZM394.12 116.742V83.8971H416.643V86.9001H397.592V113.739H417.346V116.742H394.12ZM397.217 101.54V98.5836H414.578V101.54H397.217ZM425.508 116.742V83.8971H428.37L443.385 109.516H441.884L456.758 83.8971H459.62V116.742H456.289V89.1054H457.086L443.385 112.566H441.743L427.948 89.1054H428.84V116.742H425.508ZM470.322 116.742V83.8971H492.844V86.9001H473.794V113.739H493.548V116.742H470.322ZM473.419 101.54V98.5836H490.78V101.54H473.419ZM501.71 116.742V83.8971H515.083C518.586 83.8971 521.652 84.6009 524.279 86.0086C526.938 87.385 529.003 89.3087 530.473 91.7799C531.943 94.2511 532.678 97.0977 532.678 100.32C532.678 103.542 531.943 106.388 530.473 108.859C529.003 111.331 526.938 113.27 524.279 114.678C521.652 116.054 518.586 116.742 515.083 116.742H501.71ZM505.182 113.739H514.895C517.804 113.739 520.322 113.176 522.449 112.05C524.608 110.893 526.281 109.313 527.47 107.311C528.658 105.278 529.253 102.947 529.253 100.32C529.253 97.6608 528.658 95.3303 527.47 93.3283C526.281 91.3264 524.608 89.7623 522.449 88.6362C520.322 87.4788 517.804 86.9001 514.895 86.9001H505.182V113.739ZM540.475 116.742V83.8971H543.947V116.742H540.475ZM568.898 117.024C566.427 117.024 564.143 116.617 562.048 115.804C559.952 114.959 558.138 113.786 556.605 112.285C555.072 110.783 553.868 109.016 552.992 106.983C552.147 104.949 551.725 102.728 551.725 100.32C551.725 97.911 552.147 95.6901 552.992 93.6568C553.868 91.6235 555.072 89.8562 556.605 88.3547C558.169 86.8532 559.999 85.6958 562.095 84.8825C564.19 84.0379 566.474 83.6156 568.945 83.6156C571.322 83.6156 573.559 84.0222 575.655 84.8356C577.751 85.6176 579.518 86.8063 580.957 88.4016L578.752 90.6069C577.407 89.2305 575.921 88.2452 574.294 87.6508C572.668 87.0252 570.916 86.7124 569.039 86.7124C567.068 86.7124 565.238 87.0565 563.549 87.7447C561.86 88.4016 560.39 89.3557 559.138 90.6069C557.887 91.8269 556.902 93.2658 556.182 94.9237C555.494 96.5503 555.15 98.3489 555.15 100.32C555.15 102.29 555.494 104.105 556.182 105.763C556.902 107.389 557.887 108.828 559.138 110.079C560.39 111.299 561.86 112.253 563.549 112.942C565.238 113.598 567.068 113.927 569.039 113.927C570.916 113.927 572.668 113.614 574.294 112.988C575.921 112.363 577.407 111.362 578.752 109.985L580.957 112.191C579.518 113.786 577.751 114.99 575.655 115.804C573.559 116.617 571.307 117.024 568.898 117.024ZM587.901 116.742V83.8971H591.373V116.742H587.901ZM602.06 116.742V83.8971H604.922L627.585 112.425H626.083V83.8971H629.509V116.742H626.647L604.03 88.2139H605.532V116.742H602.06ZM634.974 116.742L649.989 83.8971H653.414L668.429 116.742H664.769L650.974 85.9147H652.382L638.587 116.742H634.974ZM640.886 107.968L641.918 105.153H661.015L662.048 107.968H640.886Z" fill="white"/>
<path d="M225.193 115.954L223.097 121.309L223.144 121.328L223.19 121.345L225.193 115.954ZM218.38 111.675L214.395 115.822L214.416 115.841L214.436 115.86L218.38 111.675ZM213.875 105.199L208.581 107.446L208.595 107.479L208.61 107.513L213.875 105.199ZM213.875 88.8708L208.61 86.5573L208.595 86.591L208.581 86.6248L213.875 88.8708ZM218.436 82.3956L222.38 86.5811L222.38 86.5811L218.436 82.3956ZM225.305 78.1727L227.308 83.5638L227.342 83.5513L227.375 83.5384L225.305 78.1727ZM243.38 78.3979L241.158 83.7023L241.17 83.7076L241.183 83.7128L243.38 78.3979ZM250.474 83.4655L254.375 87.6913L258.465 83.9157L254.825 79.7046L250.474 83.4655ZM244.618 88.8708L240.449 92.8318L244.353 96.9419L248.519 93.0967L244.618 88.8708ZM239.945 85.5488L237.609 90.8041L237.658 90.8259L237.708 90.8469L239.945 85.5488ZM229.191 85.3235L227.143 79.9493L229.191 85.3235ZM225.08 87.9136L221.081 83.7809L221.047 83.8137L221.014 83.8471L225.08 87.9136ZM222.434 91.9113L217.121 89.7086L217.098 89.7644L217.076 89.8206L222.434 91.9113ZM222.434 102.103L217.076 104.193L217.098 104.25L217.121 104.305L222.434 102.103ZM225.08 106.157L220.948 110.156L221.013 110.224L221.081 110.289L225.08 106.157ZM229.134 108.747L227.044 114.104L227.065 114.113L227.087 114.121L229.134 108.747ZM239.551 108.803L241.369 114.259L241.405 114.247L241.44 114.235L239.551 108.803ZM244.562 105.819L249.083 102.264L245.367 97.539L240.811 101.46L244.562 105.819ZM249.742 112.407L253.206 116.998L257.89 113.464L254.263 108.852L249.742 112.407ZM242.254 116.123L240.588 110.618L240.578 110.621L240.567 110.625L242.254 116.123ZM249.742 112.407L248.934 118.101L255.493 119.031V112.407H249.742ZM241.409 111.224H235.658V116.217L240.601 116.918L241.409 111.224ZM241.409 96.4158V90.6648H235.658V96.4158H241.409ZM249.742 96.4158H255.493V90.6648H249.742V96.4158ZM233.808 117.418V111.667C231.3 111.667 229.115 111.276 227.195 110.563L225.193 115.954L223.19 121.345C226.526 122.584 230.084 123.169 233.808 123.169V117.418ZM225.193 115.954L227.289 110.598C225.358 109.843 223.72 108.805 222.324 107.489L218.38 111.675L214.436 115.86C216.943 118.223 219.848 120.038 223.097 121.309L225.193 115.954ZM218.38 111.675L222.364 107.528C221.003 106.22 219.932 104.688 219.141 102.886L213.875 105.199L208.61 107.513C209.996 110.666 211.928 113.451 214.395 115.822L218.38 111.675ZM213.875 105.199L219.17 102.953C218.449 101.256 218.05 99.3079 218.05 97.0352H212.299H206.548C206.548 100.693 207.199 104.188 208.581 107.446L213.875 105.199ZM212.299 97.0352H218.05C218.05 94.7624 218.449 92.8146 219.17 91.1169L213.875 88.8708L208.581 86.6248C207.199 89.882 206.548 93.377 206.548 97.0352H212.299ZM213.875 88.8708L219.141 91.1843C219.922 89.4066 220.995 87.8865 222.38 86.5811L218.436 82.3956L214.492 78.2101C211.974 80.5834 210.006 83.3801 208.61 86.5573L213.875 88.8708ZM218.436 82.3956L222.38 86.5811C223.747 85.2933 225.368 84.2842 227.308 83.5638L225.305 78.1727L223.303 72.7816C219.987 74.0132 217.029 75.8194 214.492 78.2101L218.436 82.3956ZM225.305 78.1727L227.375 83.5384C229.268 82.8082 231.447 82.4034 233.977 82.4034V76.6525V70.9015C230.2 70.9015 226.598 71.5102 223.236 72.807L225.305 78.1727ZM233.977 76.6525V82.4034C236.825 82.4034 239.186 82.8766 241.158 83.7023L243.38 78.3979L245.602 73.0936C242.017 71.592 238.11 70.9015 233.977 70.9015V76.6525ZM243.38 78.3979L241.183 83.7128C243.203 84.548 244.82 85.7185 246.123 87.2263L250.474 83.4655L254.825 79.7046C252.3 76.783 249.186 74.5752 245.576 73.0831L243.38 78.3979ZM250.474 83.4655L246.573 79.2396L240.718 84.645L244.618 88.8708L248.519 93.0967L254.375 87.6913L250.474 83.4655ZM244.618 88.8708L248.788 84.9098C246.887 82.9086 244.689 81.3093 242.182 80.2507L239.945 85.5488L237.708 90.8469C238.579 91.2146 239.497 91.83 240.449 92.8318L244.618 88.8708ZM239.945 85.5488L242.281 80.2935C239.801 79.1915 237.159 78.6717 234.427 78.6717V84.4227V90.1736C235.674 90.1736 236.71 90.4045 237.609 90.8041L239.945 85.5488ZM234.427 84.4227V78.6717C231.906 78.6717 229.456 79.0684 227.143 79.9493L229.191 85.3235L231.238 90.6978C232.079 90.3775 233.119 90.1736 234.427 90.1736V84.4227ZM229.191 85.3235L227.143 79.9493C224.87 80.8154 222.828 82.0904 221.081 83.7809L225.08 87.9136L229.08 92.0463C229.66 91.4846 230.358 91.0329 231.238 90.6978L229.191 85.3235ZM225.08 87.9136L221.014 83.8471C219.33 85.5312 218.035 87.5053 217.121 89.7086L222.434 91.9113L227.746 94.114C228.109 93.2393 228.579 92.5482 229.147 91.9802L225.08 87.9136ZM222.434 91.9113L217.076 89.8206C216.183 92.1104 215.782 94.5395 215.782 97.0352H221.533H227.284C227.284 95.7771 227.484 94.7903 227.791 94.0021L222.434 91.9113ZM221.533 97.0352H215.782C215.782 99.5089 216.188 101.917 217.076 104.193L222.434 102.103L227.791 100.012C227.479 99.2107 227.284 98.24 227.284 97.0352H221.533ZM222.434 102.103L217.121 104.305C218.028 106.492 219.304 108.458 220.948 110.156L225.08 106.157L229.213 102.157C228.604 101.528 228.116 100.791 227.746 99.9L222.434 102.103ZM225.08 106.157L221.081 110.289C222.804 111.957 224.808 113.232 227.044 114.104L229.134 108.747L231.225 103.389C230.382 103.06 229.683 102.608 229.08 102.024L225.08 106.157ZM229.134 108.747L227.087 114.121C229.387 114.997 231.816 115.399 234.314 115.399V109.648V103.897C233.059 103.897 232.035 103.698 231.182 103.373L229.134 108.747ZM234.314 109.648V115.399C236.727 115.399 239.087 115.02 241.369 114.259L239.551 108.803L237.732 103.347C236.637 103.712 235.506 103.897 234.314 103.897V109.648ZM239.551 108.803L241.44 114.235C243.952 113.361 246.24 111.962 248.313 110.178L244.562 105.819L240.811 101.46C239.656 102.454 238.603 103.044 237.662 103.371L239.551 108.803ZM244.562 105.819L240.041 109.374L245.221 115.961L249.742 112.407L254.263 108.852L249.083 102.264L244.562 105.819ZM249.742 112.407L246.279 107.816C244.737 108.979 242.865 109.929 240.588 110.618L242.254 116.123L243.919 121.627C247.348 120.59 250.468 119.063 253.206 116.998L249.742 112.407ZM242.254 116.123L240.567 110.625C238.273 111.328 236.026 111.667 233.808 111.667V117.418V123.169C237.22 123.169 240.603 122.644 243.94 121.621L242.254 116.123ZM249.742 112.407L250.55 106.713L242.217 105.53L241.409 111.224L240.601 116.918L248.934 118.101L249.742 112.407ZM241.409 111.224H247.16V96.4158H241.409H235.658V111.224H241.409ZM241.409 96.4158V102.167H249.742V96.4158V90.6648H241.409V96.4158ZM249.742 96.4158H243.991V112.407H249.742H255.493V96.4158H249.742ZM260.355 116.348L258.816 121.889L258.852 121.899L258.888 121.909L260.355 116.348ZM253.486 113.195L248.358 110.59L246.127 114.983L250.125 117.862L253.486 113.195ZM257.033 106.213L260.409 101.557L254.956 97.604L251.906 103.608L257.033 106.213ZM262.269 108.803L260.513 114.279V114.279L262.269 108.803ZM273.699 108.409L276.952 113.152V113.152L273.699 108.409ZM273.925 101.145L270.498 105.764L273.925 101.145ZM264.127 99.8504H258.376V105.601H264.127V99.8504ZM264.127 93.8257L259.815 90.0207L258.376 91.6513V93.8257H264.127ZM275.107 81.3821L280.6 79.6776L277.566 69.903L270.795 77.5772L275.107 81.3821ZM276.121 84.6479V90.3989H283.927L281.613 82.9433L276.121 84.6479ZM255.456 84.6479H249.705V90.3989H255.456V84.6479ZM255.456 77.3281V71.5771H249.705V77.3281H255.456ZM283.046 77.3281H288.797V71.5771H283.046V77.3281ZM283.046 83.2402L287.368 87.0342L288.797 85.4063V83.2402H283.046ZM272.123 95.6838L269.263 100.673L273.343 103.012L276.445 99.4778L272.123 95.6838ZM267.506 93.0374V87.2865H245.907L264.646 98.0269L267.506 93.0374ZM281.132 96.3032L277.335 100.623V100.623L281.132 96.3032ZM283.102 110.943L288.017 113.93L288.03 113.909L288.042 113.888L283.102 110.943ZM277.753 115.616L275.182 110.472H275.182L277.753 115.616ZM268.519 117.418V111.667C266.284 111.667 264.056 111.377 261.822 110.787L260.355 116.348L258.888 121.909C262.059 122.746 265.274 123.169 268.519 123.169V117.418ZM260.355 116.348L261.894 110.807C259.71 110.2 258.069 109.408 256.846 108.528L253.486 113.195L250.125 117.862C252.656 119.684 255.594 120.994 258.816 121.889L260.355 116.348ZM253.486 113.195L258.613 115.8L262.16 108.818L257.033 106.213L251.906 103.608L248.358 110.59L253.486 113.195ZM257.033 106.213L253.657 110.869C255.71 112.357 258.016 113.478 260.513 114.279L262.269 108.803L264.026 103.327C262.544 102.851 261.359 102.246 260.409 101.557L257.033 106.213ZM262.269 108.803L260.513 114.279C263.052 115.094 265.653 115.511 268.294 115.511V109.76V104.009C266.882 104.009 265.465 103.789 264.026 103.327L262.269 108.803ZM268.294 109.76V115.511C271.259 115.511 274.346 114.939 276.952 113.152L273.699 108.409L270.447 103.666C270.425 103.681 269.909 104.009 268.294 104.009V109.76ZM273.699 108.409L276.952 113.152C279.81 111.192 281.421 108.189 281.421 104.693H275.67H269.919C269.919 104.66 269.933 104.419 270.097 104.11C270.172 103.968 270.256 103.855 270.331 103.774C270.404 103.695 270.452 103.662 270.447 103.666L273.699 108.409ZM275.67 104.693H281.421C281.421 101.448 280.038 98.5205 277.351 96.5269L273.925 101.145L270.498 105.764C270.419 105.706 270.226 105.528 270.074 105.219C270.004 105.077 269.963 104.947 269.941 104.845C269.919 104.745 269.919 104.689 269.919 104.693H275.67ZM273.925 101.145L277.351 96.5269C274.679 94.5439 271.262 94.0995 268.294 94.0995V99.8504V105.601C269.294 105.601 269.956 105.687 270.355 105.779C270.762 105.872 270.726 105.933 270.498 105.764L273.925 101.145ZM268.294 99.8504V94.0995H264.127V99.8504V105.601H268.294V99.8504ZM264.127 99.8504H269.878V93.8257H264.127H258.376V99.8504H264.127ZM264.127 93.8257L268.44 97.6307L279.419 85.1871L275.107 81.3821L270.795 77.5772L259.815 90.0207L264.127 93.8257ZM275.107 81.3821L269.615 83.0867L270.628 86.3525L276.121 84.6479L281.613 82.9433L280.6 79.6776L275.107 81.3821ZM276.121 84.6479V78.8969H255.456V84.6479V90.3989H276.121V84.6479ZM255.456 84.6479H261.207V77.3281H255.456H249.705V84.6479H255.456ZM255.456 77.3281V83.0791H283.046V77.3281V71.5771H255.456V77.3281ZM283.046 77.3281H277.295V83.2402H283.046H288.797V77.3281H283.046ZM283.046 83.2402L278.724 79.4463L267.801 91.8898L272.123 95.6838L276.445 99.4778L287.368 87.0342L283.046 83.2402ZM272.123 95.6838L274.983 90.6943L270.366 88.0479L267.506 93.0374L264.646 98.0269L269.263 100.673L272.123 95.6838ZM267.506 93.0374V98.7884H270.152V93.0374V87.2865H267.506V93.0374ZM270.152 93.0374V98.7884C274.237 98.7884 276.305 99.7176 277.335 100.623L281.132 96.3032L284.928 91.9832C281.004 88.5345 275.752 87.2865 270.152 87.2865V93.0374ZM281.132 96.3032L277.335 100.623C278.521 101.665 279.097 102.864 279.097 104.693H284.848H290.599C290.599 99.6901 288.698 95.296 284.928 91.9832L281.132 96.3032ZM284.848 104.693H279.097C279.097 105.843 278.81 106.912 278.163 107.998L283.102 110.943L288.042 113.888C289.722 111.069 290.599 107.972 290.599 104.693H284.848ZM283.102 110.943L278.188 107.956C277.69 108.775 276.81 109.658 275.182 110.472L277.753 115.616L280.325 120.76C283.502 119.172 286.188 116.939 288.017 113.93L283.102 110.943ZM277.753 115.616L275.182 110.472C273.83 111.148 271.714 111.667 268.519 111.667V117.418V123.169C272.832 123.169 276.872 122.487 280.325 120.76L277.753 115.616ZM314.54 116.742H308.789V122.493H314.54V116.742ZM314.54 86.9001H320.291V81.1491H314.54V86.9001ZM302.997 86.9001H297.246V92.6511H302.997V86.9001ZM302.997 83.8971V78.1461H297.246V83.8971H302.997ZM329.555 83.8971H335.306V78.1461H329.555V83.8971ZM329.555 86.9001V92.6511H335.306V86.9001H329.555ZM318.012 86.9001V81.1491H312.261V86.9001H318.012ZM318.012 116.742V122.493H323.763V116.742H318.012ZM314.54 116.742H320.291V86.9001H314.54H308.789V116.742H314.54ZM314.54 86.9001V81.1491H302.997V86.9001V92.6511H314.54V86.9001ZM302.997 86.9001H308.748V83.8971H302.997H297.246V86.9001H302.997ZM302.997 83.8971V89.6481H329.555V83.8971V78.1461H302.997V83.8971ZM329.555 83.8971H323.804V86.9001H329.555H335.306V83.8971H329.555ZM329.555 86.9001V81.1491H318.012V86.9001V92.6511H329.555V86.9001ZM318.012 86.9001H312.261V116.742H318.012H323.763V86.9001H318.012ZM318.012 116.742V110.991H314.54V116.742V122.493H318.012V116.742ZM335.102 116.742H329.351V122.493H335.102V116.742ZM335.102 83.8971V78.1461H329.351V83.8971H335.102ZM357.624 83.8971H363.375V78.1461H357.624V83.8971ZM357.624 86.9001V92.6511H363.375V86.9001H357.624ZM338.574 86.9001V81.1491H332.823V86.9001H338.574ZM338.574 113.739H332.823V119.49H338.574V113.739ZM358.328 113.739H364.079V107.988H358.328V113.739ZM358.328 116.742V122.493H364.079V116.742H358.328ZM338.199 101.54H332.448V107.291H338.199V101.54ZM338.199 98.5836V92.8326H332.448V98.5836H338.199ZM355.56 98.5836H361.311V92.8326H355.56V98.5836ZM355.56 101.54V107.291H361.311V101.54H355.56ZM335.102 116.742H340.853V83.8971H335.102H329.351V116.742H335.102ZM335.102 83.8971V89.6481H357.624V83.8971V78.1461H335.102V83.8971ZM357.624 83.8971H351.873V86.9001H357.624H363.375V83.8971H357.624ZM357.624 86.9001V81.1491H338.574V86.9001V92.6511H357.624V86.9001ZM338.574 86.9001H332.823V113.739H338.574H344.325V86.9001H338.574ZM338.574 113.739V119.49H358.328V113.739V107.988H338.574V113.739ZM358.328 113.739H352.577V116.742H358.328H364.079V113.739H358.328ZM358.328 116.742V110.991H335.102V116.742V122.493H358.328V116.742ZM338.199 101.54H343.95V98.5836H338.199H332.448V101.54H338.199ZM338.199 98.5836V104.335H355.56V98.5836V92.8326H338.199V98.5836ZM355.56 98.5836H349.809V101.54H355.56H361.311V98.5836H355.56ZM355.56 101.54V95.7886H338.199V101.54V107.291H355.56V101.54ZM366.49 116.742H360.739V122.493H366.49V116.742ZM366.49 83.8971V78.1461H360.739V83.8971H366.49ZM369.962 83.8971H375.713V78.1461H369.962V83.8971ZM369.962 113.739H364.211V119.49H369.962V113.739ZM388.355 113.739H394.106V107.988H388.355V113.739ZM388.355 116.742V122.493H394.106V116.742H388.355ZM366.49 116.742H372.241V83.8971H366.49H360.739V116.742H366.49ZM366.49 83.8971V89.6481H369.962V83.8971V78.1461H366.49V83.8971ZM369.962 83.8971H364.211V113.739H369.962H375.713V83.8971H369.962ZM369.962 113.739V119.49H388.355V113.739V107.988H369.962V113.739ZM388.355 113.739H382.604V116.742H388.355H394.106V113.739H388.355ZM388.355 116.742V110.991H366.49V116.742V122.493H388.355V116.742ZM394.12 116.742H388.369V122.493H394.12V116.742ZM394.12 83.8971V78.1461H388.369V83.8971H394.12ZM416.643 83.8971H422.394V78.1461H416.643V83.8971ZM416.643 86.9001V92.6511H422.394V86.9001H416.643ZM397.592 86.9001V81.1491H391.841V86.9001H397.592ZM397.592 113.739H391.841V119.49H397.592V113.739ZM417.346 113.739H423.097V107.988H417.346V113.739ZM417.346 116.742V122.493H423.097V116.742H417.346ZM397.217 101.54H391.466V107.291H397.217V101.54ZM397.217 98.5836V92.8326H391.466V98.5836H397.217ZM414.578 98.5836H420.329V92.8326H414.578V98.5836ZM414.578 101.54V107.291H420.329V101.54H414.578ZM394.12 116.742H399.871V83.8971H394.12H388.369V116.742H394.12ZM394.12 83.8971V89.6481H416.643V83.8971V78.1461H394.12V83.8971ZM416.643 83.8971H410.892V86.9001H416.643H422.394V83.8971H416.643ZM416.643 86.9001V81.1491H397.592V86.9001V92.6511H416.643V86.9001ZM397.592 86.9001H391.841V113.739H397.592H403.343V86.9001H397.592ZM397.592 113.739V119.49H417.346V113.739V107.988H397.592V113.739ZM417.346 113.739H411.595V116.742H417.346H423.097V113.739H417.346ZM417.346 116.742V110.991H394.12V116.742V122.493H417.346V116.742ZM397.217 101.54H402.968V98.5836H397.217H391.466V101.54H397.217ZM397.217 98.5836V104.335H414.578V98.5836V92.8326H397.217V98.5836ZM414.578 98.5836H408.827V101.54H414.578H420.329V98.5836H414.578ZM414.578 101.54V95.7886H397.217V101.54V107.291H414.578V101.54ZM425.508 116.742H419.757V122.493H425.508V116.742ZM425.508 83.8971V78.1461H419.757V83.8971H425.508ZM428.37 83.8971L433.332 80.9892L431.666 78.1461H428.37V83.8971ZM443.385 109.516V115.267H453.422L448.347 106.608L443.385 109.516ZM441.884 109.516L436.91 106.629L431.895 115.267H441.884V109.516ZM456.758 83.8971V78.1461H453.447L451.784 81.0096L456.758 83.8971ZM459.62 83.8971H465.371V78.1461H459.62V83.8971ZM459.62 116.742V122.493H465.371V116.742H459.62ZM456.289 116.742H450.538V122.493H456.289V116.742ZM456.289 89.1054V83.3544H450.538V89.1054H456.289ZM457.086 89.1054L462.053 92.0056L467.105 83.3544H457.086V89.1054ZM443.385 112.566V118.317H446.687L448.351 115.466L443.385 112.566ZM441.743 112.566L436.786 115.481L438.453 118.317H441.743V112.566ZM427.948 89.1054V83.3544H417.895L422.991 92.0204L427.948 89.1054ZM428.84 89.1054H434.591V83.3544H428.84V89.1054ZM428.84 116.742V122.493H434.591V116.742H428.84ZM425.508 116.742H431.259V83.8971H425.508H419.757V116.742H425.508ZM425.508 83.8971V89.6481H428.37V83.8971V78.1461H425.508V83.8971ZM428.37 83.8971L423.409 86.805L438.424 112.424L443.385 109.516L448.347 106.608L433.332 80.9892L428.37 83.8971ZM443.385 109.516V103.765H441.884V109.516V115.267H443.385V109.516ZM441.884 109.516L446.857 112.404L461.731 86.7847L456.758 83.8971L451.784 81.0096L436.91 106.629L441.884 109.516ZM456.758 83.8971V89.6481H459.62V83.8971V78.1461H456.758V83.8971ZM459.62 83.8971H453.869V116.742H459.62H465.371V83.8971H459.62ZM459.62 116.742V110.991H456.289V116.742V122.493H459.62V116.742ZM456.289 116.742H462.04V89.1054H456.289H450.538V116.742H456.289ZM456.289 89.1054V94.8564H457.086V89.1054V83.3544H456.289V89.1054ZM457.086 89.1054L452.12 86.2052L438.419 109.666L443.385 112.566L448.351 115.466L462.053 92.0056L457.086 89.1054ZM443.385 112.566V106.815H441.743V112.566V118.317H443.385V112.566ZM441.743 112.566L446.701 109.651L432.906 86.1904L427.948 89.1054L422.991 92.0204L436.786 115.481L441.743 112.566ZM427.948 89.1054V94.8564H428.84V89.1054V83.3544H427.948V89.1054ZM428.84 89.1054H423.089V116.742H428.84H434.591V89.1054H428.84ZM428.84 116.742V110.991H425.508V116.742V122.493H428.84V116.742ZM470.322 116.742H464.571V122.493H470.322V116.742ZM470.322 83.8971V78.1461H464.571V83.8971H470.322ZM492.844 83.8971H498.595V78.1461H492.844V83.8971ZM492.844 86.9001V92.6511H498.595V86.9001H492.844ZM473.794 86.9001V81.1491H468.043V86.9001H473.794ZM473.794 113.739H468.043V119.49H473.794V113.739ZM493.548 113.739H499.299V107.988H493.548V113.739ZM493.548 116.742V122.493H499.299V116.742H493.548ZM473.419 101.54H467.668V107.291H473.419V101.54ZM473.419 98.5836V92.8326H467.668V98.5836H473.419ZM490.78 98.5836H496.531V92.8326H490.78V98.5836ZM490.78 101.54V107.291H496.531V101.54H490.78ZM470.322 116.742H476.073V83.8971H470.322H464.571V116.742H470.322ZM470.322 83.8971V89.6481H492.844V83.8971V78.1461H470.322V83.8971ZM492.844 83.8971H487.093V86.9001H492.844H498.595V83.8971H492.844ZM492.844 86.9001V81.1491H473.794V86.9001V92.6511H492.844V86.9001ZM473.794 86.9001H468.043V113.739H473.794H479.545V86.9001H473.794ZM473.794 113.739V119.49H493.548V113.739V107.988H473.794V113.739ZM493.548 113.739H487.797V116.742H493.548H499.299V113.739H493.548ZM493.548 116.742V110.991H470.322V116.742V122.493H493.548V116.742ZM473.419 101.54H479.17V98.5836H473.419H467.668V101.54H473.419ZM473.419 98.5836V104.335H490.78V98.5836V92.8326H473.419V98.5836ZM490.78 98.5836H485.029V101.54H490.78H496.531V98.5836H490.78ZM490.78 101.54V95.7886H473.419V101.54V107.291H490.78V101.54ZM501.71 116.742H495.959V122.493H501.71V116.742ZM501.71 83.8971V78.1461H495.959V83.8971H501.71ZM524.279 86.0086L521.563 91.078L521.599 91.0972L521.635 91.1159L524.279 86.0086ZM530.473 91.7799L535.415 88.8395V88.8395L530.473 91.7799ZM530.473 108.859L535.415 111.8V111.8L530.473 108.859ZM524.279 114.678L526.948 119.772L526.959 119.766L526.97 119.76L524.279 114.678ZM505.182 113.739H499.431V119.49H505.182V113.739ZM522.449 112.05L525.14 117.133L525.154 117.126L525.167 117.118L522.449 112.05ZM527.47 107.311L532.415 110.247L532.425 110.23L532.435 110.213L527.47 107.311ZM527.47 93.3283L532.415 90.3922V90.3922L527.47 93.3283ZM522.449 88.6362L519.701 93.6878L519.745 93.7117L519.789 93.7349L522.449 88.6362ZM505.182 86.9001V81.1491H499.431V86.9001H505.182ZM501.71 116.742H507.461V83.8971H501.71H495.959V116.742H501.71ZM501.71 83.8971V89.6481H515.083V83.8971V78.1461H501.71V83.8971ZM515.083 83.8971V89.6481C517.805 89.6481 519.906 90.1902 521.563 91.078L524.279 86.0086L526.995 80.9392C523.397 79.0116 519.367 78.1461 515.083 78.1461V83.8971ZM524.279 86.0086L521.635 91.1159C523.382 92.02 524.632 93.211 525.53 94.7204L530.473 91.7799L535.415 88.8395C533.373 85.4065 530.494 82.7499 526.923 80.9013L524.279 86.0086ZM530.473 91.7799L525.53 94.7204C526.41 96.1983 526.927 98.005 526.927 100.32H532.678H538.429C538.429 96.1904 537.476 92.304 535.415 88.8395L530.473 91.7799ZM532.678 100.32H526.927C526.927 102.634 526.41 104.441 525.53 105.919L530.473 108.859L535.415 111.8C537.476 108.335 538.429 104.449 538.429 100.32H532.678ZM530.473 108.859L525.53 105.919C524.625 107.44 523.359 108.657 521.588 109.595L524.279 114.678L526.97 119.76C530.517 117.883 533.38 115.221 535.415 111.8L530.473 108.859ZM524.279 114.678L521.611 109.583C519.943 110.457 517.825 110.991 515.083 110.991V116.742V122.493C519.348 122.493 523.36 121.651 526.948 119.772L524.279 114.678ZM515.083 116.742V110.991H501.71V116.742V122.493H515.083V116.742ZM505.182 113.739V119.49H514.895V113.739V107.988H505.182V113.739ZM514.895 113.739V119.49C518.548 119.49 522.028 118.78 525.14 117.133L522.449 112.05L519.758 106.967C518.616 107.572 517.06 107.988 514.895 107.988V113.739ZM522.449 112.05L525.167 117.118C528.198 115.493 530.663 113.197 532.415 110.247L527.47 107.311L522.525 104.375C521.899 105.429 521.017 106.292 519.731 106.982L522.449 112.05ZM527.47 107.311L532.435 110.213C534.196 107.201 535.004 103.847 535.004 100.32H529.253H523.502C523.502 102.048 523.121 103.355 522.505 104.408L527.47 107.311ZM529.253 100.32H535.004C535.004 96.7769 534.202 93.403 532.415 90.3922L527.47 93.3283L522.525 96.2644C523.115 97.2576 523.502 98.5446 523.502 100.32H529.253ZM527.47 93.3283L532.415 90.3922C530.655 87.428 528.17 85.1344 525.109 83.5375L522.449 88.6362L519.789 93.7349C521.045 94.3902 521.907 95.2247 522.525 96.2645L527.47 93.3283ZM522.449 88.6362L525.198 83.5846C522.073 81.8843 518.572 81.1491 514.895 81.1491V86.9001V92.6511C517.036 92.6511 518.571 93.0733 519.701 93.6878L522.449 88.6362ZM514.895 86.9001V81.1491H505.182V86.9001V92.6511H514.895V86.9001ZM505.182 86.9001H499.431V113.739H505.182H510.933V86.9001H505.182ZM540.475 116.742H534.724V122.493H540.475V116.742ZM540.475 83.8971V78.1461H534.724V83.8971H540.475ZM543.947 83.8971H549.698V78.1461H543.947V83.8971ZM543.947 116.742V122.493H549.698V116.742H543.947ZM540.475 116.742H546.226V83.8971H540.475H534.724V116.742H540.475ZM540.475 83.8971V89.6481H543.947V83.8971V78.1461H540.475V83.8971ZM543.947 83.8971H538.196V116.742H543.947H549.698V83.8971H543.947ZM543.947 116.742V110.991H540.475V116.742V122.493H543.947V116.742ZM562.048 115.804L559.898 121.138L559.932 121.152L559.967 121.165L562.048 115.804ZM556.605 112.285L552.58 116.393V116.393L556.605 112.285ZM552.992 106.983L547.681 109.189L547.695 109.223L547.71 109.258L552.992 106.983ZM552.992 93.6568L547.71 91.3816L547.695 91.416L547.681 91.4507L552.992 93.6568ZM556.605 88.3547L552.622 84.206L552.601 84.2261L552.58 84.2464L556.605 88.3547ZM562.095 84.8825L564.175 90.2439L564.21 90.2305L564.244 90.2166L562.095 84.8825ZM575.655 84.8356L573.574 90.197L573.609 90.2106L573.644 90.2237L575.655 84.8356ZM580.957 88.4016L585.024 92.4681L588.886 88.6058L585.228 84.5498L580.957 88.4016ZM578.752 90.6069L574.639 94.6264L578.705 98.787L582.818 94.6735L578.752 90.6069ZM574.294 87.6508L572.23 93.0185L572.275 93.0359L572.32 93.0525L574.294 87.6508ZM563.549 87.7447L565.634 93.1046L565.676 93.088L565.719 93.0706L563.549 87.7447ZM559.138 90.6069L563.153 94.7246L563.179 94.6992L563.205 94.6735L559.138 90.6069ZM556.182 94.9237L550.907 92.6342L550.896 92.6585L550.886 92.6829L556.182 94.9237ZM556.182 105.763L550.871 107.967L550.896 108.028L550.923 108.089L556.182 105.763ZM559.138 110.079L555.072 114.146L555.098 114.172L555.124 114.197L559.138 110.079ZM563.549 112.942L561.379 118.267L561.422 118.285L561.465 118.301L563.549 112.942ZM574.294 112.988L576.359 118.356V118.356L574.294 112.988ZM578.752 109.985L582.818 105.919L578.705 101.805L574.639 105.966L578.752 109.985ZM580.957 112.191L585.228 116.043L588.886 111.987L585.024 108.124L580.957 112.191ZM575.655 115.804L577.735 121.165V121.165L575.655 115.804ZM568.898 117.024V111.273C567.068 111.273 565.498 110.974 564.128 110.442L562.048 115.804L559.967 121.165C562.789 122.26 565.786 122.775 568.898 122.775V117.024ZM562.048 115.804L564.197 110.47C562.763 109.892 561.595 109.123 560.629 108.176L556.605 112.285L552.58 116.393C554.68 118.45 557.141 120.027 559.898 121.138L562.048 115.804ZM556.605 112.285L560.629 108.176C559.648 107.215 558.863 106.076 558.274 104.707L552.992 106.983L547.71 109.258C548.872 111.956 550.496 114.351 552.58 116.393L556.605 112.285ZM552.992 106.983L558.303 104.776C557.775 103.506 557.476 102.043 557.476 100.32H551.725H545.974C545.974 103.414 546.519 106.393 547.681 109.189L552.992 106.983ZM551.725 100.32H557.476C557.476 98.5966 557.775 97.1338 558.303 95.8629L552.992 93.6568L547.681 91.4507C546.519 94.2464 545.974 97.2254 545.974 100.32H551.725ZM552.992 93.6568L558.274 95.932C558.863 94.5634 559.648 93.4243 560.629 92.4629L556.605 88.3547L552.58 84.2464C550.496 86.288 548.872 88.6836 547.71 91.3816L552.992 93.6568ZM556.605 88.3547L560.587 92.5033C561.583 91.5472 562.761 90.7929 564.175 90.2439L562.095 84.8825L560.014 79.521C557.237 80.5987 554.754 82.1592 552.622 84.206L556.605 88.3547ZM562.095 84.8825L564.244 90.2166C565.595 89.6721 567.141 89.3666 568.945 89.3666V83.6156V77.8646C565.807 77.8646 562.785 78.4037 559.945 79.5483L562.095 84.8825ZM568.945 83.6156V89.3666C570.652 89.3666 572.179 89.6557 573.574 90.197L575.655 84.8356L577.735 79.4741C574.939 78.3888 571.993 77.8646 568.945 77.8646V83.6156ZM575.655 84.8356L573.644 90.2237C574.911 90.6964 575.892 91.373 576.686 92.2534L580.957 88.4016L585.228 84.5498C583.144 82.2395 580.59 80.5388 577.665 79.4474L575.655 84.8356ZM580.957 88.4016L576.89 84.335L574.685 86.5403L578.752 90.6069L582.818 94.6735L585.024 92.4681L580.957 88.4016ZM578.752 90.6069L582.865 86.5873C580.986 84.6652 578.788 83.17 576.268 82.2491L574.294 87.6508L572.32 93.0525C573.054 93.3204 573.827 93.7958 574.639 94.6264L578.752 90.6069ZM574.294 87.6508L576.359 82.2832C574.024 81.3853 571.567 80.9614 569.039 80.9614V86.7124V92.4634C570.265 92.4634 571.311 92.6652 572.23 93.0185L574.294 87.6508ZM569.039 86.7124V80.9614C566.385 80.9614 563.811 81.428 561.379 82.4187L563.549 87.7447L565.719 93.0706C566.665 92.685 567.752 92.4634 569.039 92.4634V86.7124ZM563.549 87.7447L561.465 82.3847C559.051 83.3235 556.901 84.7113 555.072 86.5403L559.138 90.6069L563.205 94.6735C563.879 94 564.669 93.4797 565.634 93.1046L563.549 87.7447ZM559.138 90.6069L555.124 86.4892C553.319 88.2488 551.913 90.3147 550.907 92.6342L556.182 94.9237L561.458 97.2131C561.89 96.2169 562.455 95.405 563.153 94.7246L559.138 90.6069ZM556.182 94.9237L550.886 92.6829C549.865 95.0963 549.399 97.6683 549.399 100.32H555.15H560.901C560.901 99.0296 561.124 98.0043 561.479 97.1645L556.182 94.9237ZM555.15 100.32H549.399C549.399 102.973 549.865 105.545 550.871 107.967L556.182 105.763L561.494 103.558C561.123 102.664 560.901 101.608 560.901 100.32H555.15ZM556.182 105.763L550.923 108.089C551.928 110.361 553.316 112.39 555.072 114.146L559.138 110.079L563.205 106.013C562.458 105.266 561.876 104.418 561.442 103.436L556.182 105.763ZM559.138 110.079L555.124 114.197C556.929 115.958 559.034 117.312 561.379 118.267L563.549 112.942L565.719 107.616C564.686 107.195 563.85 106.641 563.153 105.962L559.138 110.079ZM563.549 112.942L561.465 118.301C563.874 119.239 566.418 119.678 569.039 119.678V113.927V108.176C567.719 108.176 566.602 107.958 565.634 107.582L563.549 112.942ZM569.039 113.927V119.678C571.567 119.678 574.024 119.254 576.359 118.356L574.294 112.988L572.23 107.621C571.311 107.974 570.265 108.176 569.039 108.176V113.927ZM574.294 112.988L576.359 118.356C578.834 117.404 581.002 115.911 582.865 114.005L578.752 109.985L574.639 105.966C573.811 106.813 573.007 107.322 572.23 107.621L574.294 112.988ZM578.752 109.985L574.685 114.052L576.89 116.257L580.957 112.191L585.024 108.124L582.818 105.919L578.752 109.985ZM580.957 112.191L576.686 108.339C575.878 109.236 574.872 109.939 573.574 110.442L575.655 115.804L577.735 121.165C580.629 120.042 583.158 118.337 585.228 116.043L580.957 112.191ZM575.655 115.804L573.574 110.442C572.188 110.98 570.646 111.273 568.898 111.273V117.024V122.775C571.967 122.775 574.93 122.254 577.735 121.165L575.655 115.804ZM587.901 116.742H582.15V122.493H587.901V116.742ZM587.901 83.8971V78.1461H582.15V83.8971H587.901ZM591.373 83.8971H597.124V78.1461H591.373V83.8971ZM591.373 116.742V122.493H597.124V116.742H591.373ZM587.901 116.742H593.652V83.8971H587.901H582.15V116.742H587.901ZM587.901 83.8971V89.6481H591.373V83.8971V78.1461H587.901V83.8971ZM591.373 83.8971H585.622V116.742H591.373H597.124V83.8971H591.373ZM591.373 116.742V110.991H587.901V116.742V122.493H591.373V116.742ZM602.06 116.742H596.309V122.493H602.06V116.742ZM602.06 83.8971V78.1461H596.309V83.8971H602.06ZM604.922 83.8971L609.425 80.3199L607.698 78.1461H604.922V83.8971ZM627.585 112.425V118.176H639.498L632.088 108.848L627.585 112.425ZM626.083 112.425H620.332V118.176H626.083V112.425ZM626.083 83.8971V78.1461H620.332V83.8971H626.083ZM629.509 83.8971H635.26V78.1461H629.509V83.8971ZM629.509 116.742V122.493H635.26V116.742H629.509ZM626.647 116.742L622.14 120.315L623.867 122.493H626.647V116.742ZM604.03 88.2139V82.4629H592.132L599.524 91.7866L604.03 88.2139ZM605.532 88.2139H611.283V82.4629H605.532V88.2139ZM605.532 116.742V122.493H611.283V116.742H605.532ZM602.06 116.742H607.811V83.8971H602.06H596.309V116.742H602.06ZM602.06 83.8971V89.6481H604.922V83.8971V78.1461H602.06V83.8971ZM604.922 83.8971L600.419 87.4744L623.082 116.003L627.585 112.425L632.088 108.848L609.425 80.3199L604.922 83.8971ZM627.585 112.425V106.674H626.083V112.425V118.176H627.585V112.425ZM626.083 112.425H631.834V83.8971H626.083H620.332V112.425H626.083ZM626.083 83.8971V89.6481H629.509V83.8971V78.1461H626.083V83.8971ZM629.509 83.8971H623.758V116.742H629.509H635.26V83.8971H629.509ZM629.509 116.742V110.991H626.647V116.742V122.493H629.509V116.742ZM626.647 116.742L631.153 113.169L608.537 84.6412L604.03 88.2139L599.524 91.7866L622.14 120.315L626.647 116.742ZM604.03 88.2139V93.9649H605.532V88.2139V82.4629H604.03V88.2139ZM605.532 88.2139H599.781V116.742H605.532H611.283V88.2139H605.532ZM605.532 116.742V110.991H602.06V116.742V122.493H605.532V116.742ZM634.974 116.742L629.744 114.351L626.022 122.493H634.974V116.742ZM649.989 83.8971V78.1461H646.294L644.758 81.5061L649.989 83.8971ZM653.414 83.8971L658.645 81.5061L657.109 78.1461H653.414V83.8971ZM668.429 116.742V122.493H677.381L673.659 114.351L668.429 116.742ZM664.769 116.742L659.52 119.091L661.042 122.493H664.769V116.742ZM650.974 85.9147V80.1638H642.1L645.725 88.2638L650.974 85.9147ZM652.382 85.9147L657.631 88.2638L661.256 80.1638H652.382V85.9147ZM638.587 116.742V122.493H642.314L643.836 119.091L638.587 116.742ZM640.886 107.968L635.487 105.988L632.652 113.719H640.886V107.968ZM641.918 105.153V99.4016H637.902L636.519 103.173L641.918 105.153ZM661.015 105.153L666.415 103.173L665.032 99.4016H661.015V105.153ZM662.048 107.968V113.719H670.282L667.447 105.988L662.048 107.968ZM634.974 116.742L640.204 119.133L655.219 86.2881L649.989 83.8971L644.758 81.5061L629.744 114.351L634.974 116.742ZM649.989 83.8971V89.6481H653.414V83.8971V78.1461H649.989V83.8971ZM653.414 83.8971L648.184 86.2881L663.199 119.133L668.429 116.742L673.659 114.351L658.645 81.5061L653.414 83.8971ZM668.429 116.742V110.991H664.769V116.742V122.493H668.429V116.742ZM664.769 116.742L670.018 114.393L656.224 83.5657L650.974 85.9147L645.725 88.2638L659.52 119.091L664.769 116.742ZM650.974 85.9147V91.6657H652.382V85.9147V80.1638H650.974V85.9147ZM652.382 85.9147L647.132 83.5657L633.338 114.393L638.587 116.742L643.836 119.091L657.631 88.2638L652.382 85.9147ZM638.587 116.742V110.991H634.974V116.742V122.493H638.587V116.742ZM640.886 107.968L646.286 109.948L647.318 107.132L641.918 105.153L636.519 103.173L635.487 105.988L640.886 107.968ZM641.918 105.153V110.904H661.015V105.153V99.4016H641.918V105.153ZM661.015 105.153L655.616 107.132L656.648 109.948L662.048 107.968L667.447 105.988L666.415 103.173L661.015 105.153ZM662.048 107.968V102.217H640.886V107.968V113.719H662.048V107.968Z" fill="white" mask="url(#path-10-inside-1_469_153)"/>
</svg>
