<svg width="185" height="183" viewBox="0 0 185 183" fill="none" xmlns="http://www.w3.org/2000/svg">
<g clip-path="url(#clip0_469_206)">
<path d="M11.4533 168.18V138.248H24.1575C24.7563 138.248 25.3767 138.326 26.0158 138.475C26.6549 138.627 27.2816 138.834 27.8959 139.095C28.5101 139.359 29.081 139.666 29.6115 140.026C30.142 140.386 30.598 140.783 30.9796 141.223C31.687 141.996 32.2175 142.855 32.5711 143.807C32.9248 144.76 33.1016 145.731 33.1016 146.724C33.1016 147.881 32.8566 148.998 32.3664 150.071C31.8762 151.145 31.1689 152.082 30.2413 152.882C30.84 153.214 31.3922 153.642 31.8948 154.163C32.3974 154.688 32.8348 155.252 33.2009 155.857C33.5701 156.462 33.8462 157.104 34.0386 157.781C34.2278 158.457 34.324 159.111 34.324 159.744C34.324 160.902 34.1006 161.99 33.6508 163.011C33.2009 164.032 32.5742 164.919 31.7707 165.679C30.9672 166.439 30.0334 167.044 28.9724 167.497C27.9114 167.953 26.7666 168.18 25.5412 168.18H11.4502H11.4533ZM20.0314 155.78V161.773H22.2775C23.1772 161.773 23.9372 161.479 24.5639 160.892C25.1906 160.303 25.5039 159.599 25.5039 158.776C25.5039 157.954 25.1906 157.25 24.5639 156.664C23.9372 156.074 23.1741 155.78 22.2775 155.78H20.0314ZM20.2764 144.658V150.031H22.0324C22.8204 150.031 23.5029 149.764 24.0737 149.23C24.6446 148.697 24.93 148.061 24.93 147.322C24.93 146.584 24.6446 145.954 24.0737 145.436C23.5029 144.915 22.8204 144.658 22.0324 144.658H20.2764Z" fill="white"/>
<path d="M35.3926 138.208H48.2178V145.939H46.0927V160.449H48.2178V168.18H35.3926V160.449H37.5177V145.939H35.3926V138.208Z" fill="white"/>
<path d="M64.6355 159.5V168.18H49.8496V138.208H58.4277V159.5H64.6355Z" fill="white"/>
<path d="M81.1345 159.5V168.18H66.3486V138.208H74.9267V159.5H81.1345Z" fill="white"/>
<path d="M101.354 138.208L110.502 168.18H101.924L100.984 164.625H92.0402L91.1406 168.18H82.5625L91.7114 138.208H101.35H101.354ZM98.2078 156.233L96.5325 149.33L94.8169 156.233H98.2078Z" fill="white"/>
<path d="M136.358 162.105C136.249 162.269 136.097 162.471 135.908 162.704C135.719 162.939 135.52 163.166 135.315 163.386C135.11 163.606 134.906 163.82 134.701 164.028C134.496 164.236 134.326 164.394 134.189 164.503C132.691 165.8 131.043 166.777 129.247 167.438C127.451 168.099 125.611 168.431 123.734 168.431C121.665 168.431 119.608 167.99 117.567 167.109C115.525 166.228 113.741 164.987 112.215 163.389C110.909 161.928 109.913 160.309 109.234 158.531C108.554 156.753 108.213 154.954 108.213 153.136C108.213 151.042 108.647 149.01 109.519 147.037C110.391 145.067 111.657 143.336 113.316 141.849C114.787 140.556 116.412 139.575 118.196 138.915C119.98 138.254 121.783 137.922 123.607 137.922C125.757 137.922 127.848 138.35 129.877 139.203C131.906 140.056 133.696 141.353 135.247 143.09L128.794 148.796C128.087 148.023 127.283 147.452 126.383 147.08C125.484 146.708 124.572 146.522 123.647 146.522C122.012 146.522 120.514 147.086 119.155 148.216C118.448 148.852 117.902 149.609 117.52 150.49C117.138 151.371 116.949 152.255 116.949 153.136C116.949 153.936 117.092 154.727 117.377 155.512C117.663 156.297 118.106 157.008 118.705 157.641C119.385 158.413 120.16 158.984 121.032 159.356C121.904 159.728 122.8 159.915 123.728 159.915C124.516 159.915 125.307 159.778 126.098 159.502C126.886 159.226 127.597 158.798 128.223 158.221C128.412 158.084 128.605 157.898 128.794 157.662C128.983 157.43 129.12 157.243 129.204 157.104L136.351 162.105H136.358Z" fill="white"/>
<path d="M159.927 138.208V168.18H151.349V157.474H146.326V168.18H137.748V138.208H146.326V148.79H151.349V138.208H159.927Z" fill="white"/>
<path d="M161.152 138.208H173.978V145.939H171.852V160.449H173.978V168.18H161.152V160.449H163.277V145.939H161.152V138.208Z" fill="white"/>
<path d="M44.6506 176.748H10.084L12.5752 173.608H47.1418L44.6506 176.748Z" fill="white"/>
<path d="M44.6506 181.269H10.084L12.5752 178.129H47.1418L44.6506 181.269Z" fill="white"/>
<path d="M172.098 176.748H137.531L140.026 173.608H174.592L172.098 176.748Z" fill="white"/>
<path d="M172.098 181.269H137.531L140.026 178.129H174.592L172.098 181.269Z" fill="white"/>
<path d="M59.739 173.533V174.346C59.739 174.43 59.6956 174.473 59.6118 174.473H57.1764C57.1423 174.473 57.1268 174.492 57.1268 174.523V182.158C57.1268 182.242 57.0834 182.285 56.9996 182.285H56.0348C55.951 182.285 55.9076 182.245 55.9076 182.158V174.523C55.9076 174.489 55.8921 174.473 55.8579 174.473H53.5374C53.4536 174.473 53.4102 174.433 53.4102 174.346V173.533C53.4102 173.45 53.4536 173.406 53.5374 173.406H59.6118C59.6956 173.406 59.739 173.45 59.739 173.533Z" fill="white"/>
<path d="M68.7055 182.198L66.931 178.404C66.9217 178.379 66.9061 178.367 66.8813 178.367H65.054C65.0199 178.367 65.0044 178.386 65.0044 178.417V182.158C65.0044 182.242 64.961 182.285 64.8772 182.285H63.9123C63.8286 182.285 63.7852 182.245 63.7852 182.158V173.533C63.7852 173.45 63.8286 173.406 63.9123 173.406H67.325C67.8337 173.406 68.2774 173.512 68.6621 173.723C69.0468 173.934 69.3446 174.231 69.5556 174.61C69.7665 174.992 69.872 175.429 69.872 175.928C69.872 176.521 69.7169 177.021 69.4098 177.43C69.1026 177.84 68.6714 178.119 68.1223 178.261C68.0881 178.28 68.0788 178.299 68.0975 178.324L69.9372 182.13C69.9465 182.146 69.9496 182.167 69.9496 182.192C69.9496 182.251 69.9154 182.279 69.8472 182.279H68.8451C68.7769 182.279 68.7303 182.251 68.7055 182.192V182.198ZM65.0044 174.511V177.352C65.0044 177.387 65.0199 177.402 65.054 177.402H67.1729C67.6197 177.402 67.9796 177.269 68.2526 177.002C68.5225 176.735 68.659 176.381 68.659 175.944C68.659 175.507 68.5225 175.137 68.2526 174.867C67.9827 174.598 67.6228 174.461 67.1729 174.461H65.054C65.0199 174.461 65.0044 174.48 65.0044 174.511Z" fill="white"/>
<path d="M79.702 182.186L79.246 180.703C79.2367 180.678 79.2212 180.666 79.1963 180.666H75.6317C75.6069 180.666 75.5883 180.678 75.5821 180.703L75.126 182.186C75.1012 182.254 75.0485 182.288 74.974 182.288H73.9471C73.8541 182.288 73.8199 182.242 73.8448 182.149L76.6214 173.512C76.6462 173.443 76.6989 173.409 76.7734 173.409H78.0423C78.1198 173.409 78.1695 173.443 78.1943 173.512L80.9988 182.149L81.0112 182.198C81.0112 182.257 80.974 182.285 80.8964 182.285H79.8571C79.7796 182.285 79.73 182.251 79.7051 182.183L79.702 182.186ZM75.9047 179.679C75.9047 179.679 75.9326 179.698 75.9482 179.698H78.8644C78.8799 179.698 78.8954 179.691 78.9078 179.679C78.9202 179.667 78.9233 179.651 78.914 179.636L77.4435 174.929C77.4342 174.911 77.4218 174.905 77.4063 174.905C77.3908 174.905 77.3753 174.914 77.369 174.929L75.8985 179.636C75.8892 179.651 75.8923 179.667 75.9047 179.679Z" fill="white"/>
<path d="M89.8493 173.533V174.346C89.8493 174.43 89.8059 174.473 89.7221 174.473H87.2868C87.2527 174.473 87.2372 174.492 87.2372 174.523V182.158C87.2372 182.242 87.1937 182.285 87.11 182.285H86.1451C86.0613 182.285 86.0179 182.245 86.0179 182.158V174.523C86.0179 174.489 86.0024 174.473 85.9683 174.473H83.6477C83.5639 174.473 83.5205 174.433 83.5205 174.346V173.533C83.5205 173.45 83.5639 173.406 83.6477 173.406H89.7221C89.8059 173.406 89.8493 173.45 89.8493 173.533Z" fill="white"/>
<path d="M94.6303 182.018C94.1556 181.764 93.7895 181.407 93.5258 180.948C93.2621 180.488 93.1318 179.958 93.1318 179.356V176.337C93.1318 175.736 93.2621 175.208 93.5258 174.752C93.7864 174.296 94.1556 173.939 94.6303 173.688C95.1049 173.434 95.6479 173.31 96.2652 173.31C96.8826 173.31 97.441 173.437 97.9157 173.688C98.3904 173.942 98.7564 174.296 99.0201 174.752C99.2807 175.208 99.4141 175.739 99.4141 176.337V179.356C99.4141 179.958 99.2838 180.488 99.0201 180.948C98.7595 181.41 98.3904 181.767 97.9157 182.018C97.441 182.272 96.8919 182.4 96.2652 182.4C95.6385 182.4 95.1018 182.272 94.6303 182.018ZM97.6644 180.814C98.0181 180.461 98.198 179.989 98.198 179.406V176.325C98.198 175.733 98.0212 175.258 97.6644 174.898C97.3076 174.538 96.8454 174.358 96.2683 174.358C95.6913 174.358 95.229 174.538 94.8785 174.898C94.5279 175.258 94.3511 175.733 94.3511 176.325V179.406C94.3511 179.989 94.5279 180.457 94.8785 180.814C95.229 181.168 95.6913 181.348 96.2683 181.348C96.8454 181.348 97.3076 181.171 97.6644 180.814Z" fill="white"/>
<path d="M108.724 182.198L106.95 178.404C106.94 178.379 106.925 178.367 106.9 178.367H105.073C105.038 178.367 105.023 178.386 105.023 178.417V182.158C105.023 182.242 104.98 182.285 104.896 182.285H103.931C103.847 182.285 103.804 182.245 103.804 182.158V173.533C103.804 173.45 103.847 173.406 103.931 173.406H107.344C107.852 173.406 108.296 173.512 108.681 173.723C109.065 173.934 109.363 174.231 109.574 174.61C109.785 174.992 109.891 175.429 109.891 175.928C109.891 176.521 109.735 177.021 109.428 177.43C109.121 177.84 108.69 178.119 108.141 178.261C108.107 178.28 108.097 178.299 108.116 178.324L109.956 182.13C109.965 182.146 109.968 182.167 109.968 182.192C109.968 182.251 109.934 182.279 109.866 182.279H108.864C108.795 182.279 108.749 182.251 108.724 182.192V182.198ZM105.02 174.511V177.352C105.02 177.387 105.035 177.402 105.069 177.402H107.188C107.635 177.402 107.995 177.269 108.268 177.002C108.538 176.735 108.674 176.381 108.674 175.944C108.674 175.507 108.538 175.137 108.268 174.867C107.998 174.598 107.638 174.461 107.188 174.461H105.069C105.035 174.461 105.02 174.48 105.02 174.511Z" fill="white"/>
<path d="M119.889 174.461H115.387C115.353 174.461 115.337 174.48 115.337 174.511V177.238C115.337 177.272 115.353 177.287 115.387 177.287H118.483C118.567 177.287 118.61 177.331 118.61 177.415V178.215C118.61 178.299 118.567 178.342 118.483 178.342H115.387C115.353 178.342 115.337 178.358 115.337 178.392V181.181C115.337 181.215 115.353 181.23 115.387 181.23H119.889C119.972 181.23 120.016 181.274 120.016 181.358V182.158C120.016 182.242 119.972 182.285 119.889 182.285H114.245C114.162 182.285 114.118 182.245 114.118 182.158V173.533C114.118 173.45 114.162 173.406 114.245 173.406H119.889C119.972 173.406 120.016 173.45 120.016 173.533V174.334C120.016 174.418 119.972 174.461 119.889 174.461Z" fill="white"/>
<path d="M125.283 182.083C124.805 181.882 124.436 181.593 124.179 181.221C123.921 180.849 123.791 180.414 123.791 179.915V179.546C123.791 179.462 123.834 179.418 123.918 179.418H124.843C124.926 179.418 124.97 179.462 124.97 179.546V179.85C124.97 180.281 125.156 180.634 125.528 180.914C125.901 181.193 126.413 181.332 127.064 181.332C127.647 181.332 128.088 181.211 128.383 180.966C128.677 180.721 128.826 180.399 128.826 180.002C128.826 179.741 128.752 179.514 128.597 179.328C128.445 179.142 128.221 178.972 127.93 178.813C127.638 178.658 127.213 178.469 126.655 178.249C126.037 178.013 125.55 177.796 125.19 177.603C124.83 177.408 124.532 177.154 124.297 176.837C124.061 176.521 123.943 176.12 123.943 175.64C123.943 174.914 124.204 174.343 124.722 173.927C125.243 173.514 125.944 173.307 126.834 173.307C127.461 173.307 128.01 173.412 128.485 173.623C128.96 173.834 129.326 174.132 129.583 174.51C129.841 174.892 129.971 175.329 129.971 175.829V176.083C129.971 176.167 129.928 176.21 129.844 176.21H128.891C128.808 176.21 128.764 176.167 128.764 176.083V175.894C128.764 175.453 128.587 175.087 128.237 174.796C127.886 174.504 127.402 174.358 126.785 174.358C126.261 174.358 125.854 174.467 125.569 174.681C125.28 174.898 125.137 175.208 125.137 175.615C125.137 175.894 125.209 176.124 125.355 176.3C125.5 176.477 125.711 176.635 125.994 176.775C126.276 176.915 126.71 177.095 127.294 177.315C127.892 177.551 128.379 177.771 128.752 177.969C129.124 178.168 129.431 178.429 129.676 178.754C129.921 179.08 130.045 179.483 130.045 179.967C130.045 180.712 129.772 181.301 129.226 181.736C128.68 182.17 127.93 182.39 126.974 182.39C126.323 182.39 125.758 182.288 125.28 182.086L125.283 182.083Z" fill="white"/>
<path d="M135.517 130.234C134.77 129.365 134.01 128.571 133.352 127.696C131.481 125.214 130.166 122.437 129.108 119.53C128.481 117.809 127.712 116.136 127.163 114.393C126.741 113.047 126.449 111.635 126.297 110.233C125.853 106.156 126.161 102.111 127.079 98.1117C127.15 97.8077 127.256 97.5098 127.47 97.2182C127.47 99.0331 127.414 100.848 127.488 102.66C127.541 103.994 127.733 105.328 127.926 106.653C127.979 107.006 128.199 107.509 128.469 107.614C128.881 107.772 129.437 107.738 129.865 107.593C130.023 107.537 130.088 106.919 130.035 106.584C129.638 104.071 129.651 101.54 129.682 99.0114C129.713 96.3402 130.07 93.7001 130.436 91.0538C130.867 87.9514 131.925 85.0631 133.094 82.1965C133.305 81.6784 133.386 81.1045 133.544 80.4902C133.991 81.1883 134.422 81.8398 134.838 82.5037C135.483 83.5337 136.138 84.5605 136.74 85.6153C136.882 85.8666 136.91 86.2513 136.839 86.5368C136.606 87.4706 136.293 88.3827 136.029 89.3072C135.797 90.12 136.014 90.4706 136.73 90.6164C137.214 90.7156 137.413 90.4457 137.593 90.0859C138.226 88.8387 138.865 87.5947 139.501 86.3506C139.55 86.2513 139.619 86.1614 139.774 85.9101C139.774 87.0331 139.737 87.9887 139.789 88.938C139.817 89.4592 139.951 89.9866 140.106 90.4892C140.32 91.1717 140.782 91.2462 141.216 90.6691C141.446 90.3651 141.576 89.9897 141.796 89.5554C142.395 90.2286 143.068 90.8335 143.549 91.5657C144.368 92.8066 145.107 94.1065 145.786 95.4282C145.966 95.7787 145.842 96.2999 145.823 96.7404C145.712 99.1665 145.671 101.602 145.445 104.016C145.141 107.245 144.468 110.409 143.351 113.465C142.066 116.987 140.825 120.526 139.432 124.001C138.911 125.304 138.024 126.461 137.267 127.665C136.743 128.499 136.159 129.294 135.514 130.237L135.517 130.234Z" fill="white"/>
<path d="M51.9893 130.151C50.7701 128.215 49.4609 126.329 48.3689 124.325C47.6987 123.09 47.3637 121.676 46.8766 120.342C45.8373 117.509 44.7143 114.705 43.7835 111.838C42.8715 109.04 42.3254 106.145 42.1703 103.192C42.0524 100.964 42.0028 98.7304 41.8011 96.5091C41.6832 95.2185 42.3875 94.3405 42.9769 93.3664C43.0793 93.1989 43.1879 93.0375 43.2779 92.8638C43.9138 91.6446 45.0059 90.3106 45.9118 89.6436C46.0855 89.9848 46.2158 90.3602 46.4423 90.6642C46.8766 91.2413 47.3854 91.1792 47.5436 90.4905C47.7422 89.6373 47.8383 88.7532 47.919 87.8752C47.9749 87.2889 47.9283 86.6932 47.9283 86.0448C48.0152 86.1596 48.102 86.2434 48.1548 86.3457C48.7939 87.5898 49.433 88.8338 50.0658 90.0779C50.2458 90.4347 50.4412 90.7108 50.9283 90.6115C51.6263 90.4688 51.8404 90.1865 51.6636 89.4202C51.4867 88.657 51.3999 87.8194 51.0183 87.1648C50.3761 86.0603 51.0834 85.3375 51.5209 84.5246C51.7691 84.0624 52.1382 83.6684 52.4174 83.2216C52.979 82.3251 53.5188 81.4161 54.0834 80.4854C55.0234 83.2558 56.0286 85.9238 56.8135 88.6539C57.2634 90.2175 57.3999 91.8773 57.6015 93.4998C57.9614 96.3881 58.1072 99.2919 57.9676 102.199C57.8993 103.617 57.7442 105.031 57.6263 106.449C57.6201 106.508 57.6139 106.567 57.6139 106.626C57.6046 107.082 57.4092 107.634 58.1134 107.755C58.7463 107.864 59.5374 107.82 59.6491 106.989C59.8383 105.568 60.1082 104.147 60.1796 102.72C60.2726 100.896 60.2013 99.0624 60.2013 97.2351C60.2602 97.2258 60.3192 97.2164 60.3781 97.2071C60.6015 98.2185 60.8931 99.2237 61.0389 100.247C61.436 103.046 61.7556 105.863 61.4981 108.689C61.3399 110.414 61.0855 112.142 60.6915 113.827C60.4247 114.965 59.8073 116.017 59.4071 117.127C58.5322 119.56 57.7101 122.007 56.4722 124.291C55.4112 126.245 54.2013 128.088 52.6284 129.677C52.5043 129.804 52.3678 129.919 52.2313 130.033C52.191 130.067 52.132 130.083 51.9986 130.148L51.9893 130.151Z" fill="white"/>
<path d="M105.537 94.2631C105.404 94.108 105.299 93.9839 105.171 93.835C104.461 94.229 104.405 94.9829 104.129 95.5878C103.018 98.0077 102.392 100.592 101.588 103.117C100.912 105.249 100.065 107.324 99.2831 109.424C98.5788 111.317 97.8653 113.203 97.1518 115.092C96.9718 115.57 96.7888 116.048 96.6026 116.523C96.463 116.876 96.2086 117.059 95.8208 117.028C94.8002 116.945 93.7795 116.858 92.6099 116.762C92.7681 116.15 92.9077 115.586 93.0597 115.024C93.4972 113.42 93.8291 111.798 93.6957 110.122C93.674 109.837 93.553 109.561 93.5003 109.275C93.4165 108.804 93.37 108.323 93.2707 107.855C93.2273 107.647 93.1156 107.442 92.9884 107.271C92.9015 107.157 92.7278 107.107 92.5975 107.02C91.8963 106.549 91.8901 106.654 91.3938 107.299C90.1807 108.878 90.1807 110.755 89.9263 112.57C89.7464 113.87 89.6378 115.179 89.492 116.544C88.3007 116.448 87.0411 116.318 85.9119 115.654C85.7505 115.558 85.6389 115.279 85.6109 115.068C85.4651 114.013 85.3845 112.946 85.2262 111.894C85.0804 110.92 84.8478 109.958 84.6771 108.987C84.4382 107.628 84.1869 106.272 84.007 104.904C83.734 102.857 83.5168 100.8 83.2748 98.746C83.2624 98.6282 83.2469 98.5134 83.2345 98.3986C83.8395 98.1256 83.9636 97.8153 83.7402 97.0211C83.4269 95.9074 83.129 94.7905 82.7568 93.6985C82.1673 91.9705 81.4848 90.2766 80.9046 88.5455C80.3183 86.7957 79.7723 85.0274 79.2759 83.2497C78.8509 81.7326 78.491 80.1939 78.1528 78.6551C77.8302 77.1939 77.551 75.7234 77.2935 74.2466C77.0422 72.8071 76.8064 71.3645 76.6296 69.9157C76.4589 68.5041 76.3255 67.0864 76.2635 65.6686C76.158 63.2611 76.0773 60.8506 76.0649 58.44C76.0556 56.864 76.1828 55.288 76.2542 53.712C76.2573 53.6252 76.3038 53.5414 76.3876 53.2715C77.1322 54.953 77.8209 56.47 78.4755 58.0026C78.8229 58.8154 79.0929 59.6624 79.4155 60.4876C79.5613 60.8599 79.5458 61.0926 79.1611 61.3656C78.2025 62.0481 77.9543 63.1432 77.7588 64.2104C77.3586 66.3914 77.6596 68.5072 78.5499 70.5269C78.7609 71.0077 79.0711 71.4607 79.4062 71.8702C79.915 72.4938 81.2831 72.6334 81.9532 72.1835C82.096 72.0874 82.2387 71.9881 82.5024 71.8113C82.6606 72.8847 82.8746 73.865 82.9336 74.8547C83.1383 78.227 83.25 81.6054 83.4796 84.9746C83.5913 86.6065 83.8705 88.2259 84.0939 89.8484C84.3421 91.6633 84.6151 93.4782 84.8726 95.2931C85.1921 97.5392 86.5075 99.2207 87.9656 100.834C88.7847 101.74 89.554 102.695 90.3917 103.586C90.8446 104.07 91.3813 104.482 91.9088 104.889C92.0484 104.994 92.402 105.044 92.4951 104.951C93.2179 104.24 94.251 104.278 95.0794 103.822C96.5189 103.027 98.0049 102.317 99.4382 101.51C100.133 101.119 100.509 100.446 100.729 99.6675C101.259 97.7905 101.796 95.9167 102.398 94.0615C102.711 93.0904 103.204 92.1814 103.549 91.2197C104.02 89.9043 104.377 88.5454 104.88 87.2425C105.547 85.5051 106.31 83.805 107.03 82.0894C107.393 81.227 107.725 80.349 108.128 79.5051C108.587 78.5496 109.102 77.6158 109.623 76.6913C109.688 76.5734 109.958 76.4586 110.07 76.502C110.846 76.8061 111.522 76.6696 112.161 76.1639C113.498 75.106 114.547 73.7782 115.36 72.3169C115.943 71.2714 116.371 70.0832 116.098 68.7958C116.067 68.6499 116.132 68.4359 116.231 68.3211C116.756 67.7099 117.361 67.1577 117.838 66.5124C118.477 65.65 119.027 64.7254 119.607 63.8227C119.796 63.5279 119.97 63.227 120.24 62.7803C120.261 63.0812 120.308 63.2456 120.28 63.3945C120.116 64.2601 119.973 65.1319 119.753 65.985C119.452 67.1422 119.216 68.3366 118.723 69.4131C118.037 70.9147 117.14 72.3169 116.34 73.7689C115.409 75.4627 114.503 77.1691 113.56 78.8536C112.512 80.7244 111.401 82.5641 110.368 84.4441C109.409 86.1876 108.485 87.9498 107.61 89.7368C106.946 91.0925 106.381 92.501 105.77 93.8815C105.717 94.0025 105.627 94.108 105.531 94.2569L105.537 94.2631Z" fill="white"/>
<path d="M157.668 109.696C157.634 108.977 157.879 108.226 157.439 107.568C157.364 107.556 157.29 107.543 157.215 107.531C157.107 107.925 156.955 108.313 156.899 108.713C156.663 110.379 156.229 111.986 155.596 113.549C155.326 114.216 155.264 114.967 154.981 115.628C154.65 116.401 154.193 117.126 153.762 117.856C152.127 120.623 149.866 122.807 147.331 124.743C146.425 125.435 145.578 126.21 144.635 127.004C144.309 126.629 143.897 126.241 143.602 125.779C143.478 125.584 143.509 125.186 143.627 124.963C145.06 122.177 145.817 119.165 146.59 116.162C147.281 113.472 147.973 110.782 148.584 108.074C148.91 106.634 149.065 105.158 149.295 103.699C149.32 103.547 149.338 103.395 149.354 103.296C149.689 103.253 149.971 103.197 150.253 103.181C150.716 103.153 151.19 103.2 151.643 103.119C151.972 103.06 152.301 102.883 152.58 102.685C153.654 101.931 154.079 100.737 154.606 99.6136C154.687 99.4398 154.755 99.263 154.829 99.0862C154.892 99.08 154.954 99.0707 155.016 99.0645C155.096 99.353 155.23 99.6353 155.245 99.9269C155.329 101.525 155.363 103.122 155.462 104.72C155.484 105.077 155.704 105.421 155.835 105.772C155.922 105.781 156.008 105.79 156.092 105.803C156.257 105.545 156.461 105.303 156.579 105.024C156.716 104.698 156.759 104.335 156.883 104.003C156.945 103.833 157.066 103.588 157.206 103.554C157.923 103.371 158.223 102.793 158.568 102.238C158.76 101.928 158.993 101.646 159.263 101.27C159.548 104.317 158.621 107.01 157.668 109.699V109.696Z" fill="white"/>
<path d="M30.2232 107.571C29.7889 108.223 30.0184 108.955 30.0309 109.659C29.1188 108.372 28.0298 102.803 28.4362 101.301C28.6937 101.683 28.9171 102.024 29.1498 102.356C29.4848 102.837 29.7609 103.367 30.4124 103.538C30.5676 103.578 30.7103 103.83 30.7785 104.016C30.9243 104.404 30.9864 104.822 31.1415 105.204C31.2284 105.421 31.4331 105.592 31.5851 105.784C31.6565 105.784 31.7248 105.784 31.7961 105.787C31.9357 105.427 32.1746 105.071 32.1994 104.701C32.3049 103.125 32.3359 101.546 32.4166 99.9672C32.4321 99.6632 32.5438 99.3654 32.612 99.0645C32.6741 99.0645 32.7361 99.0645 32.7982 99.0645C33.0743 99.6415 33.3659 100.212 33.6203 100.802C33.9492 101.562 34.4517 102.182 35.0908 102.694C35.4476 102.98 35.7858 103.219 36.3194 103.067C36.6327 102.977 37.0143 103.122 37.3649 103.166C37.6658 103.203 37.9667 103.243 38.2583 103.281C38.491 104.655 38.6834 106.06 38.9719 107.447C39.3969 109.488 39.8313 111.533 40.3618 113.549C41.0784 116.267 41.8478 118.969 42.6761 121.653C43.0205 122.773 43.5665 123.831 44.035 124.91C44.2769 125.469 44.1373 126.04 43.6441 126.409C43.4083 126.586 43.1849 126.778 42.9243 126.989C40.7992 124.799 38.0691 123.257 36.0836 120.862C34.7899 119.301 33.4404 117.703 32.8106 115.82C32.0443 113.525 30.9895 111.285 30.7723 108.815C30.7351 108.387 30.5769 107.965 30.4745 107.543L30.2294 107.571H30.2232Z" fill="white"/>
<path d="M59.4103 128.205C59.5406 127.783 59.6244 127.343 59.8074 126.949C60.4806 125.506 61.2873 124.122 61.8519 122.64C62.5841 120.716 63.2014 118.74 63.7288 116.748C64.098 115.349 64.2655 113.891 64.4672 112.451C64.672 110.968 64.9263 109.476 64.9481 107.987C64.9915 105.251 64.8798 102.514 64.8333 99.713C64.9853 99.7037 65.3265 99.6261 65.643 99.6789C66.5613 99.8309 67.1973 99.3593 67.7402 98.7451C68.4444 97.9478 69.0928 97.1039 69.856 96.167C69.856 97.1101 69.8622 97.9415 69.856 98.7699C69.8436 99.8743 69.8622 100.982 69.7878 102.083C69.7257 102.98 70.2066 103.498 70.8798 103.889C71.3948 104.187 71.5778 103.69 71.6337 103.368C71.764 102.614 71.8477 101.838 71.8415 101.075C71.8353 100.523 71.9718 100.135 72.431 99.834C73.3958 99.2011 74.342 98.5465 75.4186 97.8206C75.5365 101.593 75.099 105.015 72.7443 108.015C72.5054 107.37 72.2821 106.774 72.0122 106.048C71.4475 107.041 71.4072 107.981 71.4134 108.884C71.4258 110.767 70.8271 112.489 70.1849 114.207C69.8684 115.057 69.5116 115.892 69.189 116.736C68.159 119.438 66.5272 121.737 64.461 123.735C63.0432 125.106 61.6099 126.459 60.1797 127.817C59.9998 127.988 59.7981 128.137 59.6058 128.295C59.5406 128.264 59.4724 128.236 59.4072 128.205H59.4103Z" fill="white"/>
<path d="M128.054 128.361C126.775 127.151 125.541 125.99 124.315 124.824C123.831 124.362 123.394 123.85 122.891 123.409C121.312 122.035 120.232 120.276 119.237 118.486C118.591 117.326 118.238 116.004 117.701 114.779C116.721 112.545 116.184 110.227 116.147 107.786C116.137 107.252 115.936 106.725 115.824 106.194C115.753 106.185 115.678 106.176 115.607 106.166C115.38 106.765 115.157 107.364 114.912 108.006C112.56 105.031 112.129 101.6 112.231 98.004C113.516 98.519 114.633 99.2387 115.601 100.176C115.731 100.303 115.777 100.554 115.793 100.753C115.849 101.46 115.864 102.174 115.917 102.881C115.936 103.114 115.982 103.359 116.085 103.563C116.277 103.948 116.528 104.125 116.966 103.787C117.571 103.321 117.893 102.81 117.865 101.991C117.803 100.098 117.847 98.2025 117.847 96.1953C118.154 96.5862 118.399 96.9492 118.694 97.2625C119.389 98.0071 120.09 98.7486 120.834 99.4435C121.014 99.6141 121.359 99.6482 121.635 99.67C122.081 99.7072 122.531 99.6793 122.956 99.6793C122.848 101.308 122.677 102.856 122.662 104.407C122.646 106.2 122.714 108 122.845 109.787C122.95 111.239 123.096 112.7 123.409 114.118C123.921 116.417 124.56 118.691 125.193 120.962C125.761 122.997 126.654 124.902 127.728 126.716C128.016 127.207 128.317 127.65 128.06 128.358L128.054 128.361Z" fill="white"/>
<path d="M125.676 12.0948C125.704 12.1444 125.754 12.191 125.754 12.2406C125.775 14.6512 125.906 17.0648 125.778 19.466C125.682 21.3244 125.387 23.1951 124.969 25.0131C124.218 28.2706 122.961 31.3512 121.218 34.2209C120.604 35.2292 119.949 36.2188 119.431 37.2736C119.111 37.9251 118.931 38.679 118.835 39.405C118.764 39.951 119.065 40.0906 119.574 39.8641C119.946 39.6966 120.309 39.5043 120.78 39.2685C120.849 39.6439 120.942 40.013 120.976 40.3853C121.147 42.3088 121.367 44.2292 121.444 46.1557C121.469 46.7731 131.871 49.2736 131.884 49.8941C131.918 51.5042 149.865 57.1971 152.322 74.0306C134.583 62.8062 123.824 61.1495 123.61 61.5187C123.086 62.4184 118.897 57.0327 118.395 57.9448C117.874 58.891 117.371 59.8465 116.85 60.7927C116.738 60.9975 116.592 61.1805 116.36 61.528C116.068 60.2436 115.776 59.1174 115.562 57.9758C115.33 56.741 115.156 55.4939 114.988 54.2498C114.886 53.4928 114.442 53.074 113.778 52.7917C112.457 52.2302 111.073 52.2767 109.689 52.3512C108.815 52.3977 108.073 52.3264 107.294 51.7183C105.979 50.6914 104.347 50.2509 102.722 49.8941C100.426 49.3946 98.1114 48.9851 95.7536 49.0347C93.8053 49.0751 91.8632 49.2581 89.9553 49.7142C89.645 49.7886 89.2573 49.68 88.9377 49.5652C88.2552 49.3171 87.6099 48.9572 86.9181 48.7462C86.5551 48.6345 86.0897 48.6438 85.733 48.7741C84.1973 49.3233 83.2169 50.4929 82.4693 51.8858C81.9884 52.7824 81.5293 53.6914 81.0236 54.6655C80.6016 53.7628 80.2107 52.9065 79.8012 52.0564C79.6895 51.8238 77.8343 51.8889 75.1291 52.0937C74.5923 52.134 75.7899 61.4846 74.0867 61.3574C57.8923 60.1443 46.6896 66.4825 43.3235 66.8113C37.4073 67.3853 52.3452 54.2219 52.1312 53.8372C51.641 52.9561 65.701 47.1144 65.1704 46.255C65.1208 46.1744 76.764 46.6118 76.7733 46.5249C76.9346 44.8403 76.9812 43.1309 77.3286 41.4867C77.5024 40.6614 78.1942 39.9293 78.7154 39.2002C79.7764 37.7111 80.8777 36.253 81.9698 34.7886C82.1652 34.5281 82.3979 34.2892 82.6368 34.0658C83.4 33.3523 83.977 32.5239 84.2904 31.5219C84.3059 31.4691 84.3555 31.4257 84.3865 31.3729C84.551 31.0906 85.0256 30.9293 84.6347 30.4515C84.0918 29.7876 83.7443 29.6635 83.0742 29.7938C82.1621 29.9738 81.2655 30.1289 80.5644 31.0069C80.4341 30.7152 80.3224 30.557 80.2945 30.3833C80.1301 29.375 79.9967 28.3605 79.826 27.3554C79.7609 26.9676 79.6275 26.5922 79.5313 26.2106C79.1994 24.8611 78.8395 23.5177 78.5448 22.1589C78.2438 20.7783 77.9956 19.3854 77.7351 17.9924C77.5024 16.7422 77.1828 15.495 77.0867 14.2323C77.006 13.1496 77.1611 12.0421 77.2604 10.95C77.4124 9.29646 78.0267 7.76699 78.6471 6.24683C78.7681 5.9459 78.9636 5.676 79.1777 5.30371C79.5437 5.86524 79.8447 6.3399 80.158 6.80526C80.8715 7.85696 81.5789 8.91177 82.3141 9.94796C82.7919 10.6243 83.2573 11.3192 83.8188 11.918C84.9232 13.0969 86.1332 14.1734 87.219 15.3647C89.0029 17.3192 90.2686 19.5653 90.8984 22.1651C91.1094 23.04 91.5282 23.8621 91.8819 24.7866C91.6554 24.9541 91.2831 25.2085 90.9387 25.4908C90.5013 25.8538 90.2159 26.2975 90.4362 26.8931C90.644 27.4577 91.0628 27.7339 91.6709 27.7152C92.6326 27.6842 93.5913 27.647 94.553 27.6222C96.8457 27.5663 99.1228 27.6625 101.397 28.0069C102.653 28.1992 103.904 28.3729 105.216 28.2613C106.68 28.1341 108.172 28.435 109.55 29.0182C110.558 29.4433 111.532 29.9458 112.497 30.4577C112.823 30.6315 113.034 30.616 113.279 30.3709C113.899 29.7566 113.955 29.1454 113.291 28.5901C112.646 28.0534 111.905 27.6253 111.182 27.1816C110.716 26.8962 110.316 25.9066 110.54 25.4133C111.154 24.0575 111.694 22.6584 112.423 21.3647C113.158 20.0617 114.269 19.0658 115.416 18.0855C116.918 16.8073 118.618 15.9076 120.34 15.0203C121.33 14.5115 122.391 14.1455 123.371 13.6181C124.171 13.1868 124.894 12.616 125.664 12.101L125.676 12.0948Z" fill="white"/>
<path d="M106.887 73.462C105.857 71.9108 104.122 71.1166 103.182 69.5251C102.795 68.8705 102.025 68.8239 101.383 69.2738C100.818 69.6678 100.288 70.1114 99.7264 70.5085C99.5651 70.6233 99.3386 70.735 99.1524 70.7195C97.0925 70.5364 95.0294 70.3441 92.9756 70.1114C92.684 70.0773 92.4048 69.8508 92.1411 69.6833C90.41 68.585 89.0697 68.6254 87.4069 69.8508C86.8236 70.282 86.2497 70.7226 85.6323 71.191C85.4431 70.1828 85.2879 69.1652 85.0553 68.16C84.6085 66.2427 84.3324 64.2914 83.6158 62.433C83.0946 61.0804 82.7471 59.6595 82.3438 58.2634C82.3035 58.13 82.3841 57.9377 82.4555 57.7981C82.6013 57.522 82.7998 57.2738 82.9425 56.9977C83.2031 56.5013 83.3893 55.9987 83.9539 55.6854C84.3386 55.4744 84.5775 54.9966 84.8722 54.6275C85.0335 54.4289 85.17 54.2086 85.3252 54.007C85.896 53.2593 86.532 52.8281 87.5806 53.1352C88.3965 53.3741 89.2435 53.1011 90.0718 52.8405C90.7326 52.6326 91.4586 52.6326 92.1597 52.5582C93.6488 52.4031 95.1411 52.127 96.6302 52.1487C98.4575 52.1766 100.288 52.4217 102.106 52.6482C103.576 52.8343 105.066 53.1445 106.285 54.007C107.132 54.6057 107.966 54.8819 108.975 55.0246C109.713 55.1269 110.451 55.5861 111.072 56.0452C111.401 56.2903 111.453 56.886 111.677 57.2986C111.981 57.8663 112.344 58.4031 112.651 58.9677C112.778 59.2035 112.846 59.4734 112.918 59.7371C113.299 61.1642 113.656 62.6006 114.056 64.0214C114.156 64.3689 114.124 64.5861 113.867 64.8591C112.161 66.6709 110.426 68.4578 108.813 70.3503C108.056 71.2376 107.557 72.3451 106.884 73.4465L106.887 73.462Z" fill="white"/>
<path d="M104.025 74.1682C104.543 74.8228 105.058 75.4215 105.504 76.073C105.632 76.2592 105.616 76.6035 105.554 76.8455C105.442 77.2799 105.247 77.6956 105.082 78.1144C105.061 78.1702 105.042 78.2478 104.999 78.2664C104.056 78.679 104.307 79.6252 104.077 80.3481C103.572 81.9241 103.116 83.5156 102.607 85.0885C102.194 86.3605 101.766 87.6294 101.279 88.8734C101.133 89.2488 100.773 89.5404 100.51 89.8693C100.494 89.7948 100.482 89.7235 100.466 89.649C99.706 89.4784 98.9521 89.2364 98.1828 89.1557C97.0535 89.0378 95.9118 89.0223 94.7764 88.9913C94.1528 88.9727 93.6533 88.7555 93.2066 88.3181C92.4434 87.5766 91.463 87.2788 90.4423 87.1206C89.7691 87.0151 89.2107 87.3222 88.6988 87.7193C88.3265 88.0048 87.9573 88.2933 87.4672 88.6718C87.16 87.1268 86.797 85.6997 86.6109 84.2478C86.3193 81.9862 86.1362 79.709 85.9346 77.435C85.8322 76.2809 85.7857 75.1206 85.7236 74.0844C87.3555 73.6035 88.8508 73.101 90.3772 72.7473C91.0008 72.6015 91.7019 72.7473 92.3596 72.8093C94.3823 73.0079 96.3989 73.2375 98.4216 73.4422C98.6915 73.4701 98.977 73.4453 99.2469 73.4019C99.8022 73.3119 100.354 73.0761 100.9 73.4484C100.969 73.495 101.115 73.5012 101.189 73.4608C101.782 73.1444 102.104 73.588 102.489 73.889C102.926 74.2302 103.37 74.6025 104.034 74.162L104.025 74.1682Z" fill="white"/>
<path d="M99.8147 92.5992C99.2997 94.1969 98.8157 95.7574 98.2821 97.2993C98.1735 97.6095 97.9036 97.898 97.643 98.1183C96.5572 99.0211 95.4465 99.896 94.3421 100.777C94.007 101.044 93.6937 101.038 93.2624 100.864C91.4072 100.132 90.2562 98.5899 88.9688 97.2155C88.7268 96.958 88.643 96.5051 88.5934 96.1266C88.3948 94.5413 88.2335 92.9529 88.0815 91.3644C88.066 91.2 88.1808 90.9673 88.3111 90.8588C88.733 90.5113 89.1735 90.1731 89.6451 89.9001C89.8529 89.7791 90.1973 89.7202 90.4052 89.8101C90.886 90.018 91.3638 90.2817 91.764 90.6199C92.8653 91.5537 94.159 91.8298 95.5272 91.7212C96.6595 91.6312 97.7205 91.7926 98.766 92.1804C99.1166 92.3107 99.4579 92.4596 99.8178 92.6054L99.8147 92.5992Z" fill="white"/>
<path d="M53.8021 119.976C53.8021 119.976 43.099 98.4358 44.1476 89.7646C44.1476 89.7646 34.13 97.0521 44.1476 121.068C54.1651 145.083 58.8063 122.706 58.8063 122.706L62.7184 110.976C62.7184 110.976 56.2592 121.344 53.8021 119.979V119.976Z" fill="white"/>
<path d="M42.4512 120.06C42.4512 120.06 29.4678 105.686 27.7584 98.6562C27.7584 98.6562 23.1948 106.682 36.414 123.153C49.6332 139.623 46.4936 121.034 46.4936 121.034L45.8173 110.945C45.8173 110.945 44.4429 120.556 42.4512 120.06Z" fill="white"/>
<path d="M60.6228 120.611C60.6228 120.611 67.901 110.969 69.446 106.694C70.991 102.419 70.811 107.65 74.5401 100.986C78.2691 94.3219 76.901 99.0654 76.901 99.0654C76.901 99.0654 74.903 111.149 72.2629 116.153C69.6259 121.157 59.4036 131.619 59.4036 131.619L57.4863 126.99L60.6197 120.611H60.6228Z" fill="white"/>
<path d="M134.628 119.976C134.628 119.976 145.331 98.4358 144.283 89.7646C144.283 89.7646 154.3 97.0521 144.283 121.068C134.265 145.083 129.624 122.706 129.624 122.706L125.712 110.976C125.712 110.976 132.171 121.344 134.628 119.979V119.976Z" fill="white"/>
<path d="M145.979 120.06C145.979 120.06 158.963 105.686 160.672 98.6562C160.672 98.6562 165.236 106.682 152.017 123.153C138.797 139.623 141.937 121.034 141.937 121.034L142.613 110.945C142.613 110.945 143.988 120.556 145.979 120.06Z" fill="white"/>
<path d="M127.805 120.611C127.805 120.611 120.527 110.969 118.982 106.694C117.437 102.419 117.617 107.65 113.888 100.986C110.159 94.3219 111.527 99.0654 111.527 99.0654C111.527 99.0654 113.525 111.149 116.165 116.153C118.802 121.157 129.025 131.619 129.025 131.619L130.942 126.99L127.809 120.611H127.805Z" fill="white"/>
<path d="M75.4368 57.1982L82.3302 89.0565L85.7149 102.539C85.7149 102.539 86.0376 109.628 87.0055 110.087C87.9735 110.547 95.6115 112.175 97.1317 110.087C98.6518 108 104.351 93.1795 104.351 93.1795C104.351 93.1795 110.903 80.0379 114.66 79.2499C118.417 78.4619 108.958 92.3512 108.958 92.3512L104.59 100.988L98.2144 117.031L93.809 119.28L83.6022 116.249L81.6601 103.756L79.8421 91.5973L74.748 70.7649L75.4306 57.2045L75.4368 57.1982Z" fill="white"/>
<path d="M127.618 79.7061C127.547 76.3648 127.354 73.0267 127.212 69.6885C127.131 67.8612 127.057 66.0308 126.957 64.2036C126.945 63.9678 126.787 63.7413 126.694 63.5117C126.647 63.5148 126.597 63.5179 126.548 63.521C125.406 65.308 125.149 74.2738 118.845 82.945C117.923 84.2107 117.135 85.5696 116.294 86.8912C116.077 87.2324 116.074 87.5954 116.332 87.9336C116.971 88.7681 120.507 92.5406 121.429 93.0401C122.341 93.3876 123.098 93.0618 123.79 92.4444C124.078 92.19 124.215 91.886 124.14 91.492C124.06 91.0515 124.038 90.5923 123.923 90.1611C123.836 89.8446 123.967 89.6709 124.143 89.4599C124.813 88.6657 125.536 87.9057 126.11 87.0494C126.619 86.2893 127.184 85.4517 127.323 84.583C127.581 82.9822 127.646 81.3317 127.612 79.7061H127.618Z" fill="black"/>
<path d="M171.263 102.863C171.278 104.172 170.695 105.217 169.755 106.027C168.347 107.237 166.885 108.388 165.415 109.524C164.735 110.048 163.913 110.178 163.063 110.035C162.939 110.014 162.765 109.949 162.716 109.852C162.055 108.571 161.683 107.222 161.931 105.773C162.101 104.765 162.306 103.756 162.579 102.77C162.846 101.802 162.595 100.877 162.418 99.9652C161.714 96.3323 161.028 92.6932 160.178 89.0945C159.502 86.2248 158.605 83.4078 157.78 80.5754C157.073 78.1369 156.328 75.7108 155.608 73.2755C155.497 72.9001 155.419 72.5092 155.372 72.1183C155.345 71.8763 155.36 71.4265 155.431 71.4109C155.832 71.321 156.241 71.3272 156.508 71.7739C156.952 72.5185 157.411 73.2538 157.895 73.9704C160.246 77.4451 162.269 81.1152 164.075 84.8908C166.156 89.2434 168.12 93.6581 170.09 98.0634C170.77 99.5805 171.16 101.197 171.266 102.863H171.263Z" fill="black"/>
<path d="M16.8633 103.641C16.9812 101.689 17.5055 99.8715 18.2935 98.1403C20.4155 93.4775 22.5251 88.8084 24.7495 84.1952C25.8477 81.9149 27.1414 79.7247 28.4258 77.5375C29.4403 75.8095 30.5478 74.1342 31.6709 72.4744C31.8322 72.2355 32.3007 72.2014 32.6264 72.0742C32.6885 72.2417 32.8312 72.4279 32.7971 72.5706C32.3224 74.4196 31.8632 76.2748 31.3172 78.1052C29.7319 83.401 28.0753 88.6781 26.9336 94.0917C26.3658 96.7877 25.8602 99.5023 25.491 102.232C25.37 103.123 25.6926 104.103 25.9284 105.009C26.279 106.355 26.4062 107.696 26.037 109.045C25.8912 109.579 25.6368 110.088 25.3917 110.59C25.3421 110.693 25.1218 110.739 24.976 110.761C24.008 110.894 23.1704 110.624 22.4103 109.998C21.0856 108.902 19.702 107.879 18.3959 106.762C17.4496 105.952 16.8726 104.907 16.8664 103.647L16.8633 103.641Z" fill="black"/>
<path d="M171.496 109.257C171.037 110.618 170.609 112.005 170.1 113.364C169.79 114.192 169.389 114.993 168.964 115.768C168.66 116.321 168.552 116.882 168.67 117.475C168.809 118.182 168.586 118.657 168.062 119.175C167.14 120.087 166.399 121.176 165.493 122.107C163.74 123.909 161.866 125.575 159.459 126.484C159.04 126.642 158.593 126.742 158.15 126.813C157.461 126.921 157.085 126.45 157.275 125.764C157.306 125.646 157.315 125.522 157.327 125.398C157.393 124.834 157.095 124.48 156.695 124.126C156.542 123.993 156.484 123.617 156.549 123.403C156.648 123.075 156.859 122.761 157.082 122.494C158.025 121.362 159.024 120.273 159.946 119.122C162.046 116.497 164.292 114.025 166.929 111.915C168.015 111.047 168.983 110.032 170.004 109.083C170.134 108.962 170.246 108.81 170.395 108.723C170.618 108.59 170.869 108.496 171.108 108.385C171.223 108.642 171.335 108.9 171.493 109.253L171.496 109.257Z" fill="black"/>
<path d="M19.3286 118.784C19.9057 117.199 18.8633 116.178 18.429 114.984C17.8612 113.414 17.3152 111.835 16.8281 110.237C16.7289 109.911 16.9274 109.496 16.9863 109.12C17.2842 109.269 17.6813 109.34 17.8674 109.579C19.5241 111.714 21.9315 113.004 23.7992 114.906C25.7505 116.892 27.5716 118.989 29.2531 121.204C29.7619 121.874 30.3793 122.46 30.9315 123.102C31.1487 123.354 31.3224 123.642 31.5054 123.922C31.7878 124.343 31.7071 124.71 31.3007 124.995C30.7454 125.383 30.705 125.913 30.8602 126.5C31.037 127.173 30.6492 127.626 29.9574 127.533C28.3627 127.319 27.0256 126.524 25.7723 125.588C23.6751 124.018 21.8012 122.215 20.2749 120.071C20.1508 119.898 19.946 119.783 19.8219 119.606C19.6265 119.327 19.4651 119.02 19.3255 118.784H19.3286Z" fill="black"/>
<path d="M147.794 75.4098C148.015 74.8793 148.238 74.358 148.449 73.8337C148.616 73.4149 148.781 73.024 149.367 73.1326C150.093 73.266 150.323 73.4739 150.357 74.1595C150.416 75.3384 150.459 76.5204 150.515 77.6993C150.527 77.9537 150.568 78.2081 150.596 78.4625C150.717 79.6135 150.379 80.1967 149.321 80.659C148.467 81.0313 148.551 81.0282 148.582 81.9154C148.623 83.0478 148.62 84.205 148.43 85.3187C148.207 86.6217 146.631 87.2546 145.185 86.7086C143.516 86.0757 142.576 84.8192 142.405 83.0571C142.334 82.3063 142.44 81.5338 142.52 80.78C142.539 80.6 142.768 80.417 142.942 80.2929C143.094 80.1843 143.302 80.1409 143.491 80.0943C144.515 79.8462 145.136 79.0737 145.762 78.3229C145.868 78.1957 145.92 78.0064 145.948 77.8389C146.079 77.0819 146.162 76.3156 146.339 75.568C146.38 75.4004 146.724 75.2174 146.941 75.1988C147.196 75.174 147.465 75.3229 147.788 75.4098H147.794Z" fill="black"/>
<path d="M39.8689 75.4215C40.173 75.3284 40.3777 75.2446 40.5887 75.2043C41.0478 75.1174 41.3239 75.2198 41.3674 75.7844C41.4294 76.529 41.448 77.3356 41.7614 77.9809C42.0778 78.6324 42.6766 79.1877 43.2536 79.6593C43.6445 79.9788 44.2216 80.0657 44.7024 80.286C44.8638 80.3604 45.0809 80.5063 45.1119 80.6521C45.4439 82.1691 45.3912 83.6707 44.6311 85.0574C43.9734 86.2549 41.9972 87.1764 40.8741 86.9064C40.1264 86.7265 39.2143 85.7524 39.1709 84.983C39.1058 83.8289 39.0685 82.6717 39.0933 81.5145C39.1027 81.0988 38.9786 80.9034 38.628 80.7606C38.355 80.6521 38.0789 80.5311 37.8369 80.3666C37.235 79.9602 36.9 79.4856 37.0086 78.6479C37.1947 77.1867 37.1947 75.7007 37.3064 74.2302C37.3374 73.8113 37.2971 73.3057 37.9331 73.2095C38.8886 73.0668 38.8979 73.0637 39.2733 73.9851C39.4656 74.4535 39.6611 74.922 39.8658 75.4184L39.8689 75.4215Z" fill="black"/>
<path d="M157.534 68.0319C156.774 68.5345 156.408 68.0754 156.076 67.4859C156.002 67.3525 155.834 67.2253 155.685 67.1912C154.236 66.8468 153.088 65.5066 152.822 64.0516C152.496 62.2615 152.822 60.5583 153.262 58.852C153.38 58.3991 153.538 57.9554 153.721 57.5242C153.78 57.3877 153.96 57.2419 154.106 57.2109C154.606 57.1054 155.815 57.7383 156.005 58.2098C156.817 60.2264 157.674 62.2305 158.4 64.2812C158.859 65.5718 159.15 66.9244 159.445 68.2677C159.52 68.5997 159.433 69.1147 159.213 69.3411C158.546 70.0268 157.981 69.8282 157.733 68.9006C157.661 68.6369 157.612 68.367 157.534 68.0319Z" fill="black"/>
<path d="M42.004 49.4419C42.2181 50.9589 42.5066 52.6311 42.668 54.3157C42.7424 55.1006 42.6835 55.9382 42.488 56.7014C42.125 58.1254 40.7383 58.8979 39.5128 58.87C39.2367 58.8638 38.942 58.9569 38.6907 58.8824C38.3091 58.7707 37.8096 58.6528 37.6204 58.3674C37.1395 57.6446 36.8107 56.8255 37.1861 55.9165C37.4343 55.3147 37.6142 54.6818 37.9244 54.1141C38.9265 52.2712 39.3639 50.2454 39.913 48.2506C40.0837 47.6301 40.2946 47.5556 41.2191 47.6984C41.7186 47.7728 42.0909 47.9683 42.0537 48.5639C42.0382 48.7997 42.0289 49.0386 42.0071 49.4419H42.004Z" fill="black"/>
<path d="M33.415 91.5878C32.4874 91.6064 31.8142 91.231 31.7708 90.5888C31.7211 89.8691 31.7615 89.14 31.7522 88.4172C31.746 88.0666 31.7708 87.7067 31.6901 87.3717C31.4419 86.3417 31.5536 85.3862 32.0686 84.4523C32.3199 83.9994 32.6239 83.9963 32.9125 84.291C33.7563 85.1535 34.5846 86.0314 35.3602 86.9529C35.5495 87.1793 35.596 87.5175 35.9528 87.6106C35.9993 87.623 36.0365 87.7843 36.0303 87.8743C35.9993 88.3179 35.9404 88.7615 35.9125 89.2052C35.8132 90.7191 35.0066 91.6809 33.4181 91.5909L33.415 91.5878Z" fill="black"/>
<path d="M151.787 88.8789C151.731 88.5376 151.673 88.1963 151.629 87.8551C151.62 87.7837 151.641 87.6844 151.688 87.6348C152.724 86.5521 153.689 85.4042 154.716 84.3122C155.07 83.9368 155.327 84.0174 155.591 84.4704C156.121 85.3701 156.211 86.3194 155.979 87.3277C155.898 87.6813 155.917 88.0629 155.907 88.4321C155.895 89.155 155.935 89.884 155.879 90.6038C155.836 91.1374 155.411 91.46 154.927 91.5097C154.35 91.5717 153.732 91.5686 153.171 91.4352C152.284 91.2242 151.995 90.4331 151.778 89.6513C151.713 89.4094 151.741 89.1426 151.728 88.8851C151.747 88.8851 151.766 88.8789 151.784 88.8758L151.787 88.8789Z" fill="black"/>
<path d="M166.43 80.485C166.324 79.9545 166.712 79.8862 167.091 79.8118C167.528 79.7249 167.851 79.9141 167.975 80.3144C168.468 81.9059 168.971 83.4974 169.392 85.1106C169.61 85.9483 169.883 86.8231 169.374 87.6856C168.921 88.4519 168.446 88.5418 167.844 87.8966C167.156 87.1582 166.861 86.2306 166.768 85.2595C166.616 83.6711 166.538 82.0765 166.43 80.4881V80.485Z" fill="black"/>
<path d="M21.7152 81.4434C21.5818 83.0008 21.5104 84.7381 21.2436 86.4444C21.1257 87.2014 20.7069 87.9646 20.254 88.6037C19.7638 89.2924 19.2178 89.159 18.7741 88.4392C18.2592 87.6047 18.4949 86.7391 18.7121 85.9232C19.0472 84.6512 19.528 83.4196 19.9251 82.1631C20.0306 81.8312 20.0554 81.4713 20.133 81.13C20.2385 80.6771 20.5332 80.4568 20.9954 80.522C21.4267 80.5809 21.8455 80.6802 21.7121 81.4434H21.7152Z" fill="black"/>
<path d="M130.755 63.7717C130.724 62.6517 131.077 61.6962 131.732 60.8244C132.117 60.3125 132.495 60.3311 132.734 60.9082C132.917 61.3518 133.01 61.7985 133.373 62.1894C133.606 62.4376 133.634 62.9775 133.593 63.3684C133.507 64.2091 133.317 65.0374 133.165 65.8689C133.044 66.5359 132.486 66.4986 132.011 66.5576C131.58 66.6103 131.273 66.3621 131.177 65.9619C131.006 65.2391 130.894 64.5038 130.755 63.7717Z" fill="black"/>
<path d="M56.894 63.7698C56.773 64.4647 56.6768 65.1627 56.5248 65.8515C56.4286 66.292 56.1494 66.6085 55.6499 66.5588C55.1442 66.5092 54.5858 66.5061 54.4741 65.8142C54.3345 64.9394 54.1608 64.0707 54.0584 63.1896C53.9995 62.6715 54.1267 62.1969 54.5827 61.8184C54.775 61.6602 54.7595 61.2755 54.896 61.0242C55.0108 60.8163 55.1908 60.5402 55.38 60.5092C55.5475 60.4813 55.8112 60.7077 55.954 60.8846C56.621 61.7191 56.9312 62.6777 56.8971 63.7698H56.894Z" fill="black"/>
<path d="M161.078 97.129C160.997 96.5954 160.706 96.4496 160.312 96.7877C159.84 97.191 159.409 97.6564 159.037 98.1497C158.528 98.8291 158.09 99.5644 157.622 100.275C157.557 100.259 157.492 100.247 157.427 100.231C157.287 99.1083 157.16 97.9821 157.008 96.8591C156.822 95.4723 156.639 94.0825 156.397 92.705C156.353 92.4475 156.089 92.1032 155.854 92.0287C155.388 91.8798 154.088 92.7764 153.902 93.2448C153.114 95.2148 152.317 97.1817 151.507 99.1393C151.433 99.3193 151.268 99.524 151.095 99.5892C150.611 99.7722 150.099 99.887 149.59 100.033C149.59 99.7846 149.602 99.5706 149.59 99.3565C149.447 96.9708 149.221 94.6192 148.281 92.3606C147.698 90.9615 147.012 89.6368 146.1 88.4641C145.417 87.5892 144.564 86.8043 143.668 86.1497C142.849 85.554 142.467 84.8281 142.25 83.885C142.03 82.9294 141.679 82.0018 141.344 81.0773C141.214 80.7174 140.95 80.3483 140.497 80.5623C139.563 81.0091 138.694 81.5551 138.285 82.6875C137.692 81.6575 137.125 80.6709 136.541 79.6595C136.957 79.34 137.298 78.8653 137.674 78.8374C138.468 78.7754 139.005 78.3597 139.492 77.8602C141.462 75.8405 142.107 73.2531 141.936 70.6068C141.707 67.0515 141.074 63.5241 140.599 59.9843C140.553 59.6244 140.512 59.2149 139.979 59.1963C139.439 59.1777 139.036 59.3142 138.809 59.8726C138.446 60.7816 138.034 61.6751 137.633 62.5686C136.669 64.7123 136.039 66.9708 135.648 69.2635C135.266 71.4879 135.186 73.7619 134.981 76.0174C134.947 76.4052 134.941 76.793 134.916 77.249C133.389 75.8778 132.902 75.9615 131.925 77.4413C130.613 79.4269 129.853 81.6451 129.142 83.8757C128.72 85.2066 128.336 86.5158 127.402 87.6016C126.059 89.1683 125.252 91.0204 124.65 92.9718C124.315 94.0607 123.955 95.1435 123.636 96.1424C122.578 95.947 121.576 95.7671 120.577 95.5747C120.446 95.5499 120.297 95.5034 120.211 95.4134C120.108 95.3079 120.012 95.1993 119.913 95.0938C119.764 95.0659 119.618 95.007 119.506 94.9046C119.423 94.827 119.336 94.7557 119.246 94.6843C118.697 94.2748 118.076 93.9894 117.468 93.6854C117.195 93.5489 117.086 93.251 117.108 92.9656C117.015 92.885 116.941 92.7888 116.9 92.674C116.106 93.0711 115.585 93.8157 115.566 94.7029C115.551 95.3731 115.566 96.0432 115.566 96.8405C115.216 96.5675 114.961 96.3379 114.676 96.1517C113.509 95.3855 112.324 94.644 111.167 93.8622C110.959 93.7226 110.848 93.4341 110.696 93.2107C110.677 93.1828 110.696 93.1269 110.677 93.0959C110.019 91.9015 110.844 91.0732 111.4 90.1828C112.197 88.9015 113.01 87.6326 113.792 86.342C114.887 84.5365 115.87 82.6626 117.024 80.8974C120.707 75.2635 122.509 66.4528 122.575 66.1611C122.823 65.0164 123.117 63.8809 123.356 62.7361C123.648 61.3431 123.955 59.9502 124.151 58.5417C124.424 56.5996 124.597 54.642 124.818 52.6906C124.861 52.3028 124.926 51.9181 124.945 51.5303C124.976 50.8695 124.979 50.2056 124.997 49.399C126.58 49.9885 127.985 50.4445 129.338 51.0278C132.418 52.3556 135.21 54.1829 137.928 56.125C140.671 58.0857 143.212 60.2821 145.38 62.8757C147.148 64.9946 148.504 67.3866 149.851 69.7816C150.124 70.2656 150.201 70.8612 150.366 71.4041C150.456 71.7051 150.518 72.0184 150.632 72.31C150.843 72.8498 151.104 73.3741 151.309 73.9171C151.455 74.3018 151.507 74.7299 151.687 75.096C151.774 75.2759 152.066 75.4682 152.258 75.462C152.937 75.4403 153.729 74.5468 153.654 73.8736C153.58 73.1911 153.474 72.4993 153.276 71.8447C152.745 70.0887 152.264 68.3111 151.569 66.6203C150.828 64.8147 149.934 63.0588 148.973 61.3556C148.43 60.3907 147.632 59.5655 146.922 58.6999C145.213 56.6213 143.221 54.8344 141.121 53.1622C139.042 51.5055 136.703 50.2677 134.367 49.0391C132.068 47.8292 129.722 46.7093 127.377 45.5893C126.502 45.1736 125.624 44.6772 124.625 44.8851C124.42 44.1529 124.231 43.4549 124.03 42.7599C123.757 41.8292 123.555 40.8706 123.17 39.9864C122.848 39.2481 122.311 38.6059 121.762 37.7558C121.948 37.6131 122.292 37.4611 122.466 37.1974C123.583 35.5128 124.678 33.8127 125.745 32.0971C126.009 31.6752 126.148 31.1757 126.35 30.7134C126.632 30.0681 126.986 29.4415 127.197 28.7744C127.613 27.4435 127.942 26.0878 128.32 24.7445C128.944 22.5387 129.139 20.2708 129.195 17.9968C129.229 16.5449 129.127 15.0868 129.046 13.6349C128.993 12.7135 128.894 11.7921 128.77 10.88C128.609 9.71658 128.435 8.55319 128.199 7.40221C128.122 7.02062 127.768 6.76622 127.327 6.8748C126.986 6.95857 126.781 6.84999 126.567 6.58939C126.459 6.45599 126.152 6.32879 126.037 6.39084C125.59 6.62351 125.15 6.89342 124.768 7.22227C123.446 8.36394 122.007 9.31327 120.431 10.0578C119.559 10.4705 118.675 10.8582 117.822 11.3019C116.022 12.2326 114.446 13.4487 112.988 14.8696C111.065 16.7434 109.787 18.943 109.076 21.5056C108.797 22.5077 108.493 23.5035 108.192 24.5335C107.478 24.4063 106.706 24.4156 106.064 24.1302C104.063 23.2491 101.975 22.8241 99.8124 22.8241C98.466 22.8241 97.1165 23.0258 95.7545 23.1374C95.6242 22.4735 95.5591 21.7352 95.3326 21.0495C94.2592 17.7796 92.677 14.8107 90.1362 12.4094C88.7432 11.094 87.3626 9.75381 86.072 8.33912C83.8352 5.88825 81.676 3.36602 79.4702 0.887226C78.3844 -0.332006 77.2334 -0.201707 75.9273 0.570783C75.4464 0.856201 75.0493 1.38671 74.7763 1.88929C73.7463 3.78484 73.0452 5.77967 72.6698 7.93892C72.3006 10.064 72.2417 12.1706 72.5953 14.2429C73.0297 16.7807 73.7401 19.275 74.3885 21.7724C74.7856 23.2988 75.3192 24.7879 75.7318 26.3081C76.2437 28.185 76.6905 30.0805 77.1651 31.9699C77.4847 33.2388 78.0245 34.5231 76.8704 35.6741C76.7742 35.7703 76.7246 35.9068 76.6501 36.0247C75.707 37.5138 74.8756 39.065 74.5591 40.8147C74.4506 41.4166 74.1962 41.488 73.675 41.5283C72.0276 41.6555 70.3678 41.7424 68.7515 42.0433C65.2582 42.6917 62.0132 44.0567 58.9046 45.7537C58.1507 46.1663 57.4061 46.6038 56.6585 47.0257C55.9387 47.4321 55.1569 47.7548 54.5116 48.2573C52.7588 49.6224 51.2976 51.2853 49.9108 53.0164C48.9491 54.217 47.9904 55.4176 46.9884 56.581C46.3648 57.3039 45.614 57.9212 44.9997 58.6534C43.6502 60.2635 42.5737 62.0319 41.8943 64.0484C41.5499 65.066 41.2118 66.0122 41.7609 67.0515C42.0835 67.6627 42.3658 67.7371 42.8901 67.2625C42.9925 67.1694 43.0856 67.067 43.1787 66.9646C43.8767 66.2139 44.5778 65.4631 45.2728 64.7061C45.3596 64.6099 45.462 64.4765 45.462 64.3617C45.462 63.4745 46.1973 63.0246 46.5913 62.2583C46.2841 64.9822 45.9305 67.5727 45.7133 70.1756C45.5178 72.5551 46.0918 74.8043 47.311 76.8581C47.8229 77.7206 48.5489 78.521 49.5199 78.735C50.2179 78.8871 50.5809 79.3059 51.1052 79.6782C50.522 80.6833 49.9604 81.6544 49.3586 82.6937C49.0825 81.735 48.3999 81.2635 47.6895 80.8291C46.8239 80.3017 46.5354 80.3824 46.2066 81.3317C45.8064 82.4858 45.5023 83.6709 45.1238 84.8281C45.0308 85.1073 44.8539 85.4082 44.6306 85.5882C43.1011 86.8105 41.6647 88.0763 40.644 89.8167C39.5923 91.613 38.795 93.4713 38.4724 95.5158C38.2397 97.0049 38.1311 98.5127 37.9698 99.9894C37.5975 99.8932 37.1539 99.8063 36.7319 99.6543C36.5334 99.583 36.2914 99.4217 36.2138 99.2386C35.4569 97.4703 34.6502 95.7143 34.0236 93.8963C33.704 92.9687 33.1642 92.4475 32.3142 92.128C31.6751 91.8891 31.43 92.0132 31.2438 92.6833C31.2128 92.7981 31.1849 92.9129 31.1694 93.0308C30.9553 94.734 30.7475 96.4372 30.5241 98.1373C30.431 98.8384 30.3007 99.5364 30.189 100.234C29.6802 99.7195 29.3638 99.1797 28.9853 98.6833C28.4889 98.0349 27.9832 97.3834 27.4031 96.8126C26.9874 96.4061 26.6554 96.583 26.5686 97.1662C26.4972 97.6471 26.4662 98.1373 26.3731 98.615C26.0474 100.312 26.2304 101.994 26.4693 103.678C26.5437 104.184 26.643 104.696 26.6244 105.201C26.5096 108.602 27.1487 111.871 28.3028 115.051C28.6906 116.122 29.159 117.164 29.6058 118.213C30.4869 120.276 31.4393 122.289 32.7454 124.144C33.9491 125.854 35.2924 127.411 36.8777 128.761C38.1311 129.828 39.493 130.725 41.0442 131.32C41.5685 131.522 42.1083 131.73 42.5675 132.04C43.5261 132.691 44.4786 132.75 45.5178 132.27C45.9491 132.071 46.2531 131.81 46.3369 131.342C46.4641 130.622 46.5695 129.899 46.6905 129.136C47.2179 129.729 47.8136 130.25 48.22 130.889C49.1414 132.332 49.765 134.004 51.1455 135.087C51.5178 135.378 52.2996 135.152 52.8922 135.139C52.9294 135.139 52.9511 134.925 53.0039 134.823C53.1404 134.541 53.249 134.233 53.4413 133.998C53.674 133.709 53.9935 133.492 54.2572 133.225C55.1197 132.35 55.9759 131.469 56.8353 130.585C56.857 130.625 56.8849 130.656 56.888 130.687C56.8942 130.787 56.8942 130.886 56.8942 130.985C56.8849 131.997 56.7919 132.977 57.6388 133.833C58.0514 134.249 58.2965 134.19 58.6068 133.96C59.6057 133.225 60.614 132.493 61.5478 131.68C62.4041 130.936 63.1672 130.089 63.8963 129.363C64.3803 129.595 64.7401 129.887 65.131 129.933C65.9066 130.027 66.7008 129.971 67.4888 130.002C68.798 130.051 70.039 129.899 70.8704 128.733C71.2892 128.143 71.6367 127.498 71.9873 126.859C72.8839 125.224 73.6626 123.539 75.2355 122.351C76.9076 121.086 78.0059 119.289 79.1351 117.555C79.7401 116.624 80.1993 115.601 80.7391 114.592C80.8135 114.692 80.8849 114.781 80.9531 114.875C81.372 115.467 81.7101 116.15 82.2251 116.64C83.919 118.241 85.8487 119.478 88.1134 120.133C88.5291 120.254 88.9262 120.508 89.3419 120.53C90.8001 120.608 92.2675 120.561 93.7256 120.667C94.5632 120.726 95.2675 120.508 95.9686 120.114C96.5488 119.786 97.1351 119.447 97.7587 119.215C98.6863 118.867 99.8 118.774 99.7442 117.378C99.7442 117.325 99.7969 117.273 99.8218 117.22C100.123 116.534 100.439 115.852 100.725 115.16C101.73 112.734 102.657 110.274 103.74 107.885C105.297 104.444 106.821 101.007 107.661 97.3027C107.835 96.5364 108.207 95.8167 108.487 95.0752L108.673 95.1C108.983 95.5902 109.458 96.0463 109.569 96.5768C109.836 97.827 109.963 99.1083 110.091 100.383C110.364 103.095 110.708 105.782 111.999 108.248C112.25 108.729 112.424 109.256 112.594 109.777C112.951 110.879 113.267 111.999 113.63 113.097C113.894 113.891 114.211 114.667 114.539 115.545C114.297 115.449 114.164 115.414 114.052 115.349C112.61 114.499 111.173 113.64 109.728 112.793C109.498 112.659 109.213 112.616 108.986 112.476C108.226 112.011 107.463 111.543 106.74 111.025C106.411 110.789 105.968 110.826 105.918 111.229C105.881 111.543 105.958 111.893 106.073 112.194C106.901 114.428 107.767 116.64 109.203 118.585C110.342 120.124 111.434 121.69 112.998 122.854C113.292 123.074 113.584 123.341 113.773 123.651C114.558 124.945 115.306 126.266 116.063 127.576C116.64 128.572 117.195 129.657 118.467 129.844C119.491 129.992 120.546 129.937 121.588 129.949C122.317 129.955 123.111 130.129 123.617 129.232C124.29 129.893 124.873 130.535 125.525 131.094C126.71 132.099 127.926 133.064 129.158 134.013C129.313 134.134 129.726 134.165 129.84 134.053C130.52 133.386 130.904 132.58 130.796 131.587C130.759 131.255 130.79 130.914 130.79 130.613C132.003 131.792 133.194 132.937 134.364 134.103C134.522 134.261 134.55 134.547 134.668 134.755C134.782 134.953 135.018 135.304 135.062 135.282C135.601 135.04 136.315 135.595 136.762 134.817C137.115 134.199 137.733 133.74 138.111 133.135C138.977 131.751 139.638 130.228 141.018 129.208C141.083 129.794 141.105 130.402 141.226 130.994C141.477 132.22 143.106 133.008 144.245 132.465C145.194 132.012 146.122 131.522 147.089 131.097C150.741 129.49 153.366 126.67 155.435 123.366C156.598 121.511 157.476 119.466 158.385 117.462C158.99 116.125 159.48 114.726 159.912 113.32C160.442 111.589 160.87 109.827 160.945 107.994C161.013 106.281 161.115 104.565 161.326 102.868C161.568 100.926 161.367 99.0245 161.075 97.1166L161.078 97.129ZM78.0245 41.1157C78.1982 40.2904 78.8901 39.5583 79.4082 38.8292C80.4692 37.3401 80.8756 36.2543 81.9707 34.7899C82.1662 34.5293 82.3988 34.2905 82.6377 34.0671C83.4009 33.3535 83.9779 32.5252 84.2944 31.5231C84.3099 31.4704 84.3595 31.427 84.3906 31.3742C84.555 31.0919 85.0296 30.9306 84.6388 30.4528C84.0958 29.7889 83.7484 29.6617 83.0783 29.7951C82.1662 29.972 81.2696 30.1302 80.5684 31.0051C80.4381 30.7134 80.3264 30.5552 80.2985 30.3815C80.1341 29.3732 79.9976 28.3618 79.8301 27.3536C79.7649 26.9658 79.6315 26.5904 79.5353 26.2088C79.2034 24.8593 78.8435 23.5159 78.5488 22.1571C78.2479 20.7765 77.9997 19.3836 77.7391 17.9906C77.5033 16.7403 77.1869 15.4932 77.0907 14.2305C77.01 13.1478 77.1651 12.0403 77.2644 10.9482C77.4164 9.29465 78.0307 7.76519 78.6512 6.24502C78.7722 5.94409 78.9676 5.67418 79.1817 5.3019C79.5478 5.86343 79.8487 6.33809 80.162 6.80345C80.8756 7.85515 81.586 8.90996 82.3182 9.94615C82.7959 10.6225 83.2613 11.3174 83.8228 11.9162C84.9273 13.0951 86.1372 14.1716 87.223 15.3629C89.0038 17.3174 90.2727 19.5635 90.9024 22.1633C91.1134 23.0351 91.5322 23.8603 91.8859 24.7848C91.6594 24.9523 91.2871 25.2067 90.9428 25.489C90.5053 25.852 90.223 26.2956 90.4433 26.8913C90.6511 27.4559 91.07 27.732 91.678 27.7134C92.6398 27.6824 93.5984 27.6452 94.5601 27.6204C96.8528 27.5645 99.1299 27.6607 101.404 28.0051C102.66 28.1974 103.911 28.3711 105.223 28.2595C106.687 28.1323 108.18 28.4332 109.557 29.0133C110.562 29.4384 111.539 29.9409 112.504 30.4528C112.83 30.6266 113.038 30.6111 113.286 30.366C113.907 29.7517 113.962 29.1374 113.298 28.5852C112.653 28.0485 111.912 27.6204 111.189 27.1767C110.723 26.8913 110.323 25.9048 110.547 25.4084C111.161 24.0526 111.701 22.6535 112.43 21.3598C113.165 20.0568 114.276 19.0609 115.424 18.0806C116.925 16.8024 118.628 15.8996 120.35 15.0154C121.34 14.5066 122.401 14.1406 123.381 13.6132C124.182 13.1819 124.904 12.6111 125.674 12.0961C125.702 12.1457 125.751 12.1923 125.751 12.2419C125.776 14.6525 125.903 17.0661 125.779 19.4673C125.683 21.3257 125.388 23.1964 124.97 25.0144C124.219 28.2719 122.965 31.3525 121.219 34.2222C120.605 35.2305 119.463 36.8685 118.942 37.9233C118.622 38.5748 118.442 39.3287 118.349 40.0547C118.278 40.6007 118.579 40.7403 119.087 40.5138C119.46 40.3463 119.823 40.1539 120.294 39.9182C120.363 40.2936 120.456 40.6627 120.49 41.035C120.66 42.9585 120.881 44.8789 120.958 46.8085C121.051 49.036 121.061 51.2728 120.995 53.5004C120.983 53.9471 120.952 53.733 120.657 54.1674C120.418 54.521 120.148 54.8561 119.931 55.2222C119.407 56.1219 119.122 56.1094 118.619 57.0215C118.098 57.9678 117.741 58.0174 117.223 58.9636C117.111 59.1684 116.965 59.3514 116.733 59.6989C116.441 58.4145 116.15 57.2883 115.935 56.1498C115.703 54.915 115.529 53.6679 115.362 52.4238C115.259 51.6669 114.816 51.248 114.152 50.9657C112.83 50.4042 111.446 50.4507 110.063 50.5252C109.191 50.5717 108.446 50.5004 107.668 49.8923C106.352 48.8654 104.72 48.4249 103.095 48.0681C100.799 47.5686 98.4846 47.1591 96.1268 47.2087C94.1785 47.2491 92.2365 47.4321 90.3285 47.8882C90.0183 47.9626 89.6305 47.854 89.3109 47.7392C88.6284 47.4911 87.9831 47.1312 87.2913 46.9202C86.9283 46.8085 86.4629 46.8178 86.1062 46.9481C84.5705 47.4973 83.2179 50.4973 82.4702 51.8871C81.9893 52.7837 81.5519 52.9543 81.0462 53.9285C80.6243 53.0257 80.2086 52.9078 79.8022 52.0577C79.3678 51.1581 79.0297 49.6627 78.5457 48.7878C78.0555 47.9068 78.1052 47.2801 77.5746 46.4207C77.525 46.3401 77.463 46.2377 77.4723 46.1508C77.6336 44.4662 77.6801 42.7568 78.0276 41.1126L78.0245 41.1157ZM98.1806 88.1569C97.0513 88.039 95.9097 88.0235 94.7742 87.9925C94.1506 87.977 93.6511 87.7567 93.2044 87.3224C92.4412 86.5809 91.4609 86.2831 90.4402 86.1249C89.7639 86.0194 89.2085 86.3265 88.6936 86.7236C88.3213 87.0091 87.9521 87.2976 87.4619 87.6761C87.1548 86.1311 86.7918 85.703 86.6057 84.2511C86.314 81.9894 86.131 79.7123 85.9262 77.4382C85.8239 76.2842 85.7773 75.1239 85.7153 74.0877C87.3471 73.6068 88.8425 73.1042 90.3688 72.7475C90.9924 72.6016 91.6935 72.7475 92.3543 72.8095C94.3771 73.0081 96.3936 73.2376 98.4164 73.4424C98.6863 73.4703 98.9717 73.4455 99.2416 73.4021C99.7969 73.3152 100.349 73.0763 100.892 73.4486C100.96 73.4951 101.106 73.5013 101.181 73.461C101.773 73.1446 102.096 73.5882 102.48 73.8891C102.918 74.2304 103.362 74.6027 104.025 74.1652C104.544 74.8198 105.059 75.4186 105.505 76.0701C105.632 76.2562 105.617 76.6006 105.555 76.8426C105.443 77.2769 105.248 77.6895 105.083 78.1115C105.062 78.1673 105.043 78.2449 105 78.2635C104.056 78.6761 104.308 79.6223 104.078 80.3452C103.573 81.9212 103.116 83.5127 102.608 85.0856C102.195 86.3576 101.767 86.6244 101.28 87.8715C101.134 88.2469 100.774 88.5385 100.51 88.8674L100.467 88.6471C99.707 88.4765 98.9531 88.2345 98.1837 88.1538L98.1806 88.1569ZM99.8155 92.5995C99.3006 94.1973 98.8166 95.7578 98.283 97.2996C98.1744 97.6099 97.9045 97.8984 97.6439 98.1156C96.5581 99.0183 95.4474 99.8932 94.343 100.774C94.0079 101.041 93.6946 101.035 93.2633 100.861C91.4081 100.129 90.2571 98.5871 88.9697 97.2128C88.7277 96.9553 88.6408 96.5023 88.5943 96.1238C88.3957 94.5385 88.2344 92.9501 88.0824 91.3617C88.0669 91.1973 88.1817 90.9646 88.312 90.856C88.7339 90.5085 89.1744 90.1704 89.6429 89.8974C89.8507 89.7764 90.1951 89.7174 90.403 89.8074C90.8838 90.0153 91.3647 90.279 91.7618 90.6171C92.8631 91.5509 94.1568 91.827 95.525 91.7185C96.6573 91.6285 97.7183 91.7898 98.7638 92.1776C99.1144 92.3079 99.4557 92.4568 99.8155 92.6026V92.5995ZM103.265 68.6058C102.878 67.9512 102.108 67.9047 101.466 68.3545C100.901 68.7485 100.371 69.1921 99.8093 69.5892C99.648 69.704 99.4215 69.8157 99.2354 69.8002C97.1754 69.6172 95.1124 69.4248 93.0586 69.1921C92.767 69.158 92.4877 68.9315 92.224 68.764C90.4929 67.6658 89.1527 67.7061 87.4898 68.9315C86.9066 69.3628 86.3326 69.8033 85.7153 70.2718C85.526 69.2666 85.284 69.1642 85.0514 68.1622C84.6046 66.2449 84.3285 64.2935 83.6119 62.4352C83.0907 61.0825 82.7463 59.6617 82.3399 58.2656C82.3027 58.1322 82.3802 57.9398 82.4516 57.8002C82.5974 57.5241 82.7959 57.2759 82.9386 56.9998C83.1992 56.5003 83.3854 56.0009 83.95 55.6875C84.3347 55.4766 84.5736 54.9957 84.8714 54.6296C85.0328 54.4311 85.1693 54.2108 85.3244 54.0091C85.8952 53.2615 86.5281 52.8302 87.5798 53.1374C88.3957 53.3763 89.2427 53.1032 90.071 52.8426C90.7318 52.6348 91.4578 52.6348 92.1589 52.5603C93.648 52.4052 95.1434 52.1291 96.6294 52.1508C98.4567 52.1787 100.287 52.4238 102.105 52.6503C103.576 52.8364 105.065 53.1467 106.284 54.0122C107.131 54.611 107.965 54.8871 108.974 55.0298C109.712 55.1322 110.45 55.5914 111.071 56.0505C111.4 56.2956 111.453 56.8912 111.673 57.3039C111.977 57.8716 112.34 58.4083 112.647 58.9729C112.777 59.2087 112.842 59.4817 112.914 59.7423C113.295 61.1694 113.652 62.6058 114.052 64.0267C114.149 64.3742 114.121 64.5913 113.863 64.8643C112.157 66.6761 110.423 68.4631 108.809 70.3555C108.055 71.2428 107.64 71.4321 106.967 72.5334C105.937 70.9791 104.202 70.188 103.262 68.5965L103.265 68.6058ZM50.007 62.5531C49.7526 61.8333 49.3555 61.1694 49.0763 60.4559C48.9925 60.2449 49.0111 59.8912 49.1383 59.7144C51.2821 56.7144 53.9284 54.1984 56.8167 51.9399C57.6729 51.2697 58.6843 50.7827 59.6616 50.2832C61.5571 49.3121 63.4589 48.3504 65.4009 47.4724C66.0462 47.1808 66.8094 47.0815 67.5292 47.0257C69.2634 46.8954 71.0038 46.8054 72.7412 46.7713C73.8518 46.7496 73.9635 47.035 73.7805 48.1146C73.5292 49.5914 73.3554 51.0867 73.2189 52.582C73.0204 54.7785 72.8311 56.9781 72.7381 59.1808C72.6636 60.9554 72.7287 62.7392 72.7474 64.5169C72.7567 65.5375 72.7412 66.5613 72.8404 67.5727C73.0111 69.338 73.2499 71.0939 73.4795 72.8529C73.6129 73.8643 73.7836 74.8695 73.9014 75.8995C73.7401 75.4496 73.6036 74.9905 73.4144 74.553C73.0142 73.6378 72.6109 72.7257 72.1548 71.8416C72.0493 71.6399 71.7298 71.55 71.5064 71.4072C71.3823 71.6182 71.2024 71.8168 71.1496 72.0463C71.0504 72.4589 71.0255 72.8902 70.9666 73.3524C70.4702 72.8933 70.1445 73.1942 69.8963 73.6285C69.4526 74.401 69.3192 75.1859 69.9273 75.946C70.2251 76.3152 70.5292 76.6813 70.8549 77.0225C71.7794 77.9967 72.8652 78.1797 74.1589 77.612C74.2737 78.0835 74.3885 78.5334 74.494 78.9832C74.5157 79.0794 74.494 79.1849 74.5188 79.278C74.8104 80.3948 75.1114 81.5086 75.3999 82.6254C75.6884 83.7423 75.9211 84.8746 76.253 85.9791C76.6501 87.2914 77.1155 88.5789 77.5684 89.8726C77.7298 90.3317 77.9469 90.7753 78.1486 91.25C77.2148 91.3493 77.221 92.1652 77.1031 92.7578C76.9604 93.4775 76.585 93.8064 75.9862 94.1631C74.7515 94.8953 73.6036 95.7764 72.4216 96.5954C72.3472 96.6481 72.2727 96.7071 72.1021 96.8343C72.1021 96.0866 72.1145 95.4444 72.1021 94.8022C72.0772 93.6419 71.4288 92.7857 70.2468 92.4289C70.948 91.6316 71.6553 90.8932 72.2851 90.0928C72.7691 89.4754 73.2096 88.8084 73.5571 88.1042C73.7029 87.8095 73.6936 87.2914 73.5292 87.0091C72.2355 84.794 70.9294 82.582 69.2603 80.6151C69.0028 80.311 68.7701 79.9357 68.6677 79.5541C67.5075 75.2356 66.524 70.8643 64.8456 66.704C63.8001 64.1074 62.6678 61.5448 61.5323 58.9884C61.2593 58.3742 60.8249 57.8282 60.3627 57.0898C60.189 57.5489 59.9904 57.8437 59.978 58.1477C59.8725 60.2945 59.8198 62.4445 59.7205 64.5913C59.5406 68.3607 59.2893 72.1301 59.1652 75.8995C59.0938 78.0866 59.2489 80.2831 59.2365 82.4734C59.2272 84.2976 60.0928 85.7743 61.0545 87.1859C61.7836 88.2562 62.6771 89.2148 63.524 90.2014C63.7877 90.5085 63.9366 90.7691 63.8187 91.2004C63.6791 91.7092 63.6574 92.2521 63.5581 92.7733C63.4589 93.2945 63.6264 93.6978 64.0142 94.039C64.9201 94.8301 65.9004 95.2645 67.1072 94.7402C67.6284 94.5168 68.1589 94.3182 68.6677 94.1135C68.19 94.9759 67.3678 95.5344 66.4216 95.6523C66.0307 95.7019 65.6429 95.7764 65.2613 95.8725C64.8797 95.9687 64.5106 96.1083 64.0607 96.2541C63.707 95.1466 63.3596 94.0794 63.0276 93.009C62.4165 91.039 61.6098 89.1652 60.2541 87.583C59.3234 86.4972 58.9356 85.1911 58.5168 83.857C57.8187 81.6233 57.0773 79.3865 55.7246 77.4289C55.7153 77.4134 55.7153 77.3886 55.706 77.3731C54.8653 76.0018 54.2386 75.9119 53.0442 76.9915C52.9697 77.0567 52.9015 77.1249 52.7433 77.2707C52.6998 76.2966 52.6533 75.4062 52.6223 74.5158C52.5354 72.0122 52.2469 69.5365 51.5209 67.1322C51.0587 65.5934 50.553 64.067 50.0163 62.5531H50.007ZM43.6378 126.409C43.402 126.586 43.1787 126.778 42.9181 126.989C40.7929 124.799 38.0628 123.257 36.0773 120.862C34.7836 119.302 33.4341 117.704 32.8043 115.821C32.038 113.525 30.9832 111.285 30.7661 108.816C30.7288 108.388 30.5706 107.969 30.4651 107.544C30.3845 107.553 30.3007 107.562 30.2201 107.572C29.7857 108.223 30.0153 108.952 30.0277 109.659C29.1156 108.372 28.0267 102.803 28.4331 101.302C28.6906 101.683 28.9109 102.021 29.1435 102.356C29.4786 102.837 29.7547 103.368 30.4062 103.538C30.5613 103.579 30.704 103.83 30.7723 104.016C30.9181 104.404 30.9801 104.823 31.1353 105.204C31.2221 105.422 31.4269 105.592 31.5789 105.785C31.6502 105.785 31.7185 105.785 31.7899 105.788C31.9295 105.428 32.1683 105.071 32.1932 104.702C32.2986 103.126 32.3297 101.547 32.4103 99.9677C32.4258 99.6636 32.5375 99.3658 32.6058 99.0649C32.6678 99.0649 32.7299 99.0649 32.7919 99.0649C33.068 99.6419 33.3597 100.213 33.614 100.802C33.9429 101.562 34.4455 102.183 35.0846 102.695C35.4413 102.98 35.7795 103.219 36.3131 103.067C36.6264 102.977 37.008 103.123 37.3586 103.166C37.6595 103.203 37.9605 103.244 38.249 103.281C38.4817 104.652 38.674 106.061 38.9625 107.447C39.3876 109.489 39.8219 111.533 40.3524 113.55C41.0659 116.268 41.8384 118.97 42.6668 121.653C43.0111 122.773 43.5571 123.831 44.0256 124.911C44.2676 125.469 44.128 126.04 43.6347 126.409H43.6378ZM56.463 124.293C55.402 126.248 54.1921 128.091 52.6192 129.679C52.4951 129.806 52.3586 129.921 52.2221 130.036C52.1817 130.07 52.1228 130.085 51.9894 130.151C50.7702 128.215 49.4579 126.329 48.3689 124.324C47.6957 123.09 47.3638 121.675 46.8767 120.341C45.8374 117.508 44.7174 114.704 43.7805 111.837C42.8684 109.039 42.3224 106.144 42.1673 103.191C42.0494 100.964 41.9998 98.7298 41.7981 96.5085C41.6802 95.2179 42.3845 94.34 42.9739 93.3658C43.0763 93.1983 43.1849 93.037 43.2748 92.8632C43.9108 91.644 45.0028 90.31 45.9087 89.643C46.0825 89.9842 46.2128 90.3596 46.4392 90.6637C46.8736 91.2407 47.3824 91.1786 47.5406 90.4899C47.7391 89.6368 47.8353 88.7526 47.916 87.8746C47.9718 87.2883 47.9284 86.6926 47.9284 86.0442C48.0153 86.159 48.1021 86.2428 48.1549 86.3452C48.7939 87.5892 49.433 88.8333 50.0659 90.0773C50.2459 90.4341 50.4413 90.7102 50.9284 90.6109C51.6264 90.4682 51.8405 90.1859 51.6636 89.4196C51.4868 88.6564 51.3999 87.8188 51.0183 87.1642C50.3762 86.0597 51.0835 85.3369 51.5209 84.5241C51.7691 84.0618 52.1383 83.6678 52.4175 83.2211C52.979 82.3245 53.5189 81.4155 54.0835 80.4848C55.0235 83.2552 56.0287 85.9232 56.8136 88.6533C57.2634 90.2169 57.3999 91.8767 57.6016 93.4992C57.9615 96.3875 58.1073 99.2914 57.9677 102.198C57.8994 103.616 57.7443 105.031 57.6295 106.449C57.6233 106.507 57.6171 106.566 57.6171 106.625C57.6078 107.078 57.4123 107.634 58.1166 107.755C58.7495 107.863 59.5406 107.82 59.6522 106.988C59.8415 105.567 60.1114 104.147 60.1828 102.719C60.2758 100.895 60.2045 99.0618 60.2045 97.2345C60.2634 97.2252 60.3224 97.2159 60.3813 97.2066C60.6047 98.2179 60.8963 99.2231 61.0421 100.247C61.4392 103.045 61.7588 105.862 61.5013 108.688C61.3461 110.413 61.0886 112.141 60.6946 113.826C60.4278 114.965 59.8105 116.016 59.4103 117.127C58.5354 119.559 57.7133 122.007 56.4754 124.29L56.463 124.293ZM72.0152 106.048C71.4506 107.041 71.4133 107.981 71.4164 108.884C71.4288 110.767 70.8301 112.489 70.1848 114.208C69.8684 115.058 69.5116 115.892 69.1889 116.736C68.159 119.438 66.5271 121.737 64.4609 123.735C63.0431 125.106 61.6098 126.459 60.1797 127.818C59.9997 127.988 59.7981 128.137 59.6057 128.295C59.5406 128.264 59.4723 128.236 59.4072 128.205C59.5375 127.784 59.6212 127.343 59.8043 126.949C60.4775 125.506 61.2841 124.123 61.8487 122.64C62.5809 120.716 63.1983 118.74 63.7257 116.748C64.0948 115.349 64.2624 113.891 64.464 112.455C64.6688 110.972 64.9232 109.48 64.9449 107.99C64.9883 105.254 64.8766 102.518 64.8301 99.7195C64.9821 99.7102 65.3234 99.6326 65.6398 99.6854C66.5581 99.8374 67.1941 99.3658 67.737 98.7515C68.4413 97.9542 69.0897 97.1104 69.8528 96.1735C69.8528 97.1166 69.8591 97.948 69.8528 98.7764C69.8404 99.8808 69.8591 100.991 69.7846 102.093C69.7225 102.989 70.2034 103.507 70.8766 103.898C71.3916 104.196 71.5747 103.703 71.6305 103.377C71.7608 102.623 71.8446 101.848 71.8384 101.085C71.8322 100.532 71.9687 100.144 72.4278 99.8436C73.3927 99.2107 74.3389 98.5561 75.4154 97.8301C75.5333 101.603 75.0959 105.025 72.7412 108.025C72.5023 107.379 72.2789 106.784 72.009 106.058L72.0152 106.048ZM73.1196 115.597C73.433 114.729 73.7153 113.997 73.9604 113.252C74.342 112.076 74.6708 110.882 75.0772 109.712C75.3347 108.977 75.7008 108.279 76.0111 107.562C76.706 105.961 77.0938 104.277 77.3141 102.552C77.5653 100.576 77.8011 98.5995 78.0555 96.6264C78.0803 96.4403 78.1486 96.22 78.2758 96.0959C78.8745 95.5096 79.191 94.8208 79.16 93.9553C79.5105 99.7567 79.405 105.592 80.6863 111.347C78.2075 112.737 75.738 114.127 73.1165 115.597H73.1196ZM107.615 89.7422C106.951 91.098 106.386 92.5065 105.775 93.887C105.722 94.008 105.632 94.1135 105.536 94.2624C105.403 94.1073 105.297 93.9832 105.17 93.8343C104.46 94.2283 104.404 94.9822 104.128 95.5871C103.017 98.007 102.391 100.591 101.587 103.117C100.911 105.248 100.064 107.323 99.2819 109.424C98.5777 111.316 97.8642 113.202 97.1506 115.092C96.9707 115.569 96.7876 116.044 96.6015 116.522C96.4619 116.876 96.2075 117.059 95.8197 117.028C94.799 116.944 93.7783 116.857 92.6087 116.761C92.767 116.15 92.9066 115.585 93.0586 115.023C93.496 113.42 93.828 111.8 93.6946 110.122C93.6698 109.836 93.5519 109.56 93.4991 109.275C93.4154 108.803 93.3688 108.322 93.2695 107.854C93.2261 107.646 93.1144 107.441 92.9872 107.271C92.9004 107.156 92.7266 107.106 92.5963 107.019C91.8952 106.545 91.889 106.653 91.3926 107.299C90.1796 108.878 90.1796 110.755 89.9252 112.57C89.7452 113.869 89.6367 115.179 89.4909 116.544C88.2995 116.447 87.04 116.32 85.9107 115.653C85.7494 115.557 85.6377 115.278 85.6098 115.067C85.464 114.012 85.3833 112.945 85.2251 111.893C85.0793 110.919 84.8466 109.957 84.676 108.986C84.4371 107.627 84.1858 106.272 84.0059 104.904C83.7329 102.856 83.5157 100.799 83.2737 98.7453C83.2582 98.6274 83.2458 98.5127 83.2334 98.3979C83.8383 98.1249 83.9624 97.8146 83.7391 97.0204C83.4257 95.9067 83.1279 94.7898 82.7556 93.6978C82.1662 91.9697 81.4836 90.2759 80.9035 88.5447C80.3171 86.795 79.7711 85.0266 79.2747 83.249C78.8497 81.7319 78.4898 80.1932 78.1517 78.6544C77.829 77.1932 77.5498 75.7226 77.2892 74.2459C77.0379 72.8064 76.8022 71.3638 76.6253 69.915C76.4547 68.5034 76.3213 67.0856 76.2592 65.6679C76.1538 63.2604 76.0731 60.8499 76.0607 58.4393C76.0514 56.8633 76.1786 55.2873 76.2499 53.7113C76.253 53.6244 76.2996 53.5407 76.3833 53.2708C77.1279 54.9523 77.8166 56.4693 78.4712 58.0019C78.8187 58.8147 79.0886 59.6617 79.4113 60.4869C79.5571 60.8592 79.5416 61.095 79.16 61.3649C78.2013 62.0474 77.9531 63.1425 77.7577 64.2097C77.3575 66.3907 77.6584 68.5065 78.5488 70.5262C78.7598 71.007 79.0731 71.46 79.405 71.8695C79.9138 72.4931 81.282 72.6327 81.9521 72.1828C82.0948 72.0867 82.2375 71.9874 82.4981 71.8105C82.6563 72.884 82.8704 73.8643 82.9293 74.854C83.1341 78.2263 83.2458 81.6047 83.4754 84.9739C83.587 86.6058 83.8663 88.2252 84.0896 89.8477C84.3378 91.6626 84.6108 93.4775 84.8683 95.2924C85.1879 97.5385 86.5033 99.22 87.9614 100.833C88.7804 101.739 89.5498 102.695 90.3874 103.585C90.8435 104.069 91.3771 104.482 91.9045 104.888C92.0441 104.994 92.3978 105.043 92.4909 104.95C93.2137 104.24 94.2468 104.277 95.0751 103.821C96.5146 103.027 98.0007 102.316 99.434 101.51C100.129 101.119 100.504 100.445 100.725 99.6667C101.255 97.7929 101.792 95.916 102.394 94.0608C102.707 93.0897 103.2 92.1807 103.545 91.219C104.016 89.9036 104.373 88.5447 104.876 87.2417C105.546 85.5044 106.303 83.8043 107.025 82.0887C107.388 81.2262 107.72 80.3483 108.124 79.5044C108.583 78.5489 109.098 77.6182 109.616 76.6906C109.681 76.5758 109.951 76.4579 110.066 76.5013C110.841 76.8054 111.518 76.6689 112.157 76.1632C113.494 75.1053 114.542 73.7775 115.355 72.3162C115.939 71.2707 116.367 70.0825 116.094 68.795C116.063 68.6492 116.128 68.4352 116.227 68.3204C116.754 67.7092 117.356 67.157 117.834 66.5117C118.473 65.6492 119.022 64.7247 119.602 63.8219C119.792 63.5272 119.965 63.2263 120.235 62.7795C120.26 63.0805 120.304 63.2449 120.276 63.3938C120.111 64.2594 119.969 65.1311 119.748 65.9843C119.447 67.1415 119.212 68.3359 118.718 69.4124C118.033 70.914 117.136 72.3162 116.339 73.7681C115.408 75.462 114.502 77.1683 113.559 78.8529C112.51 80.7237 111.4 82.5634 110.367 84.4434C109.408 86.1869 108.484 87.9491 107.609 89.7329L107.615 89.7422ZM128.053 128.361C126.775 127.151 125.54 125.99 124.318 124.821C123.834 124.359 123.397 123.844 122.894 123.406C121.315 122.032 120.235 120.273 119.239 118.483C118.594 117.322 118.241 116.001 117.704 114.775C116.723 112.542 116.187 110.224 116.15 107.783C116.14 107.252 115.939 106.722 115.827 106.191C115.756 106.182 115.681 106.172 115.61 106.163C115.383 106.762 115.16 107.361 114.915 108.003C112.563 105.028 112.132 101.596 112.234 98.0008C113.519 98.5158 114.636 99.2355 115.604 100.172C115.734 100.3 115.78 100.551 115.796 100.749C115.852 101.457 115.867 102.17 115.92 102.878C115.939 103.11 115.985 103.355 116.087 103.563C116.283 103.948 116.531 104.125 116.969 103.787C117.574 103.321 117.896 102.809 117.868 101.99C117.806 100.098 117.847 98.2024 117.847 96.1952C118.154 96.5861 118.399 96.9491 118.693 97.2624C119.392 98.007 120.09 98.7484 120.834 99.4434C121.014 99.614 121.358 99.6481 121.635 99.6698C122.081 99.704 122.531 99.6791 122.953 99.6791C122.844 101.308 122.674 102.856 122.658 104.407C122.643 106.2 122.711 108 122.841 109.787C122.947 111.239 123.093 112.7 123.406 114.118C123.918 116.416 124.557 118.69 125.187 120.961C125.754 122.997 126.648 124.901 127.721 126.716C128.01 127.206 128.308 127.65 128.053 128.357V128.361ZM139.436 123.999C138.912 125.302 138.027 126.459 137.27 127.663C136.746 128.497 136.163 129.291 135.515 130.234C134.767 129.366 134.007 128.572 133.349 127.697C131.478 125.215 130.163 122.438 129.105 119.531C128.478 117.809 127.709 116.137 127.16 114.391C126.738 113.044 126.446 111.633 126.294 110.23C125.851 106.154 126.158 102.108 127.076 98.1093C127.147 97.8053 127.253 97.5075 127.467 97.2159C127.467 99.0307 127.414 100.846 127.486 102.657C127.538 103.991 127.731 105.325 127.923 106.65C127.976 107.004 128.196 107.506 128.466 107.609C128.879 107.767 129.434 107.733 129.862 107.587C130.02 107.531 130.085 106.914 130.033 106.579C129.636 104.066 129.648 101.534 129.676 99.0059C129.707 96.3348 130.064 93.6947 130.43 91.0484C130.861 87.946 131.919 85.0577 133.088 82.1911C133.299 81.673 133.38 81.099 133.538 80.4848C133.985 81.1828 134.416 81.8343 134.832 82.4982C135.477 83.5282 136.132 84.5551 136.734 85.6099C136.876 85.8612 136.904 86.2459 136.833 86.5313C136.6 87.4651 136.287 88.3772 136.023 89.3017C135.794 90.1145 136.008 90.4651 136.724 90.614C137.208 90.7133 137.407 90.4434 137.59 90.0835C138.223 88.8364 138.862 87.5923 139.498 86.3483C139.548 86.249 139.616 86.1559 139.771 85.9077C139.771 87.0308 139.737 87.9863 139.786 88.9356C139.814 89.4568 139.948 89.9842 140.103 90.4868C140.314 91.1693 140.779 91.2438 141.214 90.6668C141.443 90.3627 141.573 89.9873 141.794 89.553C142.392 90.2262 143.066 90.8312 143.547 91.5633C144.366 92.8043 145.101 94.1042 145.783 95.4227C145.966 95.7733 145.839 96.2945 145.821 96.735C145.709 99.161 145.669 101.596 145.442 104.01C145.138 107.24 144.465 110.404 143.348 113.46C142.061 116.981 140.823 120.518 139.43 123.996L139.436 123.999ZM157.669 109.697C157.634 108.977 157.88 108.223 157.439 107.568C157.365 107.556 157.29 107.544 157.216 107.531C157.107 107.925 156.955 108.313 156.899 108.713C156.663 110.382 156.229 111.986 155.596 113.55C155.326 114.217 155.264 114.968 154.982 115.628C154.65 116.401 154.194 117.127 153.766 117.856C152.128 120.623 149.869 122.807 147.335 124.743C146.429 125.435 145.582 126.211 144.639 127.008C144.313 126.633 143.9 126.245 143.606 125.783C143.481 125.587 143.512 125.19 143.63 124.967C145.064 122.181 145.821 119.168 146.593 116.165C147.285 113.475 147.977 110.786 148.588 108.077C148.914 106.638 149.069 105.161 149.298 103.703C149.323 103.551 149.342 103.399 149.357 103.3C149.692 103.256 149.975 103.2 150.257 103.185C150.719 103.157 151.194 103.203 151.647 103.123C151.976 103.064 152.305 102.887 152.581 102.688C153.654 101.935 154.082 100.74 154.61 99.6171C154.69 99.4434 154.759 99.2665 154.833 99.0897C154.895 99.0835 154.957 99.0742 155.019 99.068C155.1 99.3565 155.233 99.6388 155.249 99.9304C155.332 101.528 155.367 103.126 155.466 104.724C155.488 105.08 155.708 105.425 155.838 105.775C155.925 105.785 156.012 105.794 156.096 105.806C156.26 105.549 156.465 105.307 156.583 105.028C156.722 104.702 156.766 104.339 156.887 104.007C156.949 103.836 157.07 103.591 157.209 103.557C157.926 103.374 158.227 102.797 158.571 102.242C158.764 101.931 158.996 101.649 159.266 101.274C159.552 104.32 158.624 107.013 157.672 109.703L157.669 109.697Z" fill="black"/>
</g>
<defs>
<clipPath id="clip0_469_206">
<rect width="184.591" height="182.419" fill="white"/>
</clipPath>
</defs>
</svg>
