<svg width="476" height="182" viewBox="0 0 476 182" fill="none" xmlns="http://www.w3.org/2000/svg">
<path d="M236.098 181.902C231.93 181.524 227.062 180.344 224.904 179.188C222.122 177.699 221.501 176.999 221.483 175.33C221.468 173.998 223.371 170.249 224.552 169.286C225.395 168.598 227.515 168.555 228.723 169.202C230.438 170.119 236.567 171.534 239.051 171.586C240.638 171.619 242.243 171.327 243.439 170.788C244.997 170.085 245.326 169.719 245.326 168.688C245.326 167.19 243.689 165.752 241.326 165.173C230 162.399 229.254 162.104 226.414 159.27C224.553 157.413 223.794 156.259 223.376 154.65C221.199 146.271 225.34 139.422 233.762 137.473C239.202 136.214 249.754 136.924 253.771 138.819C256.23 139.979 256.76 141.23 256.187 144.524C255.805 146.722 255.423 147.564 254.45 148.352C252.903 149.606 252.976 149.607 247.844 148.242C240.276 146.228 234.522 146.904 234.522 149.806C234.522 151.863 236.673 153.192 241.727 154.26C247.594 155.499 251.664 157.07 254.029 159.008C255.687 160.367 256.196 161.181 257.052 163.843C257.95 166.635 258.022 167.365 257.613 169.571C256.691 174.559 255.353 176.686 251.636 179.071C248.704 180.953 241.034 182.35 236.098 181.902ZM324.1 181.933C316.115 180.894 315.118 180.674 312.443 179.363C308.642 177.499 308.12 176.383 309.356 172.762C310.046 170.741 310.568 169.988 311.702 169.377C313.303 168.515 313.491 168.538 319.148 170.295C324.198 171.863 328.933 172.024 330.723 170.689C332.199 169.587 332.499 168.542 331.742 167.129C331.147 166.017 328.155 164.672 326.277 164.672C324.109 164.672 316.278 161.871 314.744 160.547C313.931 159.845 313.093 159.27 312.883 159.27C312.673 159.27 312.378 158.916 312.227 158.482C312.076 158.049 311.451 156.783 310.837 155.669C309.347 152.965 309.267 148.503 310.651 145.287C311.177 144.065 311.784 143.065 312.002 143.065C312.219 143.065 312.396 142.776 312.396 142.422C312.396 141.832 314.973 139.838 317.456 138.504C321.759 136.194 335.023 136.309 340.305 138.702C343.859 140.313 344.272 141.358 342.947 145.398C341.59 149.54 340.73 149.841 334.781 148.258C325.353 145.749 318.456 147.734 322.511 151.788C323.708 152.985 324.73 153.365 329.952 154.551C337.863 156.349 340.924 157.949 343.241 161.497C344.378 163.237 344.605 164.078 344.742 167.067C344.903 170.564 344.166 173.722 342.853 175.165C342.566 175.48 342.11 176.128 341.84 176.605C341.357 177.461 340.229 178.251 337.154 179.891C334.975 181.053 326.964 182.306 324.1 181.933ZM41.5858 181.132C39.2823 180.129 39.13 178.927 40.0909 169.332C40.5582 164.664 41.3779 156.4 41.9122 150.966C42.4466 145.532 43.1662 140.41 43.5114 139.584C44.3576 137.559 45.7727 137.113 50.7926 137.29C54.7551 137.43 55.0581 137.511 56.0818 138.701C56.679 139.396 57.1676 140.27 57.1676 140.643C57.1676 141.017 57.659 142.397 58.2595 143.709C58.8601 145.022 59.5873 146.973 59.8756 148.043C60.1639 149.114 60.8879 151.002 61.4846 152.239C62.0812 153.475 62.5693 154.79 62.5693 155.159C62.5693 156.253 64.481 160.155 64.8921 159.901C65.1 159.772 65.2701 159.364 65.2701 158.994C65.2701 158.624 65.7081 157.369 66.2434 156.207C66.7788 155.045 67.6903 152.828 68.2691 151.28C68.8478 149.733 69.794 147.201 70.3717 145.654C70.9494 144.106 71.9568 141.718 72.6103 140.347C74.3503 136.695 76.1589 136.23 83.6314 137.516C85.6962 137.871 86.8772 140.253 86.8757 144.06C86.875 145.617 87.4906 152.492 88.2436 159.337C89.0726 166.873 89.5613 173.441 89.4826 175.989L89.3525 180.196L87.7771 180.965C84.4047 182.611 79.1549 181.716 78.3316 179.354C78.0724 178.611 77.518 172.948 77.0994 166.77C76.6809 160.592 76.2077 156.022 76.0479 156.616C75.8881 157.209 75.2207 158.751 74.565 160.043C73.9092 161.335 73.3726 162.673 73.3726 163.018C73.3726 163.363 72.7649 164.784 72.0222 166.175C71.2795 167.567 70.6718 168.998 70.6718 169.355C70.6718 169.712 70.1474 170.628 69.5064 171.389C68.3586 172.754 68.278 172.774 64.1448 172.774C60.0385 172.774 59.9242 172.746 58.8166 171.429C58.194 170.689 57.3472 168.923 56.9347 167.504C56.5222 166.085 55.7981 164.166 55.3257 163.24C54.8533 162.314 54.4668 161.201 54.4668 160.766C54.4668 160.331 54.1293 159.092 53.7168 158.012C53.1401 156.502 52.8774 156.208 52.5792 156.741C52.3659 157.122 52.0755 161.746 51.9337 167.017C51.6311 178.272 51.3719 179.681 49.3798 180.896C47.6684 181.939 43.7163 182.059 41.5858 181.132ZM167.8 181.075C166.774 180.518 164.092 177.17 162.275 174.177C161.83 173.444 161.178 172.541 157.764 167.935C156.036 165.603 155.982 165.572 153.63 165.572H151.247L151.237 172.212C151.223 180.92 151.148 181.038 145.495 181.257C141.758 181.401 141.404 181.336 140.18 180.283L138.868 179.155L138.741 160.366L138.614 141.578L139.754 139.854C140.382 138.906 141.351 138.033 141.907 137.915C146.863 136.858 149.064 136.614 153.947 136.579C162.188 136.519 166.89 137.46 171.294 140.05C172.961 141.03 175.377 144.161 175.92 146.043C176.65 148.573 176.591 152.798 175.79 155.475C175.152 157.608 171.828 161.967 170.828 161.984C170.58 161.988 169.871 162.4 169.252 162.899L168.127 163.807L169.14 164.52C169.697 164.911 170.152 165.466 170.152 165.752C170.152 166.038 170.709 166.802 171.39 167.449C172.071 168.096 173.167 169.306 173.825 170.137C174.484 170.969 175.75 172.529 176.639 173.605C178.594 175.971 178.723 177.585 177.088 179.22C175.916 180.393 172.053 181.793 170.083 181.759C169.502 181.749 168.475 181.441 167.8 181.075ZM160.551 155.972C161.336 155.682 162.602 154.885 163.364 154.203C164.522 153.166 164.751 152.629 164.751 150.942C164.751 149.101 164.59 148.806 162.939 147.61C160.814 146.071 157.851 145.538 153.94 145.992L151.247 146.305V151.437V156.569L155.185 156.535C157.352 156.516 159.766 156.263 160.551 155.972ZM263.559 181.074C260.681 180.448 258.83 178.938 258.83 177.215C258.83 176.715 259.551 174.751 260.432 172.852C261.313 170.952 262.528 168.335 263.132 167.035C264.835 163.373 268.76 154.847 271.057 149.817C274.239 142.852 274.695 141.864 275.361 140.488C276.659 137.81 277.412 137.454 282.142 137.28C284.514 137.192 287.198 137.344 288.107 137.616C289.592 138.061 289.946 138.498 291.624 141.964C292.651 144.083 293.49 145.994 293.49 146.211C293.49 146.428 294.073 147.783 294.785 149.224C295.497 150.664 296.735 153.362 297.535 155.219C298.336 157.076 299.576 159.831 300.292 161.341C301.007 162.852 301.593 164.237 301.593 164.418C301.593 164.6 302.179 165.998 302.894 167.524C306.165 174.497 306.64 175.703 306.68 177.128C306.742 179.312 305.464 180.355 301.782 181.125C300.069 181.484 298.132 181.777 297.477 181.777C296.074 181.777 293.49 179.549 293.49 178.338C293.49 177.883 293.136 176.645 292.703 175.587L291.915 173.663L282.482 173.781L273.048 173.9L272.516 175.738C271.342 179.794 269.598 181.832 267.395 181.719C266.769 181.686 265.043 181.396 263.559 181.074ZM288.089 163.56C288.089 162.948 287.606 161.378 287.016 160.071C286.426 158.764 285.804 157.188 285.633 156.569C285.462 155.95 284.798 154.173 284.158 152.62L282.993 149.797L281.49 152.993C280.663 154.751 279.986 156.427 279.985 156.717C279.984 157.007 279.377 158.46 278.636 159.945C277.895 161.431 277.288 163.102 277.287 163.659C277.285 164.653 277.385 164.672 282.687 164.672H288.089V163.56ZM98.9119 181.041C96.8973 180.451 96.7798 179.294 96.7798 160.023C96.7798 140.027 96.8841 139.142 99.3478 138.218C102.196 137.15 106.778 136.562 112.085 136.584C123.731 136.631 130.026 139.171 133.17 145.091C134.214 147.058 134.362 147.853 134.346 151.393C134.329 155.026 134.183 155.723 132.928 158.145C131.266 161.354 128.998 163.468 125.602 164.975C121.844 166.642 118.177 167.359 113.366 167.366L109.02 167.373L108.864 173.653C108.76 177.868 108.525 180.116 108.15 180.491C107.578 181.062 100.436 181.487 98.9119 181.041ZM117.577 156.967C120.343 156.384 120.824 156.066 121.753 154.202C123.812 150.074 121.038 146.757 115.163 146.323C113.514 146.201 111.438 146.237 110.549 146.404L108.934 146.707V152.088V157.47H112.062C113.783 157.47 116.265 157.243 117.577 156.967ZM1.75779 180.089C0.0195843 177.924 0 177.697 0 159.712C0 140.711 0.086257 139.946 2.39851 138.431C3.44195 137.747 5.18571 137.664 18.4143 137.664C35.7413 137.664 34.6607 137.33 34.6607 142.683C34.6607 145.407 34.5452 145.792 33.4746 146.634C32.3569 147.513 31.7219 147.567 22.4462 147.567H12.6039V150.718V153.869H19.1514C25.5028 153.869 25.7319 153.902 26.8037 154.973C27.7456 155.915 27.9086 156.501 27.9086 158.946C27.9086 161.362 27.7444 161.968 26.8668 162.793C25.8947 163.706 25.3821 163.772 19.2144 163.772H12.6039V167.373V170.974H22.5416H32.4792L33.8478 172.342C35.1256 173.62 35.2036 173.888 35.0236 176.377C34.6802 181.123 35.6252 180.877 17.7805 180.877C3.66412 180.877 2.33788 180.812 1.75779 180.089ZM184.822 179.492L183.657 178.107V159.517V140.928L185.152 139.296L186.646 137.664H201.781C219.429 137.664 218.317 137.329 218.317 142.645C218.317 147.38 218.481 147.314 206.342 147.478L196.26 147.614V150.742V153.869L202.675 153.875C206.203 153.879 209.312 154.031 209.585 154.213C211.209 155.298 211.717 160.635 210.388 162.662C209.669 163.759 209.586 163.772 202.961 163.772H196.26V167.349V170.926L206.342 171.062C218.571 171.228 218.317 171.12 218.317 176.15C218.317 181.181 219.41 180.877 201.329 180.877H185.987L184.822 179.492ZM392.089 158.771C391.481 158.528 390.67 158.043 390.289 157.693C388.236 155.811 385.848 153.869 385.588 153.869C384.95 153.869 382.383 150.505 381.847 148.966C381.127 146.9 381.124 144.19 381.84 142.137C382.401 140.528 387.361 133.825 389.258 132.113C389.815 131.611 390.27 130.942 390.27 130.628C390.27 130.313 390.533 129.894 390.854 129.696C391.175 129.498 392.836 127.564 394.546 125.397C396.255 123.231 397.816 121.459 398.013 121.459C398.211 121.459 398.373 121.193 398.373 120.868C398.373 120.543 398.981 119.694 399.723 118.983C400.466 118.271 401.074 117.423 401.074 117.098C401.074 116.773 401.258 116.507 401.483 116.507C402.123 116.507 406.178 111.089 407.103 108.996C408.866 105.01 406.358 100.996 401.51 100.043C400.156 99.7771 397.225 99.1005 394.997 98.5397C392.769 97.9788 388.515 96.9107 385.544 96.1661C382.573 95.4214 379.821 94.7277 379.429 94.6244C378.462 94.37 375.714 91.8166 374.722 90.251C373.148 87.7667 373.969 80.0442 376.357 74.8692C378.032 71.2389 381.573 69.3638 385.842 69.8459C389.938 70.3083 393.079 70.9308 396.122 71.8831C397.731 72.3866 400.263 73.0095 401.749 73.2672C403.234 73.525 405.557 74.0415 406.911 74.4151C410.49 75.4025 412.169 75.2936 413.473 73.9894C414.081 73.3817 414.578 72.5113 414.578 72.0551C414.578 71.2447 411.529 67.892 410.792 67.892C410.146 67.892 403.786 62.2697 403.762 61.6772C403.755 61.5055 403.147 60.5693 402.412 59.5968C401.676 58.6243 401.074 57.6274 401.074 57.3814C401.074 57.1355 400.535 55.6017 399.876 53.973C398.918 51.6041 398.641 50.0665 398.491 46.2854C398.297 41.4065 398.292 41.4337 400.789 34.8048C401.539 32.8137 403.716 29.7829 406.088 27.4277C408.297 25.2337 412.009 22.428 412.702 22.428C412.93 22.428 414.305 21.8891 415.76 21.2304C418.022 20.206 419.185 20.0035 423.806 19.8297C429.141 19.6291 429.259 19.6464 433.362 21.2313C435.647 22.114 438.584 23.6303 439.889 24.601C442.311 26.4024 446.538 30.637 446.538 31.2616C446.538 31.4518 447.062 32.3647 447.704 33.2901C448.345 34.2156 449.067 35.7457 449.308 36.6904C450.526 41.4647 451.009 43.9756 451.023 45.6112C451.049 48.481 449.007 55.9166 447.414 58.7588C445.757 61.715 441.592 65.9214 438.11 68.157C436.635 69.1035 435.652 70.0907 435.472 70.8047C435.132 72.1598 435.594 74.2755 436.333 74.7453C437.26 75.335 439.924 75.1199 443.162 74.194C444.893 73.6988 446.763 73.2937 447.317 73.2937C447.871 73.2937 450.016 72.8036 452.083 72.2047C457.377 70.6704 463.869 69.5439 465.869 69.8123C468.24 70.1302 470.403 71.3036 471.871 73.0681C473.466 74.9865 475.997 84.3573 475.603 86.8875C475.111 90.0461 471.906 94.1497 469.495 94.7082C468.876 94.8516 466.295 95.5612 463.759 96.2851C461.223 97.0089 458.71 97.6012 458.175 97.6012C457.639 97.6012 455.055 98.1932 452.432 98.9167C449.809 99.6402 447.069 100.362 446.343 100.521C445.617 100.68 444.25 101.584 443.305 102.529C441.875 103.959 441.586 104.556 441.586 106.086C441.586 107.925 442.78 111.105 443.47 111.105C443.672 111.105 443.837 111.371 443.837 111.696C443.837 112.021 444.445 112.87 445.187 113.581C445.93 114.293 446.538 115.147 446.538 115.48C446.538 115.813 446.819 116.193 447.162 116.325C447.506 116.457 449.063 118.223 450.623 120.249C452.183 122.276 453.725 124.096 454.05 124.294C454.375 124.492 454.64 124.937 454.64 125.282C454.64 125.627 455.069 126.209 455.592 126.576C456.116 126.943 456.925 127.815 457.39 128.514C457.855 129.214 459.649 131.508 461.378 133.612C466.875 140.307 467.847 141.956 468.064 144.961C468.267 147.771 467.294 150.88 466.062 151.352C465.722 151.483 465.436 151.849 465.427 152.166C465.41 152.73 464.514 153.461 459.061 157.357C456.55 159.151 456.195 159.27 453.374 159.268C449.54 159.266 447.817 158.185 443.698 153.193C442.063 151.213 440.362 149.21 439.918 148.743C439.474 148.276 438.807 147.445 438.435 146.898C437.223 145.109 430.283 136.585 428.443 134.623C425.113 131.073 423.432 131.49 418.909 136.988C418.298 137.731 417.074 139.174 416.188 140.194C415.302 141.214 414.578 142.278 414.578 142.557C414.578 142.837 414.392 143.065 414.165 143.065C413.938 143.065 412.369 144.837 410.678 147.003C408.986 149.169 407.299 151.29 406.927 151.716C406.555 152.143 405.744 153.111 405.125 153.869C402.925 156.559 401.508 157.865 399.789 158.785C398.673 159.382 393.597 159.373 392.089 158.771ZM300.468 127.905C292.182 126.857 287.605 125.422 281.562 121.978C278.489 120.226 272.334 115.235 272.334 114.494C272.334 114.235 271.944 113.779 271.467 113.481C270.99 113.184 269.94 111.97 269.133 110.785C268.327 109.599 267.546 108.528 267.399 108.405C267.109 108.162 264.446 102.739 262.939 99.3267C260.903 94.716 260.117 84.1717 261.267 76.8948C261.908 72.8352 262.042 72.3588 263.38 69.3599C263.848 68.3104 264.231 67.2187 264.231 66.9339C264.231 66.6491 264.791 65.4822 265.476 64.3407C266.16 63.1992 267.005 61.7082 267.353 61.0274C267.7 60.3466 268.148 59.7895 268.347 59.7895C268.547 59.7895 269.007 59.2325 269.37 58.5517C270.492 56.4505 278.298 48.9862 279.374 48.9862C279.669 48.9862 279.979 48.8343 280.061 48.6486C280.287 48.1413 283.034 46.2854 283.559 46.2854C283.811 46.2854 285.085 45.7202 286.391 45.0294C290.144 43.043 296.503 41.6449 302.718 41.4395C308.1 41.2616 310.494 41.584 316.838 43.3418C321.123 44.529 328.486 48.5252 331.659 51.3864C335.418 54.7751 338.01 57.6747 339.764 60.4517C340.386 61.4382 341.168 62.5174 341.501 62.8501C341.833 63.1828 342.105 63.6857 342.105 63.9677C342.105 64.2497 342.701 65.7038 343.43 67.199C347.372 75.2901 348.416 85.817 346.102 94.1233C345.603 95.9123 345.033 98.0851 344.834 98.9516C344.386 100.904 340.995 107.645 340.079 108.405C339.708 108.713 339.405 109.206 339.405 109.501C339.405 109.796 338.797 110.619 338.054 111.33C337.311 112.042 336.704 112.773 336.704 112.955C336.704 113.365 333.351 116.677 331.593 118.004C330.88 118.542 329.635 119.54 328.827 120.221C328.018 120.902 327.029 121.459 326.629 121.459C326.228 121.459 325.9 121.611 325.9 121.797C325.9 122.193 323.269 123.549 319.148 125.278C314.759 127.119 305.049 128.484 300.468 127.905ZM309.348 100.725C313.229 99.5067 316.974 96.1893 319.036 92.1444C320.404 89.4599 320.499 88.975 320.499 84.6718C320.499 80.8489 320.331 79.7249 319.509 78.0322C318.964 76.9115 318.357 75.9945 318.158 75.9945C317.96 75.9945 317.798 75.696 317.798 75.3312C317.798 74.4685 313.922 70.5929 313.06 70.5929C312.695 70.5929 312.396 70.4283 312.396 70.2271C312.396 70.0259 311.382 69.4182 310.141 68.8767C308.364 68.1008 307.016 67.892 303.782 67.892C300.084 67.892 299.391 68.0331 296.786 69.3158C293.53 70.9188 291.595 72.5828 289.544 75.5444C288.043 77.7111 286.738 82.0202 286.738 84.8077C286.738 88.0893 289.199 94.9004 290.384 94.9004C290.607 94.9004 290.79 95.1976 290.79 95.561C290.79 96.6158 295.347 99.7664 298.254 100.721C301.773 101.877 305.674 101.878 309.348 100.725ZM44.5178 125.746C43.6765 125.134 42.5325 124.43 41.9754 124.182C41.4184 123.934 40.9626 123.447 40.9626 123.1C40.9626 122.753 40.6521 122.211 40.2727 121.896C39.8932 121.582 39.1158 120.392 38.545 119.253C36.9665 116.103 35.1268 112.842 34.1702 111.499C33.6972 110.835 33.3103 110.035 33.3103 109.721C33.3103 109.407 33.0224 108.831 32.6706 108.44C32.3188 108.049 31.4926 106.717 30.8346 105.479C30.1767 104.241 28.8589 101.911 27.9061 100.302C26.9534 98.6928 25.686 96.4646 25.0896 95.3505C22.2233 89.9963 21.0029 87.8648 20.4302 87.2126C20.0869 86.8217 19.8061 86.23 19.8061 85.8976C19.8061 85.5652 19.5183 84.9735 19.1664 84.5826C18.8146 84.1917 17.9726 82.7579 17.2953 81.3962C16.6179 80.0345 15.9191 78.8192 15.7423 78.6954C15.5655 78.5716 14.7916 77.219 14.0224 75.6897C13.2533 74.1604 12.4169 72.7812 12.1638 72.6247C11.9107 72.4683 11.7036 72.0137 11.7036 71.6145C11.7036 71.2154 11.4228 70.569 11.0795 70.1782C10.7363 69.7873 9.79736 68.2521 8.99302 66.7667C8.18868 65.2812 7.01702 63.1543 6.38932 62.0402C3.82478 57.4884 3.60112 56.8756 3.60279 54.4052C3.60549 50.2245 5.80331 47.5682 11.2535 45.158C13.3579 44.2274 16.3199 42.885 17.8357 42.1748C19.4319 41.4271 21.3505 40.8837 22.3947 40.8837C24.1091 40.8837 27.4273 41.9571 27.9086 42.6675C28.0324 42.8502 28.5651 43.2266 29.0925 43.5041C30.0023 43.9828 31.4616 46.4064 33.6808 51.1244C33.8846 51.5576 34.4923 52.773 35.0312 53.8252C38.6901 60.9687 37.2512 58.0936 45.9956 75.7331C50.0358 83.8831 53.5302 90.5318 53.761 90.5079C53.9917 90.4839 54.4839 89.69 54.8547 88.7436C55.2255 87.7972 55.6552 86.9217 55.8096 86.7979C55.9639 86.6741 56.9158 84.851 57.9248 82.7466C58.9339 80.6422 63.5769 71.2482 68.2427 61.871C75.9888 46.3032 76.8961 44.6917 78.6839 43.3267C83.3623 39.7544 85.3331 39.9491 95.5726 44.9948C97.0131 45.7046 98.4559 46.2854 98.7788 46.2854C99.8606 46.2854 103.011 50.1793 103.338 51.9197C103.81 54.4338 103.219 58.736 102.209 60.1375C101.288 61.4169 99.6377 64.2939 98.2784 66.9918C97.8419 67.8583 97.1417 69.0794 96.7225 69.7054C95.9711 70.8274 95.1658 72.2557 92.2882 77.57C91.4839 79.0555 90.5449 80.5906 90.2017 80.9815C89.8584 81.3724 89.5776 82.0162 89.5776 82.4123C89.5776 82.8084 89.2955 83.4145 88.9508 83.7592C88.6061 84.104 87.7692 85.4858 87.0912 86.8299C86.4132 88.1739 85.7142 89.3749 85.538 89.4987C85.3617 89.6225 84.6633 90.8379 83.986 92.1995C83.3086 93.5612 82.4666 94.9951 82.1148 95.3859C81.763 95.7768 81.4751 96.3532 81.4751 96.6669C81.4751 96.9805 81.0882 97.7806 80.6152 98.4448C80.1422 99.109 79.2583 100.558 78.6508 101.665C78.0433 102.772 76.9117 104.792 76.1361 106.154C75.3604 107.516 74.1062 109.744 73.3489 111.105C69.6914 117.682 69.0565 118.76 68.5336 119.279C68.2242 119.587 67.971 120.16 67.971 120.553C67.971 121.285 64.5767 124.79 62.5817 126.119C61.6567 126.735 60.1662 126.86 53.758 126.86C46.2666 126.86 46.0038 126.829 44.5178 125.746ZM120.609 126.04C118.48 124.646 116.715 122.599 115.972 120.662C115.313 118.943 115.236 115.128 115.236 84.5872C115.236 52.968 115.294 50.3038 116.027 48.6668C118.293 43.6049 121.26 42.2353 129.966 42.2319C138.318 42.2285 141.417 43.582 143.819 48.2804C144.697 49.9962 144.72 50.9282 144.72 84.7371C144.72 119.378 144.718 119.436 143.746 121.459C142.857 123.308 141.318 124.835 138.887 126.282C138.254 126.658 135.444 126.823 129.865 126.811C123.061 126.797 121.578 126.673 120.609 126.04ZM197.836 126.433C196.192 125.756 192.785 122.407 191.985 120.683C191.551 119.748 190.716 118.338 190.128 117.55C189.539 116.762 189.058 115.812 189.058 115.438C189.058 115.065 188.851 114.632 188.598 114.475C188.345 114.319 187.509 112.939 186.739 111.41C185.97 109.881 185.191 108.528 185.008 108.405C184.825 108.281 184.12 107.08 183.442 105.736C182.764 104.392 181.927 103.01 181.583 102.665C181.238 102.32 180.956 101.648 180.956 101.17C180.956 100.693 180.792 100.302 180.592 100.302C180.392 100.302 179.531 98.9784 178.679 97.3606C176.242 92.7338 175.36 91.143 174.179 89.2454C173.573 88.2729 172.718 86.7673 172.279 85.8997C170.773 82.9296 168.577 79.1834 168.014 78.6242C167.705 78.3167 167.452 77.7411 167.452 77.345C167.452 76.9488 167.198 76.3732 166.889 76.0657C166.326 75.5069 164.141 71.7625 162.644 68.7923C162.207 67.9258 161.287 66.3701 160.599 65.3352C159.912 64.3002 159.349 63.2715 159.349 63.0491C159.349 62.8267 158.763 61.7491 158.046 60.6544C156.533 58.343 155.994 55.7066 156.413 52.6634C156.643 50.9865 157.135 50.0363 158.62 48.3958C159.67 47.2351 160.821 46.2829 161.177 46.2799C161.534 46.2769 162.678 45.7866 163.721 45.1903C164.764 44.594 166.081 43.9616 166.647 43.7851C167.213 43.6085 168.912 42.8835 170.421 42.1739C173.704 40.6308 176.229 40.5206 178.756 41.8101C182.253 43.594 182.943 44.6413 189.964 58.816C193.724 66.4074 197.065 73.1249 197.389 73.7438C198.075 75.0575 199.332 77.5421 200.122 79.1455C200.428 79.7644 201.035 80.9798 201.473 81.8463C201.911 82.7129 202.518 83.9282 202.823 84.5472C203.128 85.1661 203.682 86.2802 204.054 87.0229C204.426 87.7657 204.985 88.9304 205.298 89.6112C205.61 90.2921 206 90.8491 206.164 90.8491C206.327 90.8491 206.717 90.2921 207.029 89.6112C207.342 88.9304 207.901 87.7657 208.273 87.0229C208.645 86.2802 209.199 85.1661 209.504 84.5472C209.809 83.9282 210.417 82.7129 210.854 81.8463C211.292 80.9798 211.9 79.7644 212.205 79.1455C212.721 78.0974 213.543 76.463 214.921 73.7438C215.235 73.1249 216.146 71.2005 216.947 69.4675C218.49 66.1268 218.8 65.5123 220.16 63.0902C220.632 62.2501 221.018 61.3752 221.018 61.1461C221.018 60.9169 221.626 59.6988 222.369 58.4391C223.111 57.1795 223.719 55.9641 223.719 55.7383C223.719 55.5125 224.327 54.2971 225.069 53.0375C225.812 51.7778 226.42 50.5713 226.42 50.3563C226.42 49.4947 230.138 43.5845 230.68 43.5845C231 43.5845 231.523 43.269 231.843 42.8833C232.738 41.8052 235.325 40.8837 237.456 40.8837C239.307 40.8837 243.246 42.4137 248.543 45.1892C249.694 45.7921 250.931 46.2854 251.293 46.2854C251.978 46.2854 255.226 49.8235 255.76 51.1508C256.579 53.1883 255.837 59.7895 254.789 59.7895C254.596 59.7895 254.176 60.4479 253.857 61.2525C253.538 62.0571 252.703 63.5865 252.002 64.6511C251.301 65.7157 250.727 66.7985 250.727 67.0574C250.727 67.3162 250.34 68.0714 249.867 68.7356C249.038 69.9007 247.728 72.184 245.445 76.4447C244.848 77.5588 243.58 79.787 242.627 81.3962C241.675 83.0054 240.357 85.3349 239.699 86.5728C239.041 87.8107 238.215 89.1433 237.863 89.5341C237.511 89.925 237.223 90.5167 237.223 90.8491C237.223 91.1815 236.942 91.7732 236.599 92.1641C236.256 92.555 235.317 94.0901 234.513 95.5756C232.806 98.7279 231.696 100.702 229.201 105.028C228.201 106.762 226.722 109.445 225.914 110.993C225.107 112.54 224.282 113.806 224.083 113.806C223.883 113.806 223.719 114.197 223.719 114.674C223.719 115.152 223.416 115.845 223.046 116.216C222.675 116.586 221.915 117.765 221.356 118.836C219.46 122.47 218.103 124.099 215.823 125.481L213.547 126.86L206.142 126.832C202.069 126.816 198.331 126.636 197.836 126.433ZM125.542 33.2912C123.898 32.9397 120.212 31.0049 118.664 29.6804C116.696 27.9971 114.355 24.2109 113.687 21.6307C111.757 14.185 114.136 7.28879 120.159 2.86742C123.985 0.05931 130.542 -0.800488 135.942 0.798118C139.42 1.82776 144.813 7.21437 145.881 10.7245C146.718 13.4761 146.899 18.2311 146.278 21.1585C145.321 25.6682 141.16 30.4879 136.424 32.5732C134.643 33.3575 127.926 33.8007 125.542 33.2912Z" fill="white"/>
</svg>
