<svg width="700" height="173" viewBox="0 0 700 173" fill="none" xmlns="http://www.w3.org/2000/svg">
<path d="M70.6773 171.361C48.8417 168.003 27.3009 153.693 14.3232 133.925C-2.57106 108.19 -4.71498 73.3765 8.92865 46.3257C20.9054 22.5797 41.5175 6.79821 67.8917 1.18107C77.8613 -0.942234 96.0927 -0.106044 105.7 2.91511C128.888 10.2071 146.902 25.9773 157.239 48.0342C163.932 62.3172 164.946 67.4265 164.904 86.6704C164.868 103.061 164.773 103.796 161.457 113.475C149.684 147.84 120.442 170.49 85.9379 171.97C81.0777 172.179 74.2104 171.905 70.6773 171.361ZM95.5561 163.999C96.2725 163.024 110.014 120.376 109.612 120.376C109.323 120.376 108.055 121.188 106.794 122.179C105.533 123.171 90.4078 130.17 73.1823 137.733C55.9568 145.296 41.8632 151.826 41.8632 152.243C41.8632 152.661 45.6551 154.835 50.2897 157.076C58.1215 160.863 66.9771 163.514 75.569 164.644C78.7611 165.064 95.1622 164.535 95.5561 163.999ZM119.489 155.406C127.628 150.765 134.975 144.576 140.577 137.643C143.584 133.92 146.045 130.339 146.045 129.685C146.045 129.031 141.511 119.748 135.971 109.056L125.897 89.6166L125.204 94.0165C124.822 96.4364 119.933 112.225 114.339 129.102C108.745 145.98 104.168 160.336 104.168 161.006C104.168 162.449 112.44 159.425 119.489 155.406ZM49.6473 140.167C58.0057 136.446 66.9127 132.485 69.4407 131.364L74.0369 129.325L69.3663 127.66C66.7974 126.743 52.0146 119.444 36.5154 111.439C21.0163 103.434 8.10612 96.8843 7.8262 96.8843C7.54629 96.8843 7.96402 99.757 8.75447 103.268C12.0742 118.013 18.8547 130.93 28.7878 141.433C31.6482 144.458 34.0923 146.932 34.2193 146.932C34.3462 146.932 41.2888 143.888 49.6473 140.167ZM98.323 118.843C105.25 115.426 112.596 107.976 115.731 101.192C117.548 97.258 117.957 94.4988 117.957 86.1597C117.957 77.0457 117.649 75.3201 115.103 70.1341C104.485 48.5139 76.4294 43.0818 58.7647 59.2263C55.4407 62.2642 52.0362 66.6695 50.3348 70.1341C47.7882 75.3201 47.4809 77.0457 47.4809 86.1597C47.4809 97.9389 49.1867 102.872 55.7865 110.177C63.8196 119.068 72.2582 122.603 84.2508 122.098C90.7157 121.827 93.654 121.147 98.323 118.843ZM154.585 112.205C155.987 107.992 157.659 100.678 158.3 95.9516C159.556 86.694 158.785 72.7905 156.953 71.6584C156.345 71.2827 146.96 68.115 136.096 64.619L116.345 58.2627L118.438 61.4866C119.59 63.2598 127.251 77.4979 135.463 93.1267C143.675 108.756 150.763 121.165 151.215 120.704C151.666 120.243 153.183 116.418 154.585 112.205ZM42.8142 101.736C34.2629 77.3159 30.8303 67.9033 25.8572 55.2365C19.3913 38.7673 19.9677 38.97 14.2641 51.159C10.6176 58.9517 7.6389 70.3897 6.70714 80.1771L6.01264 87.4724L24.704 97.2094C34.9842 102.565 43.6871 106.981 44.0436 107.022C44.4002 107.064 43.847 104.685 42.8142 101.736ZM48.3881 56.79C52.2577 47.664 58.3414 33.1303 61.9076 24.4929L68.3915 8.78842L64.2374 9.45268C53.9369 11.0998 39.0511 19.3692 30.204 28.359L25.1837 33.4603L31.9344 50.7234C35.6473 60.2181 38.9904 69.2029 39.3635 70.6895C39.7366 72.1761 40.3368 73.3902 40.6972 73.3875C41.0577 73.3848 44.5185 65.9159 48.3881 56.79ZM150.175 49.2872C145.806 40.3422 143.533 37.1214 136.411 29.7889C129.908 23.0922 127.397 21.1321 125.843 21.5384C124.723 21.8315 115.595 26.5982 105.56 32.131C93.3694 38.8525 87.9928 42.3128 89.3577 42.5585C91.6172 42.9654 123.335 52.7689 142.47 58.9748C152.323 62.1705 154.793 62.6609 155.068 61.4759C155.255 60.6653 153.053 55.1803 150.175 49.2872ZM63.8531 46.821C74.6279 41.3277 118.467 16.6495 118.467 16.0774C118.467 15.7185 116.284 14.4907 113.616 13.349C103.929 9.2043 96.6993 7.66858 86.5024 7.59004L76.4975 7.51301L68.0004 28.1961C63.327 39.5718 59.5738 48.8792 59.6598 48.8792C59.7458 48.8792 61.6329 47.953 63.8531 46.821Z" fill="white"/>
<path d="M202.706 138V128.587L258.036 56.2665H204.772V45.0167H274.567V54.4298L219.236 126.75H275.944V138H202.706ZM281.266 138L321.1 45.0167H335.678L375.397 138H362.196L350.257 110.22H306.062L294.238 138H281.266ZM310.309 98.97H346.24L328.676 57.4145H328.102L310.309 98.97ZM424.321 139.378C414.908 139.378 406.681 137.426 399.64 133.523C392.676 129.543 387.281 123.957 383.454 116.763C379.628 109.569 377.715 101.151 377.715 91.5083C377.715 81.7891 379.628 73.3709 383.454 66.2536C387.281 59.0599 392.676 53.5115 399.64 49.6085C406.681 45.6289 414.908 43.6392 424.321 43.6392C433.811 43.6392 442.038 45.6289 449.002 49.6085C456.043 53.5115 461.438 59.0599 465.188 66.2536C469.014 73.3709 470.928 81.7891 470.928 91.5083C470.928 101.151 469.014 109.569 465.188 116.763C461.361 123.957 455.928 129.543 448.887 133.523C441.923 137.426 433.734 139.378 424.321 139.378ZM424.321 127.898C434.729 127.898 442.879 124.646 448.772 118.141C454.665 111.636 457.611 102.758 457.611 91.5083C457.611 80.182 454.665 71.3046 448.772 64.8761C442.879 58.3711 434.729 55.1186 424.321 55.1186C413.99 55.1186 405.839 58.3711 399.87 64.8761C393.977 71.3046 391.031 80.182 391.031 91.5083C391.031 102.835 393.977 111.75 399.87 118.255C405.839 124.684 413.99 127.898 424.321 127.898ZM469.921 138L504.934 89.5568L472.447 45.0167H487.255L513.084 80.6029H513.658L539.372 45.0167H553.491L521.005 89.3273L556.017 138H540.979L513.084 98.7404H512.51L484.156 138H469.921Z" fill="white"/>
<path d="M573.349 139.378C570.824 139.378 568.681 138.497 566.921 136.737C565.16 134.977 564.28 132.834 564.28 130.309C564.28 127.783 565.16 125.64 566.921 123.88C568.681 122.12 570.824 121.24 573.349 121.24C575.875 121.24 578.017 122.12 579.778 123.88C581.538 125.64 582.418 127.783 582.418 130.309C582.418 132.834 581.538 134.977 579.778 136.737C578.017 138.497 575.875 139.378 573.349 139.378ZM618.504 139.263C610.698 139.263 604.538 137.349 600.023 133.523C595.584 129.62 593.365 124.531 593.365 118.255C593.365 111.674 595.584 106.585 600.023 102.988C604.461 99.3144 610.851 97.4776 619.193 97.4776H642.726V94.3782C642.726 83.7406 636.872 78.4218 625.162 78.4218C615.596 78.4218 609.818 82.0187 607.829 89.2125H594.857C596.005 82.4013 599.257 77.1208 604.614 73.3709C610.048 69.6209 616.974 67.746 625.392 67.746C634.958 67.746 642.267 70.0036 647.318 74.5188C652.445 79.034 655.009 85.539 655.009 94.0338V124.684H661.208V138H647.433V127.439H642.611C640.239 131.112 636.986 134.02 632.854 136.163C628.721 138.23 623.938 139.263 618.504 139.263ZM620.226 128.931C624.359 128.931 628.147 128.089 631.591 126.406C635.035 124.722 637.752 122.426 639.741 119.518C641.731 116.61 642.726 113.434 642.726 109.99V106.891H619.997C610.354 106.891 605.533 110.488 605.533 117.681C605.533 121.125 606.834 123.88 609.436 125.947C612.038 127.936 615.635 128.931 620.226 128.931ZM677.053 138V69.1235H689.91V138H677.053ZM683.482 59.7104C681.339 59.7104 679.502 58.9451 677.971 57.4145C676.441 55.8839 675.676 54.0472 675.676 51.9044C675.676 49.7615 676.441 47.9248 677.971 46.3942C679.502 44.8636 681.339 44.0983 683.482 44.0983C685.624 44.0983 687.461 44.8636 688.992 46.3942C690.522 47.9248 691.288 49.7615 691.288 51.9044C691.288 54.0472 690.522 55.8839 688.992 57.4145C687.461 58.9451 685.624 59.7104 683.482 59.7104Z" fill="white" fill-opacity="0.5"/>
</svg>
